{
.formatVersion = 3;
axes = (
{
name = Weight;
tag = wght;
}
);
classes = (
{
code = "periodcentered.loclCAT at dieresiscomb dotaccentcomb gravecomb acutecomb hungarumlautcomb circumflexcomb caroncomb brevecomb ringcomb tildecomb macroncomb hookabovecomb dblgravecomb breveinvertedcomb commaturnedabovecomb slashlongcomb";
name = case;
},
{
code = "periodcentered.loclCAT.case at.case dieresiscomb.case dotaccentcomb.case gravecomb.case acutecomb.case hungarumlautcomb.case circumflexcomb.case caroncomb.case brevecomb.case ringcomb.case tildecomb.case macroncomb.case hookabovecomb.case dblgravecomb.case breveinvertedcomb.case commaturnedabovecomb.case slashlongcomb.case";
name = case2;
},
{
code = "gravecomb acutecomb circumflexcomb tildecomb macroncomb brevecomb dotaccentcomb dieresiscomb ringcomb hungarumlautcomb caroncomb commaturnedabovecomb hookabovecomb gravetonecomb acutetonecomb dblgravecomb breveinvertedcomb";
name = ccmp;
},
{
code = "dieresiscomb dotaccentcomb gravecomb acutecomb hungarumlautcomb circumflexcomb caroncomb brevecomb ringcomb tildecomb macroncomb hookabovecomb dblgravecomb breveinvertedcomb commaturnedabovecomb slashlongcomb";
name = ccmp2;
},
{
code = "dieresiscomb.case dotaccentcomb.case gravecomb.case acutecomb.case hungarumlautcomb.case circumflexcomb.case caroncomb.case brevecomb.case ringcomb.case tildecomb.case macroncomb.case hookabovecomb.case dblgravecomb.case breveinvertedcomb.case commaturnedabovecomb.case slashlongcomb.case";
name = ccmp3;
},
{

glyphs = (
{
glyphname = .notdef;
layers = (
{
layerId = "D37495DA-15D9-4303-B971-3AA975198D58";
shapes = (
{
closed = 1;
nodes = (
(401,165,l),
(210,165,l),
(257,553,l),
(448,553,l)
);
},
{
closed = 1;
nodes = (
(118,718,l),
(30,0,l),
(540,0,l),
(628,718,l)
);
},
{
closed = 1;
nodes = (
(47,143,l),
(163,37,l),
(611,575,l),
(495,681,l)
);
}
);
width = 631;
},
{
layerId = "7ECE30C0-9795-4277-8F7A-A75C7AD12C73";
shapes = (
{
closed = 1;
nodes = (
(496,82,l),
(120,82,l),
(188,636,l),
(564,636,l)
);
},
{
closed = 1;
nodes = (
(131,718,l),
(43,0,l),
(553,0,l),
(641,718,l)
);
},
{
closed = 1;
nodes = (
(64,80,l),
(114,28,l),
(621,638,l),
(571,690,l)
);
}
);
width = 658;
},
{
layerId = "7040E9A1-72E8-429E-817E-85B6EE6706A0";
shapes = (
{
closed = 1;
nodes = (
(523,34,l),
(89,34,l),
(169,684,l),
(603,684,l)
);
},
{
closed = 1;
nodes = (
(135,718,l),
(47,0,l),
(557,0,l),
(645,718,l)
);
},
{
closed = 1;
nodes = (
(52,32,l),
(82,10,l),
(641,686,l),
(611,708,l)
);
}
);
width = 666;
}
);
},
{
glyphname = exclam;
layers = (
{
layerId = "D37495DA-15D9-4303-B971-3AA975198D58";
shapes = (
{
closed = 1;
nodes = (
(111,730,l),
(281,730,l),
(200,240,l),
(68,240,l)
);
},
{
closed = 1;
nodes = (
(57,-16,o),
(18,23,o),
(18,73,cs),
(18,123,o),
(66,170,o),
(117,170,cs),
(169,170,o),
(210,133,o),
(210,81,cs),
(210,26,o),
(162,-16,o),
(107,-16,cs)
);
}
);
width = 272;
},
{
layerId = "7ECE30C0-9795-4277-8F7A-A75C7AD12C73";
shapes = (
{
closed = 1;
nodes = (
(123,730,l),
(212,730,l),
(136,213,l),
(70,213,l)
);
},
{
closed = 1;
nodes = (
(47,-13,o),
(26,10,o),
(26,41,cs),
(26,73,o),
(53,102,o),
(85,102,cs),
(116,102,o),
(140,80,o),
(140,49,cs),
(140,13,o),
(114,-13,o),
(78,-13,cs)
);
}
);
width = 217;
},
{
layerId = "7040E9A1-72E8-429E-817E-85B6EE6706A0";
shapes = (
{
closed = 1;
nodes = (
(130,730,l),
(171,730,l),
(97,198,l),
(71,198,l)
);
},
{
closed = 1;
nodes = (
(41,-10,o),
(30,2,o),
(30,22,cs),
(30,43,o),
(45,59,o),
(66,59,cs),
(85,59,o),
(99,47,o),
(99,27,cs),
(99,5,o),
(83,-10,o),
(61,-10,cs)
);
}
);
width = 184;
}
);
unicode = 33;
},
{
glyphname = quotedbl;
layers = (
{
layerId = "D37495DA-15D9-4303-B971-3AA975198D58";
shapes = (
{
closed = 1;
nodes = (
(317,746,l),
(479,746,l),
(428,452,l),
(296,452,l)
);
},
{
closed = 1;
nodes = (
(120,746,l),
(282,746,l),
(231,452,l),
(99,452,l)
);
}
);
width = 477;
},
{
layerId = "7ECE30C0-9795-4277-8F7A-A75C7AD12C73";
shapes = (
{
closed = 1;
nodes = (
(271,716,l),
(358,716,l),
(321,487,l),
(252,487,l)
);
},
{
closed = 1;
nodes = (
(134,716,l),
(221,716,l),
(184,487,l),
(115,487,l)
);
}
);
width = 378;
},
{
layerId = "7040E9A1-72E8-429E-817E-85B6EE6706A0";
shapes = (
{
closed = 1;
nodes = (
(249,705,l),
(295,705,l),
(263,498,l),
(229,498,l)
);
},
{
closed = 1;
nodes = (
(140,705,l),
(186,705,l),
(154,498,l),
(120,498,l)
);
}
);
width = 322;
}
);
leftKerningGroup = degree2;
rightKerningGroup = degree;
unicode = 34;
},
{
glyphname = numbersign;
layers = (
{
layerId = "D37495DA-15D9-4303-B971-3AA975198D58";
shapes = (
{
closed = 1;
nodes = (
(117,155,l),
(85,25,l),
(244,25,l),
(276,155,l),
(326,155,l),
(294,25,l),
(453,25,l),
(485,155,l),
(585,155,l),
(622,303,l),
(522,303,l),
(534,354,l),
(634,354,l),
(671,502,l),
(571,502,l),
(603,636,l),
(442,636,l),
(410,502,l),
(362,502,l),
(394,636,l),
(233,636,l),
(201,502,l),
(101,502,l),
(64,354,l),
(164,354,l),
(152,303,l),
(52,303,l),
(15,155,l)
);
},
{
closed = 1;
nodes = (
(361,303,l),
(313,303,l),
(325,354,l),
(373,354,l)
);
}
);
width = 667;
},
{
layerId = "7ECE30C0-9795-4277-8F7A-A75C7AD12C73";
shapes = (
{
closed = 1;
nodes = (
(134,178,l),
(98,29,l),
(174,29,l),
(210,178,l),
(350,178,l),
(314,29,l),
(390,29,l),
(426,178,l),
(537,178,l),
(555,252,l),
(444,252,l),
(480,399,l),
(591,399,l),
(609,472,l),
(498,472,l),
(535,621,l),
(457,621,l),
(420,472,l),
(282,472,l),
(319,621,l),
(241,621,l),
(204,472,l),
(93,472,l),
(75,399,l),
(186,399,l),
(150,252,l),
(39,252,l),
(21,178,l)
);
},
{
closed = 1;
nodes = (
(366,252,l),
(228,252,l),
(264,399,l),
(402,399,l)
);
}
);
width = 612;
},
{
layerId = "7040E9A1-72E8-429E-817E-85B6EE6706A0";
shapes = (
{
closed = 1;
nodes = (
(142,190,l),
(103,32,l),
(139,32,l),
(178,190,l),
(370,190,l),
(331,32,l),
(366,32,l),
(405,190,l),
(522,190,l),
(531,226,l),
(414,226,l),
(462,425,l),
(579,425,l),
(588,460,l),
(471,460,l),
(510,617,l),
(471,617,l),
(432,460,l),
(244,460,l),
(283,617,l),
(245,617,l),
(206,460,l),
(89,460,l),
(80,425,l),
(197,425,l),
(149,226,l),
(32,226,l),
(23,190,l)
);
},
{
closed = 1;
nodes = (
(375,226,l),
(187,226,l),
(235,425,l),
(423,425,l)
);
}
);
width = 592;
}
);
unicode = 35;
},
{
glyphname = dollar;
layers = (
{
layerId = "D37495DA-15D9-4303-B971-3AA975198D58";
shapes = (
{
closed = 1;
nodes = (
(327,-30,o),
(414,11,o),
(467,78,cs),
(493,111,o),
(508,149,o),
(513,190,cs),
(520,247,o),
(494,293,o),
(438,334,cs),
(409,355,o),
(372,376,o),
(325,397,cs),
(302,408,o),
(284,418,o),
(269,428,cs),
(254,438,o),
(244,448,o),
(237,457,cs),
(230,466,o),
(228,473,o),
(229,480,cs),
(230,494,o),
(237,505,o),
(250,514,cs),
(262,522,o),
(278,526,o),
(298,526,cs),
(331,526,o),
(346,502,o),
(349,477,c),
(498,515,l),
(498,563,o),
(480,601,o),
(444,629,cs),
(407,657,o),
(358,669,o),
(295,666,cs),
(220,662,o),
(152,632,o),
(109,580,cs),
(87,554,o),
(73,524,o),
(66,489,cs),
(54,426,o),
(68,383,o),
(121,341,cs),
(148,320,o),
(186,298,o),
(237,276,cs),
(294,251,o),
(327,230,o),
(340,211,cs),
(346,201,o),
(348,191,o),
(347,182,cs),
(344,157,o),
(327,137,o),
(299,126,cs),
(285,121,o),
(269,118,o),
(251,118,c),
(218,117,o),
(195,126,o),
(180,144,cs),
(165,162,o),
(157,184,o),
(155,211,c),
(4,171,l),
(8,94,o),
(46,31,o),
(113,-4,cs),
(146,-21,o),
(186,-30,o),
(231,-30,cs)
);
},
{
closed = 1;
nodes = (
(261,753,l),
(162,-77,l),
(283,-77,l),
(382,753,l)
);
}
);
width = 531;
},
{
layerId = "7ECE30C0-9795-4277-8F7A-A75C7AD12C73";
shapes = (
{
closed = 1;
nodes = (
(281,-24,o),
(360,7,o),
(412,68,cs),
(438,98,o),
(454,134,o),
(461,177,cs),
(472,249,o),
(440,296,o),
(386,327,cs),
(359,342,o),
(322,359,o),
(276,378,cs),
(248,389,o),
(226,399,o),
(211,407,cs),
(196,415,o),
(183,426,o),
(173,441,cs),
(163,455,o),
(160,472,o),
(165,493,cs),
(171,519,o),
(187,540,o),
(212,557,cs),
(237,573,o),
(265,581,o),
(295,580,cs),
(355,579,o),
(380,550,o),
(381,518,c),
(458,540,l),
(457,572,o),
(442,599,o),
(415,622,c),
(387,644,o),
(350,655,o),
(305,655,cs),
(241,655,o),
(173,630,o),
(126,582,cs),
(103,558,o),
(88,529,o),
(81,495,cs),
(66,424,o),
(100,380,o),
(141,357,cs),
(161,345,o),
(188,332,o),
(223,318,cs),
(300,287,o),
(341,265,o),
(364,232,cs),
(375,215,o),
(379,195,o),
(376,172,cs),
(369,125,o),
(338,88,o),
(295,69,cs),
(273,59,o),
(250,54,o),
(226,55,cs),
(187,56,o),
(154,68,o),
(127,92,cs),
(100,115,o),
(84,145,o),
(81,180,c),
(3,156,l),
(6,92,o),
(45,37,o),
(105,6,cs),
(135,-10,o),
(168,-19,o),
(205,-20,cs)
);
},
{
closed = 1;
nodes = (
(267,740,l),
(167,-99,l),
(248,-99,l),
(348,740,l)
);
}
);
width = 490;
},
{
layerId = "7040E9A1-72E8-429E-817E-85B6EE6706A0";
shapes = (
{
closed = 1;
nodes = (
(268,-24,o),
(343,7,o),
(391,64,cs),
(415,93,o),
(430,126,o),
(436,163,cs),
(447,234,o),
(414,284,o),
(368,314,cs),
(345,329,o),
(314,345,o),
(276,363,cs),
(237,382,o),
(209,397,o),
(190,408,cs),
(171,419,o),
(157,432,o),
(146,449,cs),
(135,466,o),
(132,486,o),
(137,509,cs),
(144,538,o),
(163,564,o),
(195,585,cs),
(227,606,o),
(260,615,o),
(295,614,cs),
(359,611,o),
(400,588,o),
(401,548,c),
(440,560,l),
(437,585,o),
(425,606,o),
(402,623,cs),
(379,639,o),
(350,648,o),
(314,650,cs),
(243,654,o),
(177,628,o),
(137,582,cs),
(116,559,o),
(104,532,o),
(99,502,cs),
(90,443,o),
(119,406,o),
(158,383,cs),
(177,371,o),
(208,355,o),
(251,335,cs),
(318,303,o),
(361,277,o),
(386,236,cs),
(399,215,o),
(402,191,o),
(397,163,cs),
(386,104,o),
(344,55,o),
(287,31,cs),
(258,19,o),
(228,14,o),
(197,17,cs),
(159,20,o),
(125,34,o),
(96,57,cs),
(67,80,o),
(48,110,o),
(41,147,c),
(3,134,l),
(12,77,o),
(52,30,o),
(106,4,c),
(133,-10,o),
(161,-17,o),
(191,-19,cs)
);
},
{
closed = 1;
nodes = (
(286,758,l),
(185,-85,l),
(223,-85,l),
(324,758,l)
);
}
);
width = 473;
}
);
unicode = 36;
},
{
glyphname = percent;
layers = (
{
layerId = "D37495DA-15D9-4303-B971-3AA975198D58";
shapes = (
{
closed = 1;
nodes = (
(644,-16,o),
(614,-8,o),
(589,7,cs),
(537,38,o),
(511,94,o),
(519,161,cs),
(523,192,o),
(534,220,o),
(551,245,cs),
(586,295,o),
(643,325,o),
(706,325,cs),
(740,325,o),
(770,317,o),
(796,301,cs),
(847,269,o),
(873,211,o),
(865,143,cs),
(862,113,o),
(851,86,o),
(834,62,cs),
(798,13,o),
(741,-16,o),
(677,-16,cs)
);
},
{
closed = 1;
nodes = (
(722,71,o),
(749,111,o),
(759,161,cs),
(769,209,o),
(734,234,o),
(704,234,cs),
(657,234,o),
(627,186,o),
(622,136,cs),
(617,94,o),
(647,71,o),
(679,71,cs)
);
},
{
closed = 1;
nodes = (
(762,717,l),
(277,-4,l),
(152,-4,l),
(638,717,l)
);
},
{
closed = 1;
nodes = (
(184,381,o),
(154,389,o),
(129,404,cs),
(77,435,o),
(51,491,o),
(59,558,cs),
(63,589,o),
(74,617,o),
(91,642,cs),
(126,692,o),
(183,722,o),
(246,722,cs),
(280,722,o),
(310,714,o),
(336,698,cs),
(387,666,o),
(413,608,o),
(405,540,cs),
(402,510,o),
(391,483,o),
(374,459,cs),
(338,410,o),
(281,381,o),
(217,381,cs)
);
},
{
closed = 1;
nodes = (
(262,468,o),
(289,508,o),
(299,558,cs),
(309,606,o),
(274,631,o),
(244,631,cs),
(197,631,o),
(167,583,o),
(162,533,cs),
(157,491,o),
(187,468,o),
(219,468,cs)
);
}
);
width = 899;
},
{
layerId = "7ECE30C0-9795-4277-8F7A-A75C7AD12C73";
shapes = (
{
closed = 1;
nodes = (
(590,-11,o),
(565,-5,o),
(544,8,cs),
(502,34,o),
(481,82,o),
(489,139,c),
(492,166,o),
(502,191,o),
(517,213,cs),
(546,256,o),
(594,281,o),
(650,281,cs),
(678,281,o),
(702,274,o),
(724,262,c),
(765,235,o),
(786,187,o),
(780,129,cs),
(777,103,o),
(768,79,o),
(753,57,cs),
(722,14,o),
(674,-11,o),
(618,-11,cs)
);
},
{
closed = 1;
nodes = (
(664,49,o),
(705,90,o),
(710,139,cs),
(715,185,o),
(686,219,o),
(649,219,cs),
(603,219,o),
(563,177,o),
(556,127,cs),
(550,83,o),
(581,49,o),
(620,49,cs)
);
},
{
closed = 1;
nodes = (
(715,707,l),
(231,-14,l),
(140,-14,l),
(627,707,l)
);
},
{
closed = 1;
nodes = (
(171,424,o),
(146,430,o),
(125,443,cs),
(83,469,o),
(62,517,o),
(70,574,c),
(73,601,o),
(83,626,o),
(98,648,cs),
(127,691,o),
(175,716,o),
(231,716,cs),
(259,716,o),
(283,709,o),
(305,697,c),
(346,670,o),
(367,622,o),
(361,564,cs),
(358,538,o),
(349,514,o),
(334,492,cs),
(303,449,o),
(255,424,o),
(199,424,cs)
);
},
{
closed = 1;
nodes = (
(245,484,o),
(286,525,o),
(291,574,cs),
(296,620,o),
(267,654,o),
(230,654,cs),
(184,654,o),
(144,612,o),
(137,562,cs),
(131,518,o),
(162,484,o),
(201,484,cs)
);
}
);
width = 827;
},
{
layerId = "7040E9A1-72E8-429E-817E-85B6EE6706A0";
shapes = (
{
closed = 1;
nodes = (
(579,-13,o),
(557,-7,o),
(538,5,cs),
(500,28,o),
(482,72,o),
(489,125,cs),
(492,150,o),
(501,173,o),
(515,193,cs),
(542,233,o),
(586,256,o),
(638,256,cs),
(663,256,o),
(685,250,o),
(704,239,c),
(741,215,o),
(759,172,o),
(754,119,cs),
(751,94,o),
(743,71,o),
(729,51,cs),
(701,10,o),
(657,-13,o),
(605,-13,cs)
);
},
{
closed = 1;
nodes = (
(666,20,o),
(709,61,o),
(716,124,cs),
(723,184,o),
(693,223,o),
(637,223,cs),
(577,223,o),
(532,183,o),
(525,119,cs),
(518,59,o),
(550,20,o),
(607,20,cs)
);
},
{
closed = 1;
nodes = (
(677,698,l),
(205,-9,l),
(162,-9,l),
(635,698,l)
);
},
{
closed = 1;
nodes = (
(168,430,o),
(146,436,o),
(127,448,cs),
(89,471,o),
(71,515,o),
(78,568,cs),
(81,593,o),
(90,616,o),
(104,636,cs),
(131,676,o),
(175,699,o),
(227,699,cs),
(252,699,o),
(274,693,o),
(293,682,c),
(330,658,o),
(348,615,o),
(343,562,cs),
(340,537,o),
(332,514,o),
(318,494,cs),
(290,453,o),
(246,430,o),
(194,430,cs)
);
},
{
closed = 1;
nodes = (
(255,463,o),
(298,504,o),
(305,567,cs),
(312,627,o),
(282,666,o),
(226,666,cs),
(166,666,o),
(121,626,o),
(114,562,cs),
(107,502,o),
(139,463,o),
(196,463,cs)
);
}
);
width = 808;
}
);
leftKerningGroup = degree2;
unicode = 37;
},
{
glyphname = ampersand;
layers = (
{
layerId = "D37495DA-15D9-4303-B971-3AA975198D58";
shapes = (
{
closed = 1;
nodes = (
(611,74,l),
(581,103,ls),
(528,153,o),
(498,181,o),
(491,187,cs),
(467,208,o),
(428,248,o),
(374,307,cs),
(318,367,ls),
(278,410,o),
(267,438,o),
(271,463,cs),
(274,479,o),
(280,498,o),
(297,511,cs),
(305,517,o),
(315,520,o),
(328,520,cs),
(348,520,o),
(362,512,o),
(370,492,c),
(507,552,l),
(482,616,o),
(416,668,o),
(331,668,cs),
(264,668,o),
(195,638,o),
(150,583,cs),
(127,556,o),
(114,524,o),
(109,489,cs),
(100,414,o),
(133,359,o),
(198,291,cs),
(218,270,o),
(240,246,o),
(263,219,c),
(325,150,o),
(369,103,o),
(395,80,cs),
(401,75,o),
(416,59,o),
(440,34,cs),
(450,23,o),
(461,13,o),
(472,2,cs),
(483,-10,o),
(494,-21,o),
(505,-32,c)
);
},
{
closed = 1;
nodes = (
(319,-33,o),
(379,-14,o),
(429,24,cs),
(479,62,o),
(518,110,o),
(547,168,cs),
(575,225,o),
(593,284,o),
(600,344,c),
(455,352,l),
(443,256,o),
(405,182,o),
(350,143,cs),
(323,124,o),
(293,114,o),
(262,114,cs),
(226,114,o),
(202,127,o),
(191,150,cs),
(186,161,o),
(184,174,o),
(186,189,cs),
(191,224,o),
(209,255,o),
(256,275,c),
(203,413,l),
(156,392,o),
(115,361,o),
(81,321,cs),
(46,281,o),
(26,237,o),
(20,188,cs),
(9,103,o),
(49,32,o),
(122,-5,cs),
(159,-24,o),
(201,-33,o),
(250,-33,cs)
);
}
);
width = 645;
},
{
layerId = "7ECE30C0-9795-4277-8F7A-A75C7AD12C73";
shapes = (
{
closed = 1;
nodes = (
(578,34,l),
(534,76,ls),
(488,119,o),
(450,156,o),
(419,186,cs),
(396,209,o),
(363,243,o),
(321,290,cs),
(279,335,ls),
(218,400,o),
(199,446,o),
(203,487,c),
(207,518,o),
(225,546,o),
(257,562,cs),
(272,570,o),
(290,574,o),
(309,574,cs),
(353,574,o),
(379,555,o),
(391,520,c),
(461,551,l),
(440,607,o),
(385,650,o),
(312,650,cs),
(248,650,o),
(191,617,o),
(156,568,cs),
(138,543,o),
(127,517,o),
(123,490,cs),
(115,434,o),
(140,381,o),
(219,294,cs),
(228,283,o),
(238,273,o),
(249,261,cs),
(329,174,o),
(380,119,o),
(403,98,cs),
(414,87,o),
(426,76,o),
(437,65,cs),
(447,54,o),
(459,42,o),
(474,27,cs),
(489,12,o),
(505,-4,o),
(523,-21,c)
);
},
{
closed = 1;
nodes = (
(297,-15,o),
(353,3,o),
(400,39,cs),
(447,75,o),
(483,120,o),
(509,175,cs),
(535,229,o),
(551,285,o),
(558,343,c),
(483,347,l),
(470,235,o),
(422,145,o),
(351,97,cs),
(316,73,o),
(276,61,o),
(232,61,cs),
(177,61,o),
(137,82,o),
(119,116,cs),
(110,133,o),
(106,152,o),
(109,174,cs),
(116,229,o),
(157,284,o),
(218,311,c),
(190,377,l),
(146,360,o),
(110,333,o),
(81,298,cs),
(52,262,o),
(34,222,o),
(29,178,cs),
(18,95,o),
(57,36,o),
(123,7,cs),
(156,-8,o),
(192,-15,o),
(232,-15,cs)
);
}
);
width = 624;
},
{
layerId = "7040E9A1-72E8-429E-817E-85B6EE6706A0";
shapes = (
{
closed = 1;
nodes = (
(569,7,l),
(516,58,ls),
(485,88,o),
(453,118,o),
(422,148,cs),
(398,171,o),
(358,213,o),
(301,276,cs),
(255,327,ls),
(184,407,o),
(166,457,o),
(171,498,cs),
(175,539,o),
(205,577,o),
(248,598,cs),
(269,608,o),
(291,613,o),
(314,613,cs),
(363,613,o),
(399,586,o),
(415,542,c),
(447,556,l),
(426,611,o),
(380,649,o),
(313,649,cs),
(252,649,o),
(197,620,o),
(164,574,cs),
(147,551,o),
(137,526,o),
(134,500,cs),
(127,444,o),
(153,392,o),
(230,304,cs),
(247,284,o),
(251,280,o),
(270,260,cs),
(321,203,o),
(364,157,o),
(398,123,cs),
(427,95,o),
(455,67,o),
(484,39,cs),
(497,26,o),
(507,17,o),
(514,11,cs),
(521,4,o),
(531,-6,o),
(544,-19,c)
);
},
{
closed = 1;
nodes = (
(279,-13,o),
(330,2,o),
(377,33,cs),
(423,63,o),
(461,105,o),
(492,158,cs),
(522,211,o),
(541,271,o),
(549,338,c),
(513,340,l),
(498,221,o),
(441,120,o),
(360,65,cs),
(319,37,o),
(276,23,o),
(229,23,cs),
(166,23,o),
(113,49,o),
(86,93,cs),
(73,115,o),
(68,140,o),
(71,169,cs),
(79,234,o),
(130,299,o),
(203,335,c),
(190,365,l),
(147,346,o),
(112,320,o),
(84,285,cs),
(55,250,o),
(39,213,o),
(34,174,cs),
(26,106,o),
(57,45,o),
(118,12,cs),
(148,-5,o),
(183,-13,o),
(224,-13,cs)
);
}
);
width = 628;
}
);
unicode = 38;
},
{
glyphname = quotesingle;
layers = (
{
layerId = "D37495DA-15D9-4303-B971-3AA975198D58";
shapes = (
{
closed = 1;
nodes = (
(120,743,l),
(282,743,l),
(231,449,l),
(99,449,l)
);
}
);
width = 280;
},
{
layerId = "7ECE30C0-9795-4277-8F7A-A75C7AD12C73";
shapes = (
{
closed = 1;
nodes = (
(134,716,l),
(221,716,l),
(184,487,l),
(115,487,l)
);
}
);
width = 241;
},
{
layerId = "7040E9A1-72E8-429E-817E-85B6EE6706A0";
shapes = (
{
closed = 1;
nodes = (
(140,705,l),
(186,705,l),
(154,498,l),
(120,498,l)
);
}
);
width = 213;
}
);
leftKerningGroup = degree2;
rightKerningGroup = degree;
unicode = 39;
},
{
glyphname = parenleft;
layers = (
{
layerId = "D37495DA-15D9-4303-B971-3AA975198D58";
shapes = (
{
closed = 1;
nodes = (
(267,-159,l),
(210,-132,o),
(161,-95,o),
(122,-48,cs),
(43,47,o),
(9,173,o),
(26,313,cs),
(34,380,o),
(53,443,o),
(83,504,cs),
(143,624,o),
(245,721,o),
(374,770,c),
(439,636,l),
(398,625,o),
(359,602,o),
(323,568,cs),
(250,499,o),
(199,398,o),
(187,294,cs),
(182,249,o),
(186,205,o),
(199,160,cs),
(226,70,o),
(284,-2,o),
(353,-30,c)
);
}
);
width = 396;
},
{
layerId = "7ECE30C0-9795-4277-8F7A-A75C7AD12C73";
shapes = (
{
closed = 1;
nodes = (
(246,-160,l),
(193,-131,o),
(150,-93,o),
(115,-46,cs),
(46,49,o),
(18,168,o),
(34,299,cs),
(42,363,o),
(60,424,o),
(87,483,cs),
(141,599,o),
(234,698,o),
(355,755,c),
(387,691,l),
(340,668,o),
(297,637,o),
(259,597,cs),
(182,516,o),
(131,409,o),
(118,292,cs),
(111,237,o),
(114,184,o),
(125,133,cs),
(148,32,o),
(204,-51,o),
(287,-100,c)
);
}
);
width = 343;
},
{
layerId = "7040E9A1-72E8-429E-817E-85B6EE6706A0";
shapes = (
{
closed = 1;
nodes = (
(238,-161,l),
(187,-130,o),
(146,-92,o),
(114,-45,cs),
(49,50,o),
(23,168,o),
(39,295,cs),
(47,357,o),
(64,417,o),
(89,474,cs),
(140,588,o),
(227,685,o),
(348,749,c),
(363,721,l),
(312,692,o),
(267,656,o),
(227,612,cs),
(146,523,o),
(92,409,o),
(79,292,cs),
(72,231,o),
(74,174,o),
(87,120,cs),
(111,11,o),
(170,-76,o),
(257,-132,c)
);
}
);
width = 319;
}
);
rightKerningGroup = parenleft;
unicode = 40;
},
{
glyphname = parenright;
layers = (
{
layerId = "D37495DA-15D9-4303-B971-3AA975198D58";
shapes = (
{
closed = 1;
nodes = (
(143,780,l),
(200,753,o),
(249,716,o),
(288,669,cs),
(367,574,o),
(401,448,o),
(384,308,cs),
(376,241,o),
(357,178,o),
(327,117,cs),
(267,-3,o),
(165,-100,o),
(36,-149,c),
(-29,-15,l),
(12,-4,o),
(51,19,o),
(87,53,cs),
(160,122,o),
(211,223,o),
(223,327,cs),
(228,372,o),
(224,416,o),
(211,461,cs),
(184,551,o),
(126,623,o),
(57,651,c)
);
}
);
width = 395;
},
{
layerId = "7ECE30C0-9795-4277-8F7A-A75C7AD12C73";
shapes = (
{
closed = 1;
nodes = (
(112,780,l),
(165,751,o),
(208,713,o),
(243,666,cs),
(312,571,o),
(340,452,o),
(324,321,cs),
(316,257,o),
(298,196,o),
(271,137,cs),
(217,21,o),
(124,-78,o),
(3,-135,c),
(-29,-71,l),
(18,-48,o),
(61,-17,o),
(99,23,cs),
(176,104,o),
(227,211,o),
(240,328,cs),
(247,383,o),
(244,436,o),
(233,487,cs),
(210,588,o),
(154,671,o),
(71,720,c)
);
}
);
width = 343;
},
{
layerId = "7040E9A1-72E8-429E-817E-85B6EE6706A0";
shapes = (
{
closed = 1;
nodes = (
(95,773,l),
(146,742,o),
(187,704,o),
(219,657,cs),
(284,562,o),
(310,444,o),
(294,317,cs),
(286,255,o),
(269,195,o),
(244,138,cs),
(193,24,o),
(106,-73,o),
(-15,-137,c),
(-30,-109,l),
(21,-80,o),
(66,-44,o),
(106,0,cs),
(187,89,o),
(241,203,o),
(254,320,cs),
(261,381,o),
(259,438,o),
(246,492,cs),
(222,601,o),
(163,688,o),
(76,744,c)
);
}
);
width = 319;
}
);
leftKerningGroup = parenright;
unicode = 41;
},
{
glyphname = asterisk;
layers = (
{
layerId = "D37495DA-15D9-4303-B971-3AA975198D58";
shapes = (
{
closed = 1;
nodes = (
(88,458,l),
(197,369,l),
(278,482,l),
(330,372,l),
(458,455,l),
(390,547,l),
(511,573,l),
(487,713,l),
(360,662,l),
(389,796,l),
(242,796,l),
(237,663,l),
(124,713,l),
(61,573,l),
(180,548,l)
);
}
);
width = 493;
},
{
layerId = "7ECE30C0-9795-4277-8F7A-A75C7AD12C73";
shapes = (
{
closed = 1;
nodes = (
(107,459,l),
(169,407,l),
(264,532,l),
(329,409,l),
(403,458,l),
(330,564,l),
(471,602,l),
(455,683,l),
(310,628,l),
(337,780,l),
(252,780,l),
(241,629,l),
(111,683,l),
(75,602,l),
(207,566,l)
);
}
);
width = 460;
},
{
layerId = "7040E9A1-72E8-429E-817E-85B6EE6706A0";
shapes = (
{
closed = 1;
nodes = (
(117,468,l),
(148,441,l),
(255,580,l),
(328,442,l),
(367,468,l),
(285,585,l),
(442,629,l),
(433,671,l),
(272,610,l),
(304,779,l),
(257,779,l),
(245,611,l),
(100,671,l),
(82,629,l),
(229,587,l)
);
}
);
width = 430;
}
);
leftKerningGroup = degree2;
rightKerningGroup = degree;
unicode = 42;
},
{
glyphname = plus;
layers = (
{
layerId = "D37495DA-15D9-4303-B971-3AA975198D58";
shapes = (
{
closed = 1;
nodes = (
(190,227,l),
(56,227,l),
(74,375,l),
(208,375,l),
(225,511,l),
(386,511,l),
(369,375,l),
(503,375,l),
(485,227,l),
(351,227,l),
(334,90,l),
(173,90,l)
);
}
);
width = 546;
},
{
layerId = "7ECE30C0-9795-4277-8F7A-A75C7AD12C73";
shapes = (
{
closed = 1;
nodes = (
(223,259,l),
(70,259,l),
(79,332,l),
(232,332,l),
(251,487,l),
(328,487,l),
(309,332,l),
(462,332,l),
(453,259,l),
(300,259,l),
(281,103,l),
(204,103,l)
);
}
);
width = 520;
},
{
layerId = "7040E9A1-72E8-429E-817E-85B6EE6706A0";
shapes = (
{
closed = 1;
nodes = (
(224,275,l),
(61,275,l),
(65,311,l),
(228,311,l),
(249,474,l),
(287,474,l),
(266,311,l),
(429,311,l),
(425,275,l),
(262,275,l),
(242,111,l),
(204,111,l)
);
}
);
width = 480;
}
);
unicode = 43;
},
{
glyphname = comma;
layers = (
{
layerId = "D37495DA-15D9-4303-B971-3AA975198D58";
shapes = (
{
closed = 1;
nodes = (
(49,-198,l),
(82,-167,o),
(120,-121,o),
(148,-66,cs),
(175,-14,o),
(188,38,o),
(192,65,cs),
(199,121,o),
(163,158,o),
(118,158,cs),
(97,158,o),
(78,150,o),
(60,135,cs),
(42,119,o),
(32,100,o),
(29,78,cs),
(28,68,o),
(28,56,o),
(29,42,cs),
(30,9,o),
(30,-13,o),
(23,-40,cs),
(15,-69,o),
(-3,-106,o),
(-27,-133,c)
);
}
);
width = 240;
},
{
layerId = "7ECE30C0-9795-4277-8F7A-A75C7AD12C73";
shapes = (
{
closed = 1;
nodes = (
(44,-148,l),
(77,-117,o),
(109,-75,o),
(122,-46,cs),
(135,-19,o),
(148,22,o),
(151,49,cs),
(154,77,o),
(140,95,o),
(115,95,cs),
(103,95,o),
(93,91,o),
(84,83,cs),
(75,74,o),
(69,63,o),
(68,50,c),
(67,46,o),
(67,39,o),
(67,28,c),
(66,8,o),
(65,-17,o),
(60,-30,c),
(53,-54,o),
(27,-92,o),
(6,-116,c)
);
}
);
width = 240;
},
{
layerId = "7040E9A1-72E8-429E-817E-85B6EE6706A0";
shapes = (
{
closed = 1;
nodes = (
(58,-121,l),
(79,-97,o),
(97,-68,o),
(108,-44,cs),
(119,-19,o),
(126,10,o),
(130,42,c),
(133,58,o),
(125,71,o),
(110,71,cs),
(103,71,o),
(97,69,o),
(92,64,cs),
(87,59,o),
(84,52,o),
(83,43,c),
(83,41,o),
(83,39,o),
(83,37,c),
(80,18,o),
(78,-13,o),
(70,-32,cs),
(63,-51,o),
(45,-83,o),
(29,-103,c)
);
}
);
width = 240;
}
);
unicode = 44;
},
{
glyphname = hyphen;
layers = (
{
layerId = "D37495DA-15D9-4303-B971-3AA975198D58";
shapes = (
{
closed = 1;
nodes = (
(75,392,l),
(57,244,l),
(441,244,l),
(459,392,l)
);
}
);
width = 500;
},
{
layerId = "7ECE30C0-9795-4277-8F7A-A75C7AD12C73";
shapes = (
{
closed = 1;
nodes = (
(97,345,l),
(87,269,l),
(418,269,l),
(428,345,l)
);
}
);
width = 500;
},
{
layerId = "7040E9A1-72E8-429E-817E-85B6EE6706A0";
shapes = (
{
closed = 1;
nodes = (
(105,324,l),
(101,288,l),
(408,288,l),
(412,324,l)
);
}
);
width = 500;
}
);
leftKerningGroup = hyphen2;
rightKerningGroup = hyphen;
unicode = 45;
},
{
glyphname = period;
layers = (
{
layerId = "D37495DA-15D9-4303-B971-3AA975198D58";
shapes = (
{
closed = 1;
nodes = (
(116,-20,o),
(139,-12,o),
(159,6,cs),
(178,23,o),
(190,43,o),
(193,66,cs),
(196,95,o),
(189,119,o),
(171,139,cs),
(153,159,o),
(130,169,o),
(101,169,cs),
(77,169,o),
(56,160,o),
(37,143,cs),
(18,126,o),
(6,105,o),
(3,82,cs),
(0,55,o),
(7,31,o),
(24,11,cs),
(41,-10,o),
(64,-20,o),
(91,-20,cs)
);
}
);
width = 240;
},
{
layerId = "7ECE30C0-9795-4277-8F7A-A75C7AD12C73";
shapes = (
{
closed = 1;
nodes = (
(104,-14,o),
(116,-9,o),
(127,1,cs),
(138,10,o),
(145,21,o),
(146,34,cs),
(148,49,o),
(144,62,o),
(134,74,cs),
(124,85,o),
(112,91,o),
(97,91,cs),
(84,91,o),
(72,86,o),
(61,76,cs),
(50,66,o),
(43,55,o),
(42,42,cs),
(41,27,o),
(45,14,o),
(55,3,cs),
(64,-8,o),
(76,-14,o),
(91,-14,cs)
);
}
);
width = 240;
},
{
layerId = "7040E9A1-72E8-429E-817E-85B6EE6706A0";
shapes = (
{
closed = 1;
nodes = (
(99,-5,o),
(108,-2,o),
(115,4,cs),
(122,10,o),
(126,18,o),
(127,28,cs),
(128,39,o),
(125,47,o),
(119,54,cs),
(113,61,o),
(105,64,o),
(94,64,cs),
(85,64,o),
(77,61,o),
(70,55,cs),
(63,49,o),
(59,41,o),
(58,32,cs),
(57,21,o),
(59,12,o),
(65,5,cs),
(70,-2,o),
(78,-5,o),
(89,-5,cs)
);
}
);
width = 240;
}
);
unicode = 46;
},
{
glyphname = slash;
layers = (
{
layerId = "D37495DA-15D9-4303-B971-3AA975198D58";
shapes = (
{
closed = 1;
nodes = (
(289,751,l),
(-31,-69,l),
(145,-69,l),
(458,751,l)
);
}
);
width = 404;
},
{
layerId = "7ECE30C0-9795-4277-8F7A-A75C7AD12C73";
shapes = (
{
closed = 1;
nodes = (
(302,750,l),
(-17,-68,l),
(70,-68,l),
(388,750,l)
);
}
);
width = 349;
},
{
layerId = "7040E9A1-72E8-429E-817E-85B6EE6706A0";
shapes = (
{
closed = 1;
nodes = (
(310,751,l),
(-9,-69,l),
(31,-69,l),
(351,751,l)
);
}
);
width = 319;
}
);
unicode = 47;
},
{
glyphname = zero;
layers = (
{
layerId = "D37495DA-15D9-4303-B971-3AA975198D58";
shapes = (
{
closed = 1;
nodes = (
(505,-16,o),
(608,163,o),
(628,328,cs),
(649,503,o),
(585,701,o),
(365,701,cs),
(155,701,o),
(43,515,o),
(22,348,cs),
(1,178,o),
(67,-16,o),
(290,-16,cs)
);
},
{
closed = 1;
nodes = (
(216,136,o),
(183,205,o),
(198,331,cs),
(216,466,o),
(272,549,o),
(354,549,cs),
(432,549,o),
(468,475,o),
(452,349,cs),
(437,215,o),
(376,136,o),
(293,136,cs)
);
}
);
width = 634;
},
{
layerId = "7ECE30C0-9795-4277-8F7A-A75C7AD12C73";
shapes = (
{
closed = 1;
nodes = (
(475,-13,o),
(593,155,o),
(616,334,cs),
(638,516,o),
(560,698,o),
(367,698,cs),
(178,698,o),
(59,524,o),
(37,346,cs),
(15,167,o),
(93,-13,o),
(289,-13,cs)
);
},
{
closed = 1;
nodes = (
(156,64,o),
(109,201,o),
(126,337,cs),
(142,478,o),
(225,620,o),
(365,620,cs),
(498,620,o),
(546,487,o),
(528,347,cs),
(510,210,o),
(434,64,o),
(291,64,cs)
);
}
);
width = 634;
},
{
layerId = "7040E9A1-72E8-429E-817E-85B6EE6706A0";
shapes = (
{
closed = 1;
nodes = (
(463,-10,o),
(584,149,o),
(607,334,cs),
(630,518,o),
(550,695,o),
(365,695,cs),
(185,695,o),
(65,525,o),
(43,342,cs),
(21,159,o),
(99,-10,o),
(284,-10,cs)
);
},
{
closed = 1;
nodes = (
(129,26,o),
(67,181,o),
(85,338,cs),
(104,494,o),
(206,658,o),
(366,658,cs),
(522,658,o),
(585,500,o),
(566,344,cs),
(547,191,o),
(453,26,o),
(286,26,cs)
);
}
);
width = 634;
}
);
unicode = 48;
},
{
glyphname = one;
layers = (
{
layerId = "D37495DA-15D9-4303-B971-3AA975198D58";
shapes = (
{
closed = 1;
nodes = (
(383,0,l),
(467,685,l),
(375,685,l),
(287,625,o),
(174,576,o),
(107,565,c),
(129,397,l),
(182,404,o),
(233,423,o),
(264,446,c),
(207,0,l)
);
},
{
closed = 1;
nodes = (
(68,148,l),
(50,0,l),
(538,0,l),
(556,148,l)
);
}
);
width = 634;
},
{
layerId = "7ECE30C0-9795-4277-8F7A-A75C7AD12C73";
shapes = (
{
closed = 1;
nodes = (
(332,-1,l),
(416,685,l),
(389,685,l),
(289,622,o),
(209,578,o),
(139,570,c),
(154,499,l),
(215,509,o),
(263,518,o),
(314,554,c),
(244,-1,l)
);
},
{
closed = 1;
nodes = (
(72,76,l),
(63,0,l),
(513,0,l),
(522,76,l)
);
}
);
width = 634;
},
{
layerId = "7040E9A1-72E8-429E-817E-85B6EE6706A0";
shapes = (
{
closed = 1;
nodes = (
(309,0,l),
(392,685,l),
(379,685,l),
(287,617,o),
(216,580,o),
(161,568,c),
(169,532,l),
(235,550,o),
(287,571,o),
(345,621,c),
(269,0,l)
);
},
{
closed = 1;
nodes = (
(75,36,l),
(71,0,l),
(505,0,l),
(509,36,l)
);
}
);
width = 634;
}
);
unicode = 49;
},
{
glyphname = two;
layers = (
{
layerId = "D37495DA-15D9-4303-B971-3AA975198D58";
shapes = (
{
closed = 1;
nodes = (
(535,1,l),
(554,158,l),
(274,154,l),
(282,175,o),
(364,239,o),
(416,274,cs),
(495,327,o),
(571,395,o),
(581,484,cs),
(596,608,o),
(504,698,o),
(361,698,cs),
(232,698,o),
(129,626,o),
(89,515,c),
(223,442,l),
(245,505,o),
(295,546,o),
(352,546,cs),
(386,546,o),
(407,527,o),
(404,494,cs),
(399,450,o),
(354,412,o),
(298,378,cs),
(40,223,o),
(49,110,o),
(37,18,cs),
(35,1,l)
);
}
);
width = 634;
},
{
layerId = "7ECE30C0-9795-4277-8F7A-A75C7AD12C73";
shapes = (
{
closed = 1;
nodes = (
(524,-1,l),
(533,80,l),
(159,78,l),
(182,128,o),
(223,165,o),
(260,191,cs),
(406,291,o),
(532,346,o),
(551,495,cs),
(567,618,o),
(493,693,o),
(362,693,cs),
(250,693,o),
(164,636,o),
(115,526,c),
(183,486,l),
(210,564,o),
(276,615,o),
(358,615,cs),
(434,615,o),
(472,572,o),
(463,507,cs),
(451,409,o),
(351,354,o),
(258,292,cs),
(130,208,o),
(67,130,o),
(55,18,cs),
(52,-1,l)
);
}
);
width = 634;
},
{
layerId = "7040E9A1-72E8-429E-817E-85B6EE6706A0";
shapes = (
{
closed = 1;
nodes = (
(511,0,l),
(516,39,l),
(107,38,l),
(126,103,o),
(175,149,o),
(260,209,cs),
(396,306,o),
(522,363,o),
(539,500,cs),
(553,615,o),
(480,690,o),
(353,690,cs),
(256,690,o),
(182,642,o),
(134,547,c),
(167,529,l),
(206,606,o),
(271,653,o),
(355,653,cs),
(450,653,o),
(507,588,o),
(497,503,cs),
(483,389,o),
(369,334,o),
(262,259,cs),
(131,168,o),
(63,101,o),
(63,3,cs),
(63,0,l)
);
}
);
width = 634;
}
);
unicode = 50;
},
{
glyphname = three;
layers = (
{
layerId = "D37495DA-15D9-4303-B971-3AA975198D58";
shapes = (
{
closed = 1;
nodes = (
(436,-23,o),
(550,59,o),
(565,184,cs),
(577,275,o),
(533,351,o),
(462,375,c),
(525,401,o),
(561,450,o),
(569,509,cs),
(582,621,o),
(491,705,o),
(353,705,cs),
(267,705,o),
(162,670,o),
(118,628,c),
(186,497,l),
(225,531,o),
(271,553,o),
(323,553,cs),
(372,553,o),
(397,535,o),
(393,501,cs),
(387,462,o),
(360,436,o),
(325,436,cs),
(207,436,l),
(189,290,l),
(315,290,ls),
(371,290,o),
(397,268,o),
(392,223,cs),
(385,165,o),
(340,129,o),
(270,129,cs),
(214,129,o),
(157,151,o),
(120,197,c),
(19,86,l),
(65,22,o),
(166,-23,o),
(280,-23,cs)
);
}
);
width = 634;
},
{
layerId = "7ECE30C0-9795-4277-8F7A-A75C7AD12C73";
shapes = (
{
closed = 1;
nodes = (
(415,-13,o),
(529,67,o),
(544,184,cs),
(556,274,o),
(507,368,o),
(433,385,c),
(506,413,o),
(541,474,o),
(548,528,cs),
(563,633,o),
(471,700,o),
(351,700,cs),
(283,700,o),
(216,678,o),
(157,633,c),
(194,566,l),
(240,605,o),
(302,622,o),
(349,622,cs),
(411,622,o),
(466,591,o),
(459,528,cs),
(452,471,o),
(400,418,o),
(324,418,cs),
(213,418,l),
(203,338,l),
(318,338,ls),
(395,338,o),
(468,291,o),
(458,203,cs),
(447,114,o),
(363,65,o),
(275,65,cs),
(205,65,o),
(136,99,o),
(88,153,c),
(34,93,l),
(83,31,o),
(179,-13,o),
(279,-13,cs)
);
}
);
width = 634;
},
{
layerId = "7040E9A1-72E8-429E-817E-85B6EE6706A0";
shapes = (
{
closed = 1;
nodes = (
(415,-12,o),
(518,71,o),
(533,188,cs),
(547,295,o),
(479,374,o),
(366,377,c),
(452,379,o),
(525,465,o),
(534,542,cs),
(546,632,o),
(470,694,o),
(351,694,cs),
(297,694,o),
(226,674,o),
(177,642,c),
(192,608,l),
(237,642,o),
(299,658,o),
(355,658,cs),
(449,658,o),
(500,612,o),
(492,544,cs),
(481,461,o),
(389,397,o),
(318,397,cs),
(214,397,l),
(210,359,l),
(317,359,ls),
(409,359,o),
(504,301,o),
(491,188,cs),
(479,86,o),
(395,25,o),
(275,25,cs),
(191,25,o),
(125,51,o),
(74,110,c),
(47,83,l),
(100,30,o),
(160,-12,o),
(263,-12,cs)
);
}
);
width = 634;
}
);
unicode = 51;
},
{
glyphname = four;
layers = (
{
layerId = "D37495DA-15D9-4303-B971-3AA975198D58";
shapes = (
{
closed = 1;
nodes = (
(488,-3,l),
(506,157,l),
(464,119,l),
(571,119,l),
(590,275,l),
(485,275,l),
(519,237,l),
(544,451,l),
(370,451,l),
(345,237,l),
(387,275,l),
(212,275,l),
(232,240,l),
(467,685,l),
(291,685,l),
(42,237,l),
(28,119,l),
(366,119,l),
(332,157,l),
(314,-3,l)
);
}
);
width = 634;
},
{
layerId = "7ECE30C0-9795-4277-8F7A-A75C7AD12C73";
shapes = (
{
closed = 1;
nodes = (
(449,-3,l),
(469,167,l),
(426,129,l),
(550,129,l),
(560,209,l),
(437,209,l),
(471,171,l),
(503,437,l),
(416,437,l),
(385,171,l),
(427,209,l),
(127,209,l),
(147,174,l),
(429,687,l),
(334,687,l),
(61,193,l),
(54,129,l),
(415,129,l),
(383,167,l),
(363,-3,l)
);
}
);
width = 634;
},
{
layerId = "7040E9A1-72E8-429E-817E-85B6EE6706A0";
shapes = (
{
closed = 1;
nodes = (
(434,-2,l),
(453,156,l),
(434,139,l),
(543,139,l),
(548,177,l),
(439,177,l),
(454,160,l),
(486,418,l),
(446,418,l),
(414,160,l),
(433,177,l),
(95,177,l),
(103,161,l),
(391,685,l),
(350,685,l),
(72,179,l),
(66,139,l),
(428,139,l),
(413,156,l),
(394,-2,l)
);
}
);
width = 634;
}
);
unicode = 52;
},
{
glyphname = five;
layers = (
{
layerId = "D37495DA-15D9-4303-B971-3AA975198D58";
shapes = (
{
closed = 1;
nodes = (
(425,-23,o),
(547,81,o),
(565,227,cs),
(582,363,o),
(504,453,o),
(366,453,cs),
(353,453,o),
(303,453,o),
(276,445,c),
(299,412,l),
(320,564,l),
(278,528,l),
(562,528,l),
(581,685,l),
(163,685,l),
(109,298,l),
(181,313,o),
(229,319,o),
(269,319,cs),
(356,319,o),
(396,287,o),
(388,234,cs),
(380,174,o),
(336,129,o),
(270,129,cs),
(228,129,o),
(171,144,o),
(130,184,c),
(30,67,l),
(79,7,o),
(180,-23,o),
(269,-23,cs)
);
}
);
width = 634;
},
{
layerId = "7ECE30C0-9795-4277-8F7A-A75C7AD12C73";
shapes = (
{
closed = 1;
nodes = (
(406,-17,o),
(528,86,o),
(545,224,cs),
(561,367,o),
(471,458,o),
(310,458,cs),
(266,458,o),
(215,454,o),
(193,447,c),
(226,416,l),
(256,645,l),
(217,606,l),
(535,606,l),
(546,685,l),
(178,685,l),
(135,356,l),
(163,368,o),
(220,376,o),
(283,376,cs),
(415,376,o),
(469,334,o),
(457,240,cs),
(444,134,o),
(368,61,o),
(269,61,cs),
(207,61,o),
(160,81,o),
(115,126,c),
(62,64,l),
(106,15,o),
(182,-17,o),
(259,-17,cs)
);
}
);
width = 634;
},
{
layerId = "7040E9A1-72E8-429E-817E-85B6EE6706A0";
shapes = (
{
closed = 1;
nodes = (
(403,-6,o),
(513,91,o),
(528,223,cs),
(544,357,o),
(455,444,o),
(301,444,cs),
(266,444,o),
(210,438,o),
(166,429,c),
(188,415,l),
(226,664,l),
(207,648,l),
(533,648,l),
(538,685,l),
(190,685,l),
(145,386,l),
(186,400,o),
(224,407,o),
(296,407,cs),
(440,407,o),
(502,335,o),
(488,223,cs),
(475,113,o),
(381,32,o),
(265,32,cs),
(203,32,o),
(146,55,o),
(106,92,c),
(78,61,l),
(114,26,o),
(181,-6,o),
(262,-6,cs)
);
}
);
width = 634;
}
);
unicode = 53;
},
{
glyphname = six;
layers = (
{
layerId = "D37495DA-15D9-4303-B971-3AA975198D58";
shapes = (
{
closed = 1;
nodes = (
(250,138,o),
(220,170,o),
(226,223,cs),
(234,285,o),
(281,331,o),
(339,331,cs),
(390,331,o),
(421,294,o),
(413,240,cs),
(405,179,o),
(361,138,o),
(303,138,cs)
);
},
{
closed = 1;
nodes = (
(449,-16,o),
(564,82,o),
(583,229,cs),
(601,374,o),
(508,480,o),
(369,480,cs),
(218,480,o),
(152,359,o),
(150,251,c),
(192,318,l),
(250,493,o),
(309,553,o),
(406,553,cs),
(440,553,o),
(472,546,o),
(498,530,c),
(577,661,l),
(530,688,o),
(465,701,o),
(420,701,cs),
(220,701,o),
(87,553,o),
(56,292,cs),
(33,103,o),
(127,-16,o),
(297,-16,cs)
);
}
);
width = 634;
},
{
layerId = "7ECE30C0-9795-4277-8F7A-A75C7AD12C73";
shapes = (
{
closed = 1;
nodes = (
(210,63,o),
(144,133,o),
(155,219,cs),
(167,311,o),
(256,388,o),
(348,388,cs),
(434,388,o),
(497,318,o),
(486,229,cs),
(474,136,o),
(391,63,o),
(299,63,cs)
);
},
{
closed = 1;
nodes = (
(435,-12,o),
(553,89,o),
(569,222,cs),
(586,356,o),
(492,461,o),
(359,461,cs),
(240,461,o),
(150,375,o),
(113,264,c),
(137,286,l),
(188,520,o),
(281,625,o),
(432,625,cs),
(472,625,o),
(510,617,o),
(541,600,c),
(579,665,l),
(537,687,o),
(485,697,o),
(440,697,cs),
(232,697,o),
(106,556,o),
(73,281,cs),
(51,106,o),
(142,-12,o),
(294,-12,cs)
);
}
);
width = 634;
},
{
layerId = "7040E9A1-72E8-429E-817E-85B6EE6706A0";
shapes = (
{
closed = 1;
nodes = (
(191,27,o),
(108,115,o),
(121,217,cs),
(135,323,o),
(244,416,o),
(352,416,cs),
(455,416,o),
(533,329,o),
(521,224,cs),
(508,116,o),
(406,27,o),
(297,27,cs)
);
},
{
closed = 1;
nodes = (
(428,-10,o),
(548,92,o),
(563,219,cs),
(579,347,o),
(484,452,o),
(354,452,cs),
(251,452,o),
(149,382,o),
(96,270,c),
(110,270,l),
(158,533,o),
(267,660,o),
(445,660,cs),
(488,660,o),
(529,650,o),
(562,633,c),
(580,667,l),
(540,687,o),
(495,695,o),
(450,695,cs),
(238,695,o),
(115,557,o),
(81,275,cs),
(60,107,o),
(149,-10,o),
(293,-10,cs)
);
}
);
width = 634;
}
);
unicode = 54;
},
{
glyphname = seven;
layers = (
{
layerId = "D37495DA-15D9-4303-B971-3AA975198D58";
shapes = (
{
closed = 1;
nodes = (
(293,-5,l),
(597,582,l),
(607,675,l),
(127,675,l),
(108,520,l),
(372,520,l),
(102,-5,l)
);
}
);
width = 634;
},
{
layerId = "7ECE30C0-9795-4277-8F7A-A75C7AD12C73";
shapes = (
{
closed = 1;
nodes = (
(250,-1,l),
(593,649,l),
(596,675,l),
(139,675,l),
(128,595,l),
(468,595,l),
(152,-1,l)
);
}
);
width = 634;
},
{
layerId = "7040E9A1-72E8-429E-817E-85B6EE6706A0";
shapes = (
{
closed = 1;
nodes = (
(225,1,l),
(577,660,l),
(577,675,l),
(152,675,l),
(147,638,l),
(519,636,l),
(181,1,l)
);
}
);
width = 634;
}
);
unicode = 55;
},
{
glyphname = eight;
layers = (
{
layerId = "D37495DA-15D9-4303-B971-3AA975198D58";
shapes = (
{
closed = 1;
nodes = (
(434,-28,o),
(555,61,o),
(568,174,cs),
(575,239,o),
(556,339,o),
(451,383,c),
(406,334,l),
(508,369,o),
(560,416,o),
(573,488,cs),
(594,607,o),
(501,689,o),
(361,689,cs),
(226,689,o),
(133,613,o),
(121,512,cs),
(112,433,o),
(151,378,o),
(199,357,c),
(236,396,l),
(123,353,o),
(56,287,o),
(45,198,cs),
(29,70,o),
(133,-28,o),
(289,-28,cs)
);
},
{
closed = 1;
nodes = (
(252,123,o),
(216,148,o),
(221,191,cs),
(226,236,o),
(263,293,o),
(360,348,c),
(236,328,l),
(340,303,o),
(400,254,o),
(393,201,cs),
(387,156,o),
(345,123,o),
(295,123,cs)
);
},
{
closed = 1;
nodes = (
(434,398,l),
(347,431,ls),
(314,444,o),
(289,463,o),
(292,486,cs),
(296,516,o),
(323,537,o),
(356,537,cs),
(386,537,o),
(403,522,o),
(400,498,cs),
(396,470,o),
(376,438,o),
(303,387,c)
);
}
);
width = 634;
},
{
layerId = "7ECE30C0-9795-4277-8F7A-A75C7AD12C73";
shapes = (
{
closed = 1;
nodes = (
(429,-17,o),
(537,65,o),
(552,187,cs),
(563,279,o),
(515,353,o),
(428,388,c),
(429,360,l),
(499,399,o),
(544,458,o),
(552,518,cs),
(563,614,o),
(480,693,o),
(364,693,cs),
(252,693,o),
(156,620,o),
(146,523,cs),
(138,457,o),
(168,404,o),
(228,372,c),
(230,406,l),
(127,342,o),
(75,275,o),
(66,197,cs),
(50,71,o),
(142,-17,o),
(288,-17,cs)
);
},
{
closed = 1;
nodes = (
(198,61,o),
(145,110,o),
(154,188,cs),
(163,256,o),
(215,319,o),
(304,372,c),
(235,364,l),
(412,328,o),
(475,283,o),
(464,198,cs),
(454,115,o),
(387,61,o),
(290,61,cs)
);
},
{
closed = 1;
nodes = (
(418,394,l),
(298,430,ls),
(246,446,o),
(227,471,o),
(231,509,cs),
(238,569,o),
(296,615,o),
(365,615,cs),
(429,615,o),
(470,575,o),
(464,518,cs),
(459,475,o),
(427,437,o),
(347,378,c)
);
}
);
width = 634;
},
{
layerId = "7040E9A1-72E8-429E-817E-85B6EE6706A0";
shapes = (
{
closed = 1;
nodes = (
(421,-16,o),
(525,65,o),
(539,181,cs),
(549,274,o),
(500,342,o),
(390,378,c),
(391,370,l),
(465,408,o),
(531,469,o),
(540,536,cs),
(550,624,o),
(475,691,o),
(366,691,cs),
(257,691,o),
(173,625,o),
(161,529,cs),
(153,462,o),
(185,414,o),
(254,384,c),
(264,398,l),
(132,327,o),
(85,261,o),
(76,183,cs),
(61,62,o),
(140,-16,o),
(279,-16,cs)
);
},
{
closed = 1;
nodes = (
(171,20,o),
(107,84,o),
(117,171,cs),
(128,256,o),
(209,341,o),
(302,381,c),
(270,384,l),
(468,321,o),
(507,276,o),
(498,194,cs),
(485,86,o),
(400,20,o),
(286,20,cs)
);
},
{
closed = 1;
nodes = (
(383,381,l),
(287,412,ls),
(233,429,o),
(194,471,o),
(201,529,cs),
(211,601,o),
(283,655,o),
(367,655,cs),
(449,655,o),
(508,602,o),
(501,540,cs),
(493,474,o),
(440,430,o),
(353,380,c)
);
}
);
width = 634;
}
);
unicode = 56;
},
{
glyphname = nine;
layers = (
{
layerId = "D37495DA-15D9-4303-B971-3AA975198D58";
shapes = (
{
closed = 1;
nodes = (
(409,547,o),
(439,515,o),
(433,462,cs),
(425,400,o),
(378,354,o),
(320,354,cs),
(269,354,o),
(238,391,o),
(246,445,cs),
(254,506,o),
(298,547,o),
(356,547,cs)
);
},
{
closed = 1;
nodes = (
(210,701,o),
(95,603,o),
(76,456,cs),
(58,311,o),
(151,205,o),
(290,205,cs),
(441,205,o),
(507,326,o),
(509,434,c),
(467,367,l),
(409,192,o),
(350,132,o),
(253,132,cs),
(219,132,o),
(187,139,o),
(161,155,c),
(82,24,l),
(129,-3,o),
(194,-16,o),
(239,-16,cs),
(439,-16,o),
(572,132,o),
(603,393,cs),
(626,582,o),
(532,701,o),
(362,701,cs)
);
}
);
width = 634;
},
{
layerId = "7ECE30C0-9795-4277-8F7A-A75C7AD12C73";
shapes = (
{
closed = 1;
nodes = (
(451,622,o),
(517,552,o),
(506,466,cs),
(494,374,o),
(405,297,o),
(313,297,cs),
(227,297,o),
(164,367,o),
(175,456,cs),
(187,549,o),
(270,622,o),
(362,622,cs)
);
},
{
closed = 1;
nodes = (
(226,697,o),
(108,596,o),
(92,463,cs),
(75,329,o),
(169,224,o),
(302,224,cs),
(421,224,o),
(511,310,o),
(548,421,c),
(524,399,l),
(473,165,o),
(380,60,o),
(229,60,cs),
(189,60,o),
(151,68,o),
(120,85,c),
(82,20,l),
(124,-2,o),
(176,-12,o),
(221,-12,cs),
(429,-12,o),
(555,129,o),
(588,404,cs),
(610,579,o),
(519,697,o),
(367,697,cs)
);
}
);
width = 634;
},
{
layerId = "7040E9A1-72E8-429E-817E-85B6EE6706A0";
shapes = (
{
closed = 1;
nodes = (
(473,658,o),
(556,570,o),
(543,468,cs),
(529,362,o),
(420,269,o),
(312,269,cs),
(209,269,o),
(131,356,o),
(143,461,cs),
(156,569,o),
(258,658,o),
(367,658,cs)
);
},
{
closed = 1;
nodes = (
(236,695,o),
(116,593,o),
(101,466,cs),
(85,338,o),
(180,233,o),
(310,233,cs),
(413,233,o),
(515,303,o),
(568,415,c),
(554,415,l),
(506,152,o),
(397,25,o),
(219,25,cs),
(176,25,o),
(135,35,o),
(102,52,c),
(84,18,l),
(124,-2,o),
(169,-10,o),
(214,-10,cs),
(426,-10,o),
(549,128,o),
(583,410,cs),
(604,578,o),
(515,695,o),
(371,695,cs)
);
}
);
width = 634;
}
);
unicode = 57;
},
{
glyphname = colon;
layers = (
{
layerId = "D37495DA-15D9-4303-B971-3AA975198D58";
shapes = (
{
closed = 1;
nodes = (
(116,-24,o),
(139,-16,o),
(159,2,cs),
(178,19,o),
(190,39,o),
(193,62,cs),
(196,91,o),
(189,115,o),
(171,135,cs),
(153,155,o),
(130,165,o),
(101,165,cs),
(77,165,o),
(56,156,o),
(37,139,cs),
(18,122,o),
(6,101,o),
(3,78,cs),
(0,51,o),
(7,27,o),
(24,7,cs),
(41,-14,o),
(64,-24,o),
(91,-24,cs)
);
},
{
closed = 1;
nodes = (
(164,358,o),
(187,366,o),
(207,384,cs),
(226,401,o),
(238,421,o),
(241,444,cs),
(244,473,o),
(237,497,o),
(219,517,cs),
(201,537,o),
(178,547,o),
(149,547,cs),
(125,547,o),
(104,538,o),
(85,521,cs),
(66,504,o),
(54,483,o),
(51,460,cs),
(48,433,o),
(55,409,o),
(72,389,cs),
(89,368,o),
(112,358,o),
(139,358,cs)
);
}
);
width = 240;
},
{
layerId = "7ECE30C0-9795-4277-8F7A-A75C7AD12C73";
shapes = (
{
closed = 1;
nodes = (
(103,-18,o),
(115,-13,o),
(126,-3,cs),
(137,6,o),
(144,17,o),
(145,30,cs),
(147,45,o),
(143,58,o),
(133,70,cs),
(123,81,o),
(111,87,o),
(96,87,cs),
(83,87,o),
(71,82,o),
(60,72,cs),
(49,62,o),
(42,51,o),
(41,38,cs),
(40,23,o),
(44,10,o),
(54,-1,cs),
(63,-12,o),
(75,-18,o),
(90,-18,cs)
);
},
{
closed = 1;
nodes = (
(150,364,o),
(162,369,o),
(173,379,cs),
(184,388,o),
(191,399,o),
(192,412,cs),
(194,427,o),
(190,440,o),
(180,452,cs),
(170,463,o),
(158,469,o),
(143,469,cs),
(130,469,o),
(118,464,o),
(107,454,cs),
(96,444,o),
(89,433,o),
(88,420,cs),
(87,405,o),
(91,392,o),
(101,381,cs),
(110,370,o),
(122,364,o),
(137,364,cs)
);
}
);
width = 240;
},
{
layerId = "7040E9A1-72E8-429E-817E-85B6EE6706A0";
shapes = (
{
closed = 1;
nodes = (
(99,-11,o),
(108,-8,o),
(115,-2,cs),
(122,4,o),
(126,12,o),
(127,22,cs),
(128,33,o),
(125,41,o),
(119,48,cs),
(113,55,o),
(105,58,o),
(94,58,cs),
(85,58,o),
(77,55,o),
(70,49,cs),
(63,43,o),
(59,35,o),
(58,26,cs),
(57,15,o),
(59,6,o),
(65,-1,cs),
(70,-8,o),
(78,-11,o),
(89,-11,cs)
);
},
{
closed = 1;
nodes = (
(149,391,o),
(158,394,o),
(165,400,cs),
(172,406,o),
(176,414,o),
(177,424,cs),
(178,435,o),
(175,443,o),
(169,450,cs),
(163,457,o),
(155,460,o),
(144,460,cs),
(135,460,o),
(127,457,o),
(120,451,cs),
(113,445,o),
(109,437,o),
(108,428,cs),
(107,417,o),
(109,408,o),
(115,401,cs),
(120,394,o),
(128,391,o),
(139,391,cs)
);
}
);
width = 240;
}
);
unicode = 58;
},
{
glyphname = semicolon;
layers = (
{
layerId = "D37495DA-15D9-4303-B971-3AA975198D58";
shapes = (
{
closed = 1;
nodes = (
(176,362,o),
(199,370,o),
(219,388,cs),
(238,405,o),
(250,425,o),
(253,448,cs),
(256,477,o),
(249,501,o),
(231,521,cs),
(213,541,o),
(190,551,o),
(161,551,cs),
(137,551,o),
(116,542,o),
(97,525,cs),
(78,508,o),
(66,487,o),
(63,464,cs),
(60,437,o),
(67,413,o),
(84,393,cs),
(101,372,o),
(124,362,o),
(151,362,cs)
);
},
{
closed = 1;
nodes = (
(40,-207,l),
(73,-176,o),
(111,-130,o),
(139,-75,cs),
(166,-23,o),
(179,29,o),
(183,56,cs),
(190,112,o),
(154,149,o),
(109,149,cs),
(88,149,o),
(69,141,o),
(51,126,cs),
(33,110,o),
(23,91,o),
(20,69,cs),
(19,59,o),
(19,47,o),
(20,33,cs),
(21,0,o),
(21,-22,o),
(14,-49,cs),
(6,-78,o),
(-12,-115,o),
(-36,-142,c)
);
}
);
width = 240;
},
{
layerId = "7ECE30C0-9795-4277-8F7A-A75C7AD12C73";
shapes = (
{
closed = 1;
nodes = (
(159,368,o),
(171,373,o),
(182,383,cs),
(193,392,o),
(200,403,o),
(201,416,cs),
(203,431,o),
(199,444,o),
(189,456,cs),
(179,467,o),
(167,473,o),
(152,473,cs),
(139,473,o),
(127,468,o),
(116,458,cs),
(105,448,o),
(98,437,o),
(97,424,cs),
(96,409,o),
(100,396,o),
(110,385,cs),
(119,374,o),
(131,368,o),
(146,368,cs)
);
},
{
closed = 1;
nodes = (
(45,-158,l),
(78,-127,o),
(110,-85,o),
(123,-56,cs),
(136,-29,o),
(149,12,o),
(152,39,cs),
(155,67,o),
(141,85,o),
(116,85,cs),
(104,85,o),
(94,81,o),
(85,73,cs),
(76,64,o),
(70,53,o),
(69,40,c),
(68,36,o),
(68,29,o),
(68,18,c),
(67,-2,o),
(66,-27,o),
(61,-40,c),
(54,-64,o),
(28,-102,o),
(7,-126,c)
);
}
);
width = 240;
},
{
layerId = "7040E9A1-72E8-429E-817E-85B6EE6706A0";
shapes = (
{
closed = 1;
nodes = (
(158,391,o),
(167,394,o),
(174,400,cs),
(181,406,o),
(185,414,o),
(186,424,cs),
(187,435,o),
(184,443,o),
(178,450,cs),
(172,457,o),
(164,460,o),
(153,460,cs),
(144,460,o),
(136,457,o),
(129,451,cs),
(122,445,o),
(118,437,o),
(117,428,cs),
(116,417,o),
(118,408,o),
(124,401,cs),
(129,394,o),
(137,391,o),
(148,391,cs)
);
},
{
closed = 1;
nodes = (
(55,-127,l),
(76,-103,o),
(94,-74,o),
(105,-50,cs),
(116,-25,o),
(123,4,o),
(127,36,c),
(130,52,o),
(122,65,o),
(107,65,cs),
(100,65,o),
(94,63,o),
(89,58,cs),
(84,53,o),
(81,46,o),
(80,37,c),
(80,35,o),
(80,33,o),
(80,31,c),
(77,12,o),
(75,-19,o),
(67,-38,cs),
(60,-57,o),
(42,-89,o),
(26,-109,c)
);
}
);
width = 240;
}
);
unicode = 59;
},
{
glyphname = less;
layers = (
{
layerId = "D37495DA-15D9-4303-B971-3AA975198D58";
shapes = (
{
closed = 1;
nodes = (
(546,425,l),
(239,306,l),
(517,193,l),
(496,16,l),
(18,230,l),
(36,382,l),
(567,606,l)
);
}
);
width = 546;
},
{
layerId = "7ECE30C0-9795-4277-8F7A-A75C7AD12C73";
shapes = (
{
closed = 1;
nodes = (
(507,457,l),
(111,293,l),
(468,133,l),
(457,50,l),
(38,247,l),
(49,344,l),
(518,550,l)
);
}
);
width = 520;
},
{
layerId = "7040E9A1-72E8-429E-817E-85B6EE6706A0";
shapes = (
{
closed = 1;
nodes = (
(480,478,l),
(50,291,l),
(435,110,l),
(430,73,l),
(24,265,l),
(31,317,l),
(485,521,l)
);
}
);
width = 480;
}
);
unicode = 60;
},
{
glyphname = equal;
layers = (
{
layerId = "D37495DA-15D9-4303-B971-3AA975198D58";
shapes = (
{
closed = 1;
nodes = (
(46,249,l),
(28,101,l),
(482,101,l),
(500,249,l)
);
},
{
closed = 1;
nodes = (
(71,456,l),
(53,308,l),
(507,308,l),
(525,456,l)
);
}
);
width = 546;
},
{
layerId = "7ECE30C0-9795-4277-8F7A-A75C7AD12C73";
shapes = (
{
closed = 1;
nodes = (
(75,239,l),
(66,163,l),
(441,163,l),
(450,239,l)
);
},
{
closed = 1;
nodes = (
(95,426,l),
(86,350,l),
(461,350,l),
(470,426,l)
);
}
);
width = 520;
},
{
layerId = "7040E9A1-72E8-429E-817E-85B6EE6706A0";
shapes = (
{
closed = 1;
nodes = (
(66,223,l),
(61,187,l),
(405,187,l),
(410,223,l)
);
},
{
closed = 1;
nodes = (
(86,390,l),
(81,354,l),
(425,354,l),
(430,390,l)
);
}
);
width = 480;
}
);
unicode = 61;
},
{
glyphname = greater;
layers = (
{
layerId = "D37495DA-15D9-4303-B971-3AA975198D58";
shapes = (
{
closed = 1;
nodes = (
(15,197,l),
(322,316,l),
(44,429,l),
(65,606,l),
(543,392,l),
(525,240,l),
(-6,16,l)
);
}
);
width = 546;
},
{
layerId = "7ECE30C0-9795-4277-8F7A-A75C7AD12C73";
shapes = (
{
closed = 1;
nodes = (
(26,143,l),
(422,307,l),
(65,467,l),
(76,550,l),
(495,353,l),
(484,256,l),
(15,50,l)
);
}
);
width = 520;
},
{
layerId = "7040E9A1-72E8-429E-817E-85B6EE6706A0";
shapes = (
{
closed = 1;
nodes = (
(12,116,l),
(442,303,l),
(57,484,l),
(62,521,l),
(468,329,l),
(461,277,l),
(7,73,l)
);
}
);
width = 480;
}
);
unicode = 62;
},
{
glyphname = question;
leftMetricsKey = "=24";
rightMetricsKey = "=49";
layers = (
{
layerId = "D37495DA-15D9-4303-B971-3AA975198D58";
shapes = (
{
closed = 1;
nodes = (
(344,318,l),
(322,322,o),
(275,354,o),
(275,379,cs),
(275,395,o),
(288,409,o),
(330,439,cs),
(412,498,o),
(447,547,o),
(447,611,cs),
(447,708,o),
(322,740,o),
(245,740,cs),
(190,740,o),
(116,725,o),
(78,682,c),
(146,573,l),
(162,589,o),
(187,604,o),
(209,604,cs),
(229,604,o),
(246,598,o),
(246,575,cs),
(246,550,o),
(232,529,o),
(197,500,cs),
(143,456,o),
(120,417,o),
(120,368,cs),
(120,276,o),
(212,229,o),
(292,220,c)
);
},
{
closed = 1;
nodes = (
(251,-16,o),
(295,26,o),
(295,78,cs),
(295,126,o),
(255,160,o),
(208,160,cs),
(156,160,o),
(114,119,o),
(114,66,cs),
(114,19,o),
(152,-16,o),
(199,-16,cs)
);
}
);
width = 453;
},
{
layerId = "60415538-4DB8-4A23-A517-5E5B10228328";
associatedMasterId = "7ECE30C0-9795-4277-8F7A-A75C7AD12C73";
name = 1;
shapes = (
{
closed = 1;
nodes = (
(328,259,l),
(288,266,o),
(262,294,o),
(262,329,cs),
(262,372,o),
(302,413,o),
(338,455,cs),
(379,501,o),
(415,548,o),
(415,604,cs),
(415,682,o),
(344,738,o),
(248,738,cs),
(182,738,o),
(99,698,o),
(72,634,c),
(130,590,l),
(151,632,o),
(201,660,o),
(247,660,cs),
(290,660,o),
(325,639,o),
(325,593,cs),
(325,546,o),
(290,512,o),
(255,470,cs),
(221,430,o),
(188,384,o),
(188,326,cs),
(188,257,o),
(235,208,o),
(305,199,c)
);
},
{
closed = 1;
nodes = (
(280,-10,o),
(303,13,o),
(303,43,cs),
(303,72,o),
(280,94,o),
(250,94,cs),
(220,94,o),
(198,72,o),
(198,42,cs),
(198,12,o),
(220,-10,o),
(250,-10,cs)
);
}
);
width = 421;
},
{
layerId = "7ECE30C0-9795-4277-8F7A-A75C7AD12C73";
shapes = (
{
closed = 1;
nodes = (
(277,252,l),
(246,264,o),
(207,301,o),
(207,336,cs),
(207,359,o),
(227,382,o),
(286,427,cs),
(378,497,o),
(414,548,o),
(414,608,cs),
(414,694,o),
(322,737,o),
(248,737,cs),
(184,737,o),
(115,710,o),
(75,659,c),
(119,601,l),
(146,634,o),
(185,660,o),
(229,660,cs),
(267,660,o),
(308,637,o),
(308,594,cs),
(308,552,o),
(284,517,o),
(225,473,cs),
(151,418,o),
(123,377,o),
(123,328,cs),
(123,261,o),
(185,214,o),
(244,198,c)
);
},
{
closed = 1;
nodes = (
(206,-11,o),
(233,15,o),
(233,49,cs),
(233,81,o),
(208,102,o),
(178,102,cs),
(143,102,o),
(118,74,o),
(118,41,cs),
(118,10,o),
(141,-11,o),
(172,-11,cs)
);
}
);
width = 420;
},
{
layerId = "7040E9A1-72E8-429E-817E-85B6EE6706A0";
shapes = (
{
closed = 1;
nodes = (
(197,209,l),
(163,224,o),
(128,264,o),
(128,304,cs),
(128,346,o),
(165,378,o),
(210,411,cs),
(276,460,o),
(358,513,o),
(358,609,cs),
(358,686,o),
(283,736,o),
(211,736,cs),
(145,736,o),
(79,697,o),
(41,644,c),
(69,621,l),
(101,666,o),
(151,699,o),
(208,699,cs),
(263,699,o),
(319,666,o),
(319,607,cs),
(319,542,o),
(265,499,o),
(209,456,cs),
(151,412,o),
(92,368,o),
(92,302,cs),
(92,251,o),
(135,205,o),
(178,184,c)
);
},
{
closed = 1;
nodes = (
(141,-7,o),
(159,11,o),
(159,30,cs),
(159,51,o),
(144,63,o),
(123,63,cs),
(102,63,o),
(88,45,o),
(88,24,cs),
(88,6,o),
(103,-7,o),
(121,-7,cs)
);
}
);
width = 364;
}
);
rightKerningGroup = P;
unicode = 63;
},
{
glyphname = at;
layers = (
{
layerId = "D37495DA-15D9-4303-B971-3AA975198D58";
shapes = (
{
closed = 1;
nodes = (
(434,-84,o),
(484,-77,o),
(539,-64,cs),
(594,-50,o),
(640,-32,o),
(677,-9,c),
(638,107,l),
(570,67,o),
(485,42,o),
(401,42,cs),
(302,42,o),
(228,81,o),
(194,148,cs),
(177,181,o),
(171,220,o),
(176,264,cs),
(189,368,o),
(241,448,o),
(321,491,cs),
(360,512,o),
(405,523,o),
(455,523,cs),
(538,523,o),
(600,487,o),
(628,426,c),
(641,395,o),
(645,360,o),
(640,319,cs),
(632,256,o),
(610,217,o),
(581,217,cs),
(560,217,o),
(553,229,o),
(556,260,cs),
(575,431,l),
(550,447,o),
(524,459,o),
(499,467,c),
(473,474,o),
(446,478,o),
(417,478,cs),
(352,478,o),
(292,445,o),
(255,390,cs),
(236,363,o),
(225,332,o),
(221,297,cs),
(212,225,o),
(237,162,o),
(286,127,cs),
(311,110,o),
(339,101,o),
(372,101,cs),
(424,101,o),
(464,128,o),
(489,173,c),
(490,150,o),
(499,130,o),
(517,112,cs),
(534,94,o),
(556,85,o),
(583,85,cs),
(655,85,o),
(715,126,o),
(751,194,cs),
(769,228,o),
(781,267,o),
(787,311,cs),
(803,436,o),
(746,544,o),
(638,604,cs),
(584,634,o),
(522,649,o),
(453,649,cs),
(308,649,o),
(183,584,o),
(107,473,cs),
(68,418,o),
(45,354,o),
(36,283,cs),
(19,140,o),
(75,25,o),
(188,-38,cs),
(244,-69,o),
(310,-84,o),
(387,-84,cs)
);
},
{
closed = 1;
nodes = (
(366,236,o),
(358,257,o),
(362,289,cs),
(365,310,o),
(371,327,o),
(380,339,cs),
(389,350,o),
(401,356,o),
(415,356,cs),
(427,356,o),
(433,353,o),
(440,344,c),
(429,275,l),
(422,254,o),
(405,236,o),
(386,236,cs)
);
}
);
width = 809;
},
{
layerId = "7ECE30C0-9795-4277-8F7A-A75C7AD12C73";
shapes = (
{
closed = 1;
nodes = (
(421,-68,o),
(465,-63,o),
(508,-53,cs),
(551,-42,o),
(591,-28,o),
(627,-10,c),
(604,60,l),
(551,28,o),
(464,6,o),
(383,6,cs),
(266,6,o),
(183,51,o),
(147,132,cs),
(128,172,o),
(122,220,o),
(129,275,cs),
(142,388,o),
(204,480,o),
(296,529,cs),
(341,553,o),
(392,565,o),
(447,565,cs),
(548,565,o),
(625,521,o),
(661,445,c),
(678,406,o),
(684,362,o),
(679,313,cs),
(670,228,o),
(626,170,o),
(575,170,cs),
(547,170,o),
(530,189,o),
(529,228,c),
(556,461,l),
(540,466,o),
(519,471,o),
(493,476,c),
(466,480,o),
(445,482,o),
(428,482,cs),
(355,482,o),
(295,447,o),
(260,389,cs),
(243,360,o),
(232,327,o),
(227,291,cs),
(219,226,o),
(244,168,o),
(288,137,c),
(309,121,o),
(333,113,o),
(358,113,cs),
(410,113,o),
(462,140,o),
(477,176,c),
(478,155,o),
(490,137,o),
(511,122,cs),
(532,106,o),
(558,98,o),
(587,98,cs),
(644,98,o),
(696,135,o),
(729,198,cs),
(745,229,o),
(755,265,o),
(760,305,cs),
(776,433,o),
(724,540,o),
(624,598,cs),
(573,627,o),
(514,641,o),
(446,641,cs),
(309,641,o),
(189,578,o),
(116,470,cs),
(79,416,o),
(57,354,o),
(48,285,cs),
(31,145,o),
(82,35,o),
(187,-24,cs),
(240,-53,o),
(303,-68,o),
(377,-68,cs)
);
},
{
closed = 1;
nodes = (
(323,190,o),
(298,232,o),
(305,291,cs),
(309,326,o),
(322,354,o),
(344,375,cs),
(365,396,o),
(391,407,o),
(422,407,cs),
(441,407,o),
(464,404,o),
(476,400,c),
(457,258,l),
(449,218,o),
(407,188,o),
(370,189,cs)
);
}
);
width = 793;
},
{
layerId = "7040E9A1-72E8-429E-817E-85B6EE6706A0";
shapes = (
{
closed = 1;
nodes = (
(427,-69,o),
(462,-65,o),
(497,-58,c),
(531,-50,o),
(566,-38,o),
(603,-22,c),
(593,7,l),
(544,-20,o),
(459,-37,o),
(383,-37,cs),
(254,-37,o),
(156,17,o),
(113,112,cs),
(91,159,o),
(84,214,o),
(91,276,cs),
(106,399,o),
(175,500,o),
(279,555,cs),
(330,582,o),
(387,596,o),
(449,596,cs),
(565,596,o),
(656,544,o),
(697,457,cs),
(718,413,o),
(724,363,o),
(717,307,cs),
(704,206,o),
(651,138,o),
(587,138,cs),
(542,138,o),
(509,175,o),
(516,216,c),
(544,450,l),
(528,457,o),
(510,462,o),
(489,466,cs),
(468,469,o),
(449,471,o),
(431,471,cs),
(362,471,o),
(301,437,o),
(265,382,cs),
(246,354,o),
(235,323,o),
(231,289,cs),
(224,226,o),
(243,173,o),
(283,145,cs),
(303,130,o),
(326,123,o),
(352,123,cs),
(405,123,o),
(462,155,o),
(489,198,c),
(485,173,o),
(492,151,o),
(510,133,cs),
(528,115,o),
(553,106,o),
(585,106,cs),
(641,106,o),
(688,138,o),
(719,196,cs),
(734,225,o),
(744,259,o),
(749,299,cs),
(765,427,o),
(716,532,o),
(620,588,cs),
(571,616,o),
(514,630,o),
(448,630,cs),
(312,630,o),
(193,567,o),
(121,461,cs),
(84,408,o),
(62,348,o),
(54,281,cs),
(37,144,o),
(89,34,o),
(197,-25,cs),
(251,-54,o),
(316,-69,o),
(391,-69,cs)
);
},
{
closed = 1;
nodes = (
(295,158,o),
(262,209,o),
(271,285,cs),
(276,330,o),
(294,366,o),
(324,394,cs),
(353,422,o),
(390,436,o),
(433,436,cs),
(453,436,o),
(480,434,o),
(505,429,c),
(479,232,l),
(450,185,o),
(406,158,o),
(359,158,cs)
);
}
);
width = 790;
}
);
leftKerningGroup = a2;
rightKerningGroup = at;
unicode = 64;
},
{
glyphname = A;
layers = (
{
anchors = (
{
name = m.uni0324_3;
position = "{317, 0}";
},
{
name = t.uni0308_1_3;
position = "{401, 694}";
},
{
name = m.uni0328_2;
position = "{657, 0}";
}
);
layerId = "D37495DA-15D9-4303-B971-3AA975198D58";
shapes = (
{
closed = 1;
nodes = (
(360,684,l),
(-25,0,l),
(158,0,l),
(293,257,l),
(178,146,l),
(488,146,l),
(402,257,l),
(480,0,l),
(656,0,l),
(446,684,l)
);
},
{
closed = 1;
nodes = (
(254,288,l),
(302,268,l),
(397,470,l),
(373,474,l),
(348,470,l),
(398,272,l),
(445,288,l)
);
}
);
width = 693;
},
{
anchors = (
{
name = m.uni0324_3;
position = "{319, 2}";
},
{
name = t.uni0308_1_3;
position = "{405, 700}";
},
{
name = m.uni0328_2;
position = "{668, -2}";
}
);
layerId = "7ECE30C0-9795-4277-8F7A-A75C7AD12C73";
shapes = (
{
closed = 1;
nodes = (
(358,684,l),
(-20,0,l),
(71,0,l),
(206,253,l),
(149,210,l),
(482,210,l),
(438,253,l),
(514,0,l),
(601,0,l),
(391,684,l)
);
},
{
closed = 1;
nodes = (
(190,284,l),
(213,260,l),
(342,493,l),
(357,535,l),
(363,493,l),
(433,260,l),
(461,284,l)
);
}
);
width = 643;
},
{
anchors = (
{
name = m.uni0324_3;
position = "{319, 2}";
},
{
name = t.uni0308_1_3;
position = "{405, 700}";
},
{
name = m.uni0328_2;
position = "{668, -2}";
}
);
layerId = "7040E9A1-72E8-429E-817E-85B6EE6706A0";
shapes = (
{
closed = 1;
nodes = (
(368,684,l),
(-12,0,l),
(29,0,l),
(164,251,l),
(141,236,l),
(494,236,l),
(475,251,l),
(550,0,l),
(591,0,l),
(377,684,l)
);
},
{
closed = 1;
nodes = (
(160,272,l),
(168,257,l),
(345,570,l),
(365,616,l),
(373,572,l),
(473,257,l),
(485,272,l)
);
}
);
width = 641;
}
);
leftKerningGroup = A2;
rightKerningGroup = A;
unicode = 65;
},
{
glyphname = B;
layers = (
{
layerId = "D37495DA-15D9-4303-B971-3AA975198D58";
shapes = (
{
closed = 1;
nodes = (
(329,-12,o),
(289,-14,o),
(241,-13,cs),
(193,-12,o),
(143,-8,o),
(91,-1,cs),
(37,6,l),
(104,552,l),
(269,551,l),
(215,136,l),
(226,134,o),
(236,133,o),
(245,133,c),
(254,132,o),
(264,132,o),
(273,132,cs),
(350,132,o),
(394,162,o),
(401,219,c),
(402,233,o),
(400,245,o),
(395,256,c),
(383,277,o),
(358,289,o),
(326,289,cs),
(206,289,l),
(223,424,l),
(345,424,ls),
(378,424,o),
(401,453,o),
(405,486,cs),
(409,517,o),
(391,533,o),
(359,533,cs),
(102,533,l),
(120,684,l),
(371,684,ls),
(414,684,o),
(452,679,o),
(484,664,cs),
(547,634,o),
(578,579,o),
(570,512,c),
(562,455,o),
(547,411,o),
(496,386,cs),
(479,377,o),
(461,370,o),
(442,367,cs),
(422,364,l),
(445,360,o),
(459,355,o),
(487,339,cs),
(509,327,o),
(526,307,o),
(539,278,cs),
(552,249,o),
(556,218,o),
(552,187,cs),
(540,90,o),
(469,18,o),
(362,-5,cs)
);
}
);
width = 586;
},
{
layerId = "7ECE30C0-9795-4277-8F7A-A75C7AD12C73";
shapes = (
{
closed = 1;
nodes = (
(215,-10,o),
(192,-10,o),
(169,-9,cs),
(146,-8,o),
(126,-6,o),
(111,-5,c),
(49,2,l),
(128,642,l),
(212,642,l),
(140,71,l),
(158,68,o),
(177,66,o),
(196,65,cs),
(215,64,o),
(234,63,o),
(252,64,cs),
(381,68,o),
(445,105,o),
(456,192,cs),
(459,219,o),
(456,243,o),
(447,263,c),
(427,303,o),
(384,324,o),
(323,324,cs),
(129,325,l),
(138,401,l),
(321,401,ls),
(398,401,o),
(455,445,o),
(463,513,cs),
(470,570,o),
(433,601,o),
(352,606,c),
(123,606,l),
(133,684,l),
(357,684,ls),
(399,684,o),
(435,677,o),
(465,663,cs),
(525,634,o),
(553,579,o),
(545,507,c),
(537,448,o),
(510,402,o),
(465,383,cs),
(452,378,o),
(436,374,o),
(417,371,cs),
(406,369,l),
(419,368,o),
(448,359,o),
(471,346,cs),
(496,331,o),
(514,310,o),
(526,283,c),
(537,255,o),
(541,223,o),
(536,186,cs),
(520,59,o),
(418,-10,o),
(237,-10,cs)
);
}
);
width = 580;
},
{
layerId = "7040E9A1-72E8-429E-817E-85B6EE6706A0";
shapes = (
{
closed = 1;
nodes = (
(258,-9,o),
(228,-9,o),
(187,-9,cs),
(146,-8,o),
(117,-7,o),
(100,-4,cs),
(55,3,l),
(134,654,l),
(175,654,l),
(98,32,l),
(111,31,o),
(131,29,o),
(160,28,cs),
(188,27,o),
(213,26,o),
(234,26,cs),
(393,26,o),
(469,68,o),
(484,181,cs),
(488,213,o),
(484,242,o),
(471,267,cs),
(446,317,o),
(391,347,o),
(319,347,cs),
(130,347,l),
(134,382,l),
(315,382,ls),
(414,382,o),
(483,437,o),
(492,522,cs),
(501,598,o),
(458,641,o),
(366,648,c),
(134,648,l),
(138,684,l),
(353,684,ls),
(393,684,o),
(427,677,o),
(455,663,cs),
(511,635,o),
(538,583,o),
(530,514,c),
(523,465,o),
(503,427,o),
(467,402,cs),
(444,386,o),
(419,375,o),
(393,368,c),
(375,365,l),
(404,360,o),
(425,354,o),
(444,345,c),
(472,330,o),
(493,308,o),
(508,278,cs),
(522,248,o),
(527,214,o),
(522,175,cs),
(507,59,o),
(414,-9,o),
(278,-9,cs)
);
}
);
width = 573;
}
);
rightKerningGroup = B;
unicode = 66;
},
{
glyphname = C;
layers = (
{
anchors = (
{
name = m.uni0324_3;
position = "{361, -12}";
},
{
name = t.uni0308_1_3;
position = "{436, 696}";
}
);
layerId = "D37495DA-15D9-4303-B971-3AA975198D58";
shapes = (
{
closed = 1;
nodes = (
(478,-16,o),
(586,35,o),
(647,124,c),
(530,203,l),
(498,156,o),
(436,123,o),
(369,123,cs),
(300,123,o),
(247,160,o),
(222,222,cs),
(210,253,o),
(205,288,o),
(210,326,cs),
(221,414,o),
(265,489,o),
(327,530,cs),
(357,550,o),
(390,560,o),
(425,560,cs),
(494,560,o),
(543,529,o),
(550,480,c),
(689,513,l),
(680,583,o),
(631,643,o),
(556,675,cs),
(518,692,o),
(477,700,o),
(430,700,cs),
(303,700,o),
(188,635,o),
(115,528,cs),
(79,475,o),
(57,415,o),
(49,349,cs),
(33,212,o),
(84,97,o),
(186,32,cs),
(237,0,o),
(295,-16,o),
(362,-16,cs)
);
}
);
width = 685;
},
{
anchors = (
{
name = m.uni0324_3;
position = "{372, -16}";
},
{
name = t.uni0308_1_3;
position = "{438, 691}";
}
);
layerId = "7ECE30C0-9795-4277-8F7A-A75C7AD12C73";
shapes = (
{
closed = 1;
nodes = (
(471,-13,o),
(577,37,o),
(637,123,c),
(578,165,l),
(532,99,o),
(451,60,o),
(360,60,cs),
(265,60,o),
(189,107,o),
(153,190,cs),
(136,231,o),
(131,278,o),
(137,332,cs),
(150,443,o),
(210,536,o),
(297,587,cs),
(341,612,o),
(388,624,o),
(440,624,cs),
(538,624,o),
(595,575,o),
(612,512,c),
(679,526,l),
(668,589,o),
(625,643,o),
(555,674,c),
(520,689,o),
(480,697,o),
(436,697,cs),
(311,697,o),
(195,634,o),
(122,525,cs),
(86,471,o),
(63,410,o),
(54,341,cs),
(37,199,o),
(88,89,o),
(186,31,cs),
(234,2,o),
(291,-13,o),
(357,-13,cs)
);
}
);
width = 679;
},
{
anchors = (
{
name = m.uni0324_3;
position = "{372, -16}";
},
{
name = t.uni0308_1_3;
position = "{438, 691}";
}
);
layerId = "7040E9A1-72E8-429E-817E-85B6EE6706A0";
shapes = (
{
closed = 1;
nodes = (
(467,-10,o),
(571,38,o),
(634,125,c),
(604,145,l),
(549,68,o),
(462,25,o),
(355,25,cs),
(244,25,o),
(156,76,o),
(115,169,cs),
(94,216,o),
(88,271,o),
(96,336,cs),
(111,461,o),
(183,563,o),
(280,618,cs),
(329,645,o),
(379,659,o),
(432,659,cs),
(554,659,o),
(630,602,o),
(643,523,c),
(678,530,l),
(667,594,o),
(625,645,o),
(554,673,cs),
(520,687,o),
(479,694,o),
(434,694,cs),
(310,694,o),
(196,631,o),
(124,523,cs),
(88,469,o),
(65,408,o),
(56,339,cs),
(39,200,o),
(90,92,o),
(187,34,cs),
(234,5,o),
(289,-10,o),
(352,-10,cs)
);
}
);
width = 680;
}
);
leftKerningGroup = C2;
rightKerningGroup = C;
unicode = 67;
},
{
glyphname = D;
layers = (
{
layerId = "D37495DA-15D9-4303-B971-3AA975198D58";
shapes = (
{
closed = 1;
nodes = (
(416,-11,o),
(536,47,o),
(608,152,cs),
(644,205,o),
(667,267,o),
(676,338,cs),
(692,459,o),
(646,572,o),
(550,636,cs),
(501,668,o),
(443,684,o),
(376,684,cs),
(120,684,l),
(101,532,l),
(361,532,l),
(440,529,o),
(486,496,o),
(502,444,cs),
(510,417,o),
(512,386,o),
(508,351,cs),
(492,219,o),
(405,141,o),
(285,141,cs),
(277,141,ls),
(252,141,o),
(233,142,o),
(219,145,c),
(284,655,l),
(116,655,l),
(37,3,l),
(129,-5,l),
(131,-5,o),
(133,-5,o),
(134,-5,c),
(171,-8,o),
(215,-9,o),
(264,-10,cs)
);
}
);
width = 692;
},
{
layerId = "7ECE30C0-9795-4277-8F7A-A75C7AD12C73";
shapes = (
{
closed = 1;
nodes = (
(414,-10,o),
(529,43,o),
(600,147,cs),
(635,199,o),
(657,263,o),
(666,338,cs),
(681,467,o),
(637,578,o),
(548,639,cs),
(503,669,o),
(450,684,o),
(387,684,cs),
(132,684,l),
(123,608,l),
(370,608,ls),
(474,608,o),
(543,563,o),
(571,483,cs),
(585,443,o),
(589,396,o),
(582,343,cs),
(559,164,o),
(440,65,o),
(247,65,cs),
(234,65,l),
(190,66,o),
(158,68,o),
(138,70,c),
(211,651,l),
(128,651,l),
(48,1,l),
(105,-4,ls),
(112,-5,o),
(118,-5,o),
(125,-6,cs),
(154,-9,o),
(205,-10,o),
(277,-10,cs)
);
}
);
width = 692;
},
{
layerId = "7040E9A1-72E8-429E-817E-85B6EE6706A0";
shapes = (
{
closed = 1;
nodes = (
(419,-9,o),
(528,45,o),
(596,149,cs),
(629,201,o),
(651,265,o),
(661,340,cs),
(678,472,o),
(636,581,o),
(547,640,cs),
(502,669,o),
(448,684,o),
(385,684,cs),
(137,684,l),
(133,649,l),
(374,649,ls),
(490,649,o),
(572,595,o),
(607,503,cs),
(624,456,o),
(629,402,o),
(621,341,cs),
(594,134,o),
(468,26,o),
(261,26,cs),
(234,26,l),
(157,27,o),
(110,29,o),
(95,31,c),
(172,649,l),
(133,649,l),
(53,0,l),
(93,-3,ls),
(108,-4,o),
(118,-5,o),
(125,-5,c),
(170,-8,o),
(222,-9,o),
(283,-9,cs)
);
}
);
width = 694;
}
);
rightKerningGroup = D;
unicode = 68;
},
{
glyphname = E;
layers = (
{
anchors = (
{
name = m.uni0324_3;
position = "{292, 0}";
},
{
name = t.uni0308_1_3;
position = "{363, 687}";
},
{
name = m.uni0328_2;
position = "{527, 0}";
}
);
layerId = "D37495DA-15D9-4303-B971-3AA975198D58";
shapes = (
{
closed = 1;
nodes = (
(119,684,l),
(35,0,l),
(527,0,l),
(545,148,l),
(219,148,l),
(235,273,l),
(515,273,l),
(533,421,l),
(253,421,l),
(267,536,l),
(578,536,l),
(596,684,l)
);
}
);
width = 587;
},
{
anchors = (
{
name = m.uni0324_3;
position = "{296, -2}";
},
{
name = t.uni0308_1_3;
position = "{371, 688}";
},
{
name = m.uni0328_2;
position = "{540, -2}";
}
);
layerId = "7ECE30C0-9795-4277-8F7A-A75C7AD12C73";
shapes = (
{
closed = 1;
nodes = (
(132,684,l),
(48,-1,l),
(517,-1,l),
(526,75,l),
(139,75,l),
(170,323,l),
(491,323,l),
(500,399,l),
(179,399,l),
(205,608,l),
(573,608,l),
(582,684,l)
);
}
);
width = 571;
},
{
anchors = (
{
name = m.uni0324_3;
position = "{296, -2}";
},
{
name = t.uni0308_1_3;
position = "{371, 688}";
},
{
name = m.uni0328_2;
position = "{540, -2}";
}
);
layerId = "7040E9A1-72E8-429E-817E-85B6EE6706A0";
shapes = (
{
closed = 1;
nodes = (
(137,684,l),
(53,0,l),
(504,0,l),
(508,36,l),
(96,36,l),
(134,346,l),
(473,346,l),
(478,382,l),
(138,382,l),
(171,648,l),
(564,648,l),
(568,684,l)
);
}
);
width = 559;
}
);
rightKerningGroup = E;
unicode = 69;
},
{
glyphname = F;
layers = (
{
layerId = "D37495DA-15D9-4303-B971-3AA975198D58";
shapes = (
{
closed = 1;
nodes = (
(119,684,l),
(591,684,l),
(573,536,l),
(267,536,l),
(251,411,l),
(521,411,l),
(503,263,l),
(233,263,l),
(202,1,l),
(35,1,l)
);
}
);
width = 561;
},
{
layerId = "7ECE30C0-9795-4277-8F7A-A75C7AD12C73";
shapes = (
{
closed = 1;
nodes = (
(133,684,l),
(561,684,l),
(552,608,l),
(207,608,l),
(180,393,l),
(507,393,l),
(498,317,l),
(171,317,l),
(132,-1,l),
(49,-1,l)
);
}
);
width = 526;
},
{
layerId = "7040E9A1-72E8-429E-817E-85B6EE6706A0";
shapes = (
{
closed = 1;
nodes = (
(137,684,l),
(544,684,l),
(540,647,l),
(171,647,l),
(137,372,l),
(484,372,l),
(479,337,l),
(132,337,l),
(91,1,l),
(53,1,l)
);
}
);
width = 510;
}
);
rightKerningGroup = F;
unicode = 70;
},
{
glyphname = G;
layers = (
{
anchors = (
{
name = m.uni0324_3;
position = "{342, -12}";
},
{
name = t.uni0308_1_3;
position = "{443, 698}";
}
);
layerId = "D37495DA-15D9-4303-B971-3AA975198D58";
shapes = (
{
closed = 1;
nodes = (
(287,-16,o),
(230,-1,o),
(181,30,cs),
(84,91,o),
(34,207,o),
(51,350,cs),
(59,417,o),
(82,478,o),
(118,531,cs),
(190,638,o),
(307,700,o),
(438,700,cs),
(483,700,o),
(523,693,o),
(561,679,cs),
(635,651,o),
(688,595,o),
(701,519,c),
(561,486,l),
(558,498,o),
(551,510,o),
(541,522,cs),
(520,545,o),
(484,561,o),
(437,561,cs),
(398,561,o),
(361,551,o),
(329,531,cs),
(264,492,o),
(219,418,o),
(209,332,cs),
(204,289,o),
(208,252,o),
(219,220,cs),
(241,158,o),
(294,122,o),
(368,122,cs),
(405,122,o),
(438,130,o),
(468,147,cs),
(526,179,o),
(563,242,o),
(571,320,c),
(635,254,l),
(401,254,l),
(418,387,l),
(724,387,l),
(717,338,ls),
(707,267,o),
(687,204,o),
(654,151,cs),
(587,44,o),
(480,-16,o),
(352,-16,cs)
);
}
);
width = 746;
},
{
anchors = (
{
name = m.uni0324_3;
position = "{345, -29}";
},
{
name = t.uni0308_1_3;
position = "{438, 706}";
}
);
layerId = "7ECE30C0-9795-4277-8F7A-A75C7AD12C73";
shapes = (
{
closed = 1;
nodes = (
(289,-13,o),
(232,2,o),
(183,33,cs),
(87,95,o),
(37,206,o),
(54,344,cs),
(63,412,o),
(85,472,o),
(121,526,cs),
(192,632,o),
(308,697,o),
(438,697,cs),
(482,697,o),
(523,689,o),
(559,675,cs),
(633,645,o),
(681,592,o),
(692,526,c),
(620,508,l),
(615,531,o),
(606,552,o),
(589,569,cs),
(555,604,o),
(500,624,o),
(437,624,cs),
(387,624,o),
(340,612,o),
(296,587,cs),
(209,538,o),
(148,446,o),
(135,337,cs),
(128,283,o),
(134,236,o),
(151,193,cs),
(184,110,o),
(260,60,o),
(359,60,cs),
(406,60,o),
(449,70,o),
(487,92,cs),
(564,135,o),
(614,216,o),
(626,318,c),
(661,279,l),
(396,279,l),
(405,354,l),
(708,354,l),
(703,314,ls),
(695,248,o),
(675,191,o),
(644,142,cs),
(581,43,o),
(478,-13,o),
(355,-13,cs)
);
}
);
width = 737;
},
{
anchors = (
{
name = m.uni0324_3;
position = "{345, -29}";
},
{
name = t.uni0308_1_3;
position = "{438, 706}";
}
);
layerId = "7040E9A1-72E8-429E-817E-85B6EE6706A0";
shapes = (
{
closed = 1;
nodes = (
(291,-10,o),
(235,4,o),
(186,34,cs),
(89,94,o),
(40,205,o),
(56,340,cs),
(65,410,o),
(87,471,o),
(124,525,cs),
(197,633,o),
(315,694,o),
(443,694,cs),
(488,694,o),
(527,687,o),
(562,673,cs),
(632,644,o),
(676,592,o),
(688,532,c),
(656,523,l),
(651,547,o),
(640,569,o),
(622,590,cs),
(586,631,o),
(524,659,o),
(442,659,cs),
(385,659,o),
(331,646,o),
(281,619,cs),
(181,565,o),
(111,462,o),
(96,336,cs),
(89,275,o),
(96,222,o),
(116,175,cs),
(157,79,o),
(244,24,o),
(358,24,cs),
(411,24,o),
(460,36,o),
(504,61,cs),
(592,110,o),
(651,203,o),
(666,319,c),
(681,299,l),
(398,299,l),
(402,335,l),
(701,335,l),
(699,317,ls),
(692,252,o),
(672,195,o),
(641,146,cs),
(578,46,o),
(477,-10,o),
(357,-10,cs)
);
}
);
width = 736;
}
);
leftKerningGroup = C2;
rightKerningGroup = D;
unicode = 71;
},
{
glyphname = H;
layers = (
{
anchors = (
{
name = m.uni0324_3;
position = "{330, 0}";
},
{
name = t.uni0308_1_3;
position = "{414, 684}";
},
{
name = t.uni0335_4;
position = "{393, 508}";
}
);
layerId = "D37495DA-15D9-4303-B971-3AA975198D58";
shapes = (
{
closed = 1;
nodes = (
(123,684,l),
(289,684,l),
(257,422,l),
(507,422,l),
(539,684,l),
(704,684,l),
(620,0,l),
(455,0,l),
(488,270,l),
(238,270,l),
(205,0,l),
(39,0,l)
);
}
);
width = 717;
},
{
anchors = (
{
name = m.uni0324_3;
position = "{350, 0}";
},
{
name = t.uni0308_1_3;
position = "{433, 684}";
},
{
name = t.uni0335_4;
position = "{411, 522}";
}
);
layerId = "7ECE30C0-9795-4277-8F7A-A75C7AD12C73";
shapes = (
{
closed = 1;
nodes = (
(140,684,l),
(222,684,l),
(184,394,l),
(561,394,l),
(597,684,l),
(679,684,l),
(595,-1,l),
(513,-1,l),
(552,318,l),
(175,318,l),
(136,-1,l),
(53,-1,l)
);
}
);
width = 705;
},
{
anchors = (
{
name = m.uni0324_3;
position = "{350, 0}";
},
{
name = t.uni0308_1_3;
position = "{433, 684}";
},
{
name = t.uni0335_4;
position = "{411, 522}";
}
);
layerId = "7040E9A1-72E8-429E-817E-85B6EE6706A0";
shapes = (
{
closed = 1;
nodes = (
(146,684,l),
(184,684,l),
(143,376,l),
(568,376,l),
(606,684,l),
(644,684,l),
(560,0,l),
(522,0,l),
(563,340,l),
(138,340,l),
(94,0,l),
(56,0,l)
);
}
);
width = 675;
}
);
unicode = 72;
},
{
glyphname = I;
layers = (
{
anchors = (
{
name = m.uni0324_3;
position = "{119, -1}";
},
{
name = t.uni0308_1_3;
position = "{202, 684}";
},
{
name = t.uni0335_4;
position = "{161, 339}";
},
{
name = m.uni0328_2;
position = "{201, 0}";
}
);
layerId = "D37495DA-15D9-4303-B971-3AA975198D58";
shapes = (
{
closed = 1;
nodes = (
(119,684,l),
(285,684,l),
(201,0,l),
(35,0,l)
);
}
);
width = 298;
},
{
anchors = (
{
name = m.uni0324_3;
position = "{139, -1}";
},
{
name = t.uni0308_1_3;
position = "{218, 683}";
},
{
name = t.uni0335_4;
position = "{180, 336}";
},
{
name = m.uni0328_2;
position = "{241, -2}";
}
);
layerId = "7ECE30C0-9795-4277-8F7A-A75C7AD12C73";
shapes = (
{
closed = 1;
nodes = (
(132,684,l),
(215,684,l),
(131,-1,l),
(48,-1,l)
);
}
);
width = 241;
},
{
anchors = (
{
name = m.uni0324_3;
position = "{139, -1}";
},
{
name = t.uni0308_1_3;
position = "{218, 683}";
},
{
name = t.uni0335_4;
position = "{180, 336}";
},
{
name = m.uni0328_2;
position = "{241, -2}";
}
);
layerId = "7040E9A1-72E8-429E-817E-85B6EE6706A0";
shapes = (
{
closed = 1;
nodes = (
(137,684,l),
(175,684,l),
(91,1,l),
(53,1,l)
);
}
);
width = 206;
}
);
unicode = 73;
},
{
glyphname = J;
layers = (
{
layerId = "D37495DA-15D9-4303-B971-3AA975198D58";
shapes = (
{
closed = 1;
nodes = (
(286,-22,o),
(346,0,o),
(393,43,cs),
(440,86,o),
(468,146,o),
(477,223,cs),
(533,684,l),
(367,684,l),
(312,234,l),
(309,201,o),
(299,174,o),
(282,154,cs),
(265,133,o),
(244,123,o),
(219,123,cs),
(164,123,o),
(147,164,o),
(158,228,c),
(9,228,l),
(-11,137,o),
(17,57,o),
(85,12,cs),
(119,-11,o),
(161,-22,o),
(212,-22,cs)
);
}
);
width = 539;
},
{
layerId = "7ECE30C0-9795-4277-8F7A-A75C7AD12C73";
shapes = (
{
closed = 1;
nodes = (
(268,-11,o),
(322,9,o),
(365,50,cs),
(408,91,o),
(434,149,o),
(443,224,cs),
(499,684,l),
(417,684,l),
(361,231,ls),
(354,177,o),
(337,136,o),
(310,107,cs),
(283,78,o),
(251,64,o),
(214,64,cs),
(115,64,o),
(73,106,o),
(88,214,c),
(13,214,l),
(0,122,o),
(23,53,o),
(84,17,cs),
(115,-2,o),
(154,-11,o),
(202,-11,cs)
);
}
);
width = 517;
},
{
layerId = "7040E9A1-72E8-429E-817E-85B6EE6706A0";
shapes = (
{
closed = 1;
nodes = (
(247,-6,o),
(299,14,o),
(340,53,cs),
(381,92,o),
(405,144,o),
(413,210,cs),
(471,684,l),
(431,684,l),
(377,214,ls),
(370,157,o),
(349,112,o),
(314,79,cs),
(279,46,o),
(235,29,o),
(184,29,cs),
(89,29,o),
(38,82,o),
(47,191,c),
(12,191,l),
(3,112,o),
(28,51,o),
(84,19,c),
(111,2,o),
(145,-6,o),
(184,-6,cs)
);
}
);
width = 494;
}
);
leftKerningGroup = J2;
rightKerningGroup = J;
unicode = 74;
},
{
glyphname = K;
layers = (
{
anchors = (
{
name = m.uni0324_3;
position = "{321, 0}";
},
{
name = t.uni0308_1_3;
position = "{388, 684}";
}
);
layerId = "D37495DA-15D9-4303-B971-3AA975198D58";
shapes = (
{
closed = 1;
nodes = (
(119,684,l),
(285,684,l),
(201,0,l),
(35,0,l)
);
},
{
closed = 1;
nodes = (
(467,0,l),
(317,312,l),
(441,416,l),
(660,0,l)
);
},
{
closed = 1;
nodes = (
(159,295,l),
(496,684,l),
(704,684,l),
(131,37,l)
);
}
);
width = 667;
},
{
anchors = (
{
name = m.uni0324_3;
position = "{340, 0}";
},
{
name = t.uni0308_1_3;
position = "{408, 684}";
}
);
layerId = "7ECE30C0-9795-4277-8F7A-A75C7AD12C73";
shapes = (
{
closed = 1;
nodes = (
(132,684,l),
(215,684,l),
(131,0,l),
(48,0,l)
);
},
{
closed = 1;
nodes = (
(482,0,l),
(297,385,l),
(361,437,l),
(578,0,l)
);
},
{
closed = 1;
nodes = (
(138,272,l),
(531,684,l),
(643,684,l),
(125,142,l)
);
}
);
width = 618;
},
{
anchors = (
{
name = m.uni0324_3;
position = "{340, 0}";
},
{
name = t.uni0308_1_3;
position = "{408, 684}";
}
);
layerId = "7040E9A1-72E8-429E-817E-85B6EE6706A0";
shapes = (
{
closed = 1;
nodes = (
(137,684,l),
(175,684,l),
(91,1,l),
(53,1,l)
);
},
{
closed = 1;
nodes = (
(491,0,l),
(301,400,l),
(328,434,l),
(543,0,l)
);
},
{
closed = 1;
nodes = (
(113,258,l),
(529,684,l),
(584,684,l),
(107,196,l)
);
}
);
width = 601;
}
);
rightKerningGroup = K;
unicode = 75;
},
{
glyphname = L;
layers = (
{
anchors = (
{
name = m.uni0324_3;
position = "{279, -5}";
},
{
name = t.uni0308_1_3;
position = "{202, 684}";
},
{
name = t.uni0335_4;
position = "{165, 370}";
},
{
name = t.uni030C.alt_4;
position = "{341, 436}";
}
);
layerId = "D37495DA-15D9-4303-B971-3AA975198D58";
shapes = (
{
closed = 1;
nodes = (
(119,684,l),
(285,684,l),
(219,148,l),
(533,148,l),
(515,0,l),
(35,0,l)
);
}
);
width = 561;
},
{
anchors = (
{
name = m.uni0324_3;
position = "{301, 1}";
},
{
name = t.uni0308_1_3;
position = "{220, 685}";
},
{
name = t.uni0335_4;
position = "{176, 353}";
},
{
name = t.uni030C.alt_4;
position = "{365, 414}";
}
);
layerId = "7ECE30C0-9795-4277-8F7A-A75C7AD12C73";
shapes = (
{
closed = 1;
nodes = (
(132,684,l),
(215,684,l),
(140,75,l),
(486,75,l),
(477,-1,l),
(48,-1,l)
);
}
);
width = 521;
},
{
anchors = (
{
name = m.uni0324_3;
position = "{301, 1}";
},
{
name = t.uni0308_1_3;
position = "{220, 685}";
},
{
name = t.uni0335_4;
position = "{176, 353}";
},
{
name = t.uni030C.alt_4;
position = "{365, 414}";
}
);
layerId = "7040E9A1-72E8-429E-817E-85B6EE6706A0";
shapes = (
{
closed = 1;
nodes = (
(138,684,l),
(176,684,l),
(96,36,l),
(473,36,l),
(469,0,l),
(53,0,l)
);
}
);
width = 517;
}
);
rightKerningGroup = L;
unicode = 76;
},
{
glyphname = M;
leftMetricsKey = "=22";
rightMetricsKey = "=13";
layers = (
{
layerId = "D37495DA-15D9-4303-B971-3AA975198D58";
leftMetricsKey = "=9";
shapes = (
{
closed = 1;
nodes = (
(452,4,l),
(644,443,l),
(621,443,l),
(613,0,l),
(790,0,l),
(771,684,l),
(608,684,l),
(399,256,l),
(414,256,l),
(313,684,l),
(158,684,l),
(-21,0,l),
(159,0,l,{name = cr01;}),
(257,418,l),
(229,418,l),
(320,4,l)
);
}
);
width = 833;
},
{
layerId = "7ECE30C0-9795-4277-8F7A-A75C7AD12C73";
rightMetricsKey = "=24";
shapes = (
{
closed = 1;
nodes = (
(395,2,l),
(668,589,l),
(656,589,l),
(637,0,l),
(718,0,l),
(729,684,l),
(646,684,l),
(361,98,l),
(371,98,l),
(233,684,l),
(153,684,l),
(-8,0,l),
(78,0,l),
(203,582,l),
(189,582,l),
(319,2,l)
);
}
);
width = 772;
},
{
layerId = "7040E9A1-72E8-429E-817E-85B6EE6706A0";
leftMetricsKey = "=27";
rightMetricsKey = "=29";
shapes = (
{
closed = 1;
nodes = (
(371,1,l),
(683,652,l),
(678,652,l),
(649,0,l),
(689,0,l),
(711,684,l),
(661,684,l),
(342,30,l),
(352,30,l),
(202,684,l),
(149,684,l),
(-3,0,l),
(41,0,l),
(177,652,l),
(173,652,l),
(319,1,l)
);
}
);
width = 748;
}
);
leftKerningGroup = M;
rightKerningGroup = M;
unicode = 77;
},
{
glyphname = N;
layers = (
{
layerId = "D37495DA-15D9-4303-B971-3AA975198D58";
shapes = (
{
closed = 1;
nodes = (
(278,338,l),
(517,0,l),
(620,0,l),
(703,684,l),
(536,684,l),
(499,361,l),
(497,298,l),
(442,384,l),
(226,684,l),
(121,684,l),
(39,0,l),
(205,0,l),
(247,330,l),
(242,398,l)
);
}
);
width = 717;
},
{
layerId = "7ECE30C0-9795-4277-8F7A-A75C7AD12C73";
shapes = (
{
closed = 1;
nodes = (
(244,454,l),
(547,0,l),
(596,0,l),
(680,684,l),
(597,684,l),
(543,244,l),
(537,142,l),
(483,230,l),
(192,684,l),
(133,684,l),
(49,-1,l),
(131,-1,l),
(186,440,l),
(192,542,l)
);
}
);
width = 706;
},
{
layerId = "7040E9A1-72E8-429E-817E-85B6EE6706A0";
shapes = (
{
closed = 1;
nodes = (
(182,590,l),
(554,0,l),
(581,0,l),
(665,684,l),
(627,684,l),
(556,108,l),
(555,67,l),
(533,98,l),
(158,684,l),
(137,684,l),
(53,0,l),
(92,0,l),
(162,585,l),
(161,620,l)
);
}
);
width = 696;
}
);
unicode = 78;
},
{
glyphname = O;
layers = (
{
anchors = (
{
name = m.uni0324_3;
position = "{358, -15}";
},
{
name = t.uni0308_1_3;
position = "{449, 699}";
},
{
name = t.uni0335_4;
position = "{400, 337}";
},
{
name = t.uni031B_4;
position = "{583, 687}";
},
{
name = m.uni0328_2;
position = "{574, 37}";
},
{
name = t.uni030C.alt_4;
position = "{805, 643}";
}
);
layerId = "D37495DA-15D9-4303-B971-3AA975198D58";
shapes = (
{
closed = 1;
nodes = (
(494,-16,o),
(611,44,o),
(684,151,cs),
(721,204,o),
(743,266,o),
(752,336,cs),
(760,401,o),
(751,461,o),
(727,516,cs),
(702,572,o),
(664,617,o),
(615,650,cs),
(566,684,o),
(510,700,o),
(447,700,cs),
(311,700,o),
(193,638,o),
(120,529,cs),
(83,474,o),
(60,411,o),
(51,341,cs),
(43,279,o),
(52,222,o),
(77,167,cs),
(102,112,o),
(141,68,o),
(190,35,cs),
(240,2,o),
(295,-16,o),
(356,-16,cs)
);
},
{
closed = 1;
nodes = (
(305,126,o),
(249,167,o),
(223,230,cs),
(210,262,o),
(205,297,o),
(210,335,cs),
(221,420,o),
(264,491,o),
(327,530,c),
(359,548,o),
(392,557,o),
(429,557,cs),
(501,557,o),
(557,521,o),
(582,457,cs),
(595,425,o),
(598,388,o),
(593,347,cs),
(582,263,o),
(540,193,o),
(477,155,cs),
(445,136,o),
(412,126,o),
(374,126,cs)
);
}
);
width = 782;
},
{
anchors = (
{
name = m.uni0324_3;
position = "{368, -24}";
},
{
name = t.uni0308_1_3;
position = "{461, 711}";
},
{
name = t.uni0335_4;
position = "{409, 336}";
},
{
name = t.uni031B_4;
position = "{604, 692}";
},
{
name = m.uni0328_2;
position = "{606, 41}";
},
{
name = t.uni030C.alt_4;
position = "{818, 643}";
}
);
layerId = "7ECE30C0-9795-4277-8F7A-A75C7AD12C73";
shapes = (
{
closed = 1;
nodes = (
(475,-13,o),
(591,54,o),
(663,165,cs),
(698,220,o),
(720,282,o),
(729,352,cs),
(737,416,o),
(729,475,o),
(706,528,cs),
(684,580,o),
(648,622,o),
(601,652,cs),
(554,683,o),
(499,697,o),
(437,697,cs),
(308,697,o),
(192,633,o),
(121,524,cs),
(85,469,o),
(63,407,o),
(54,337,cs),
(46,273,o),
(55,214,o),
(77,161,cs),
(100,107,o),
(136,66,o),
(182,35,cs),
(229,4,o),
(282,-13,o),
(343,-13,cs)
);
},
{
closed = 1;
nodes = (
(259,60,o),
(187,113,o),
(153,201,cs),
(137,244,o),
(132,292,o),
(138,344,cs),
(151,451,o),
(210,539,o),
(295,588,cs),
(337,612,o),
(381,624,o),
(429,624,cs),
(524,624,o),
(597,574,o),
(631,488,cs),
(647,446,o),
(651,398,o),
(645,346,cs),
(632,239,o),
(574,147,o),
(489,97,cs),
(447,72,o),
(401,60,o),
(353,60,cs)
);
}
);
width = 759;
},
{
anchors = (
{
name = m.uni0324_3;
position = "{368, -24}";
},
{
name = t.uni0308_1_3;
position = "{461, 711}";
},
{
name = t.uni0335_4;
position = "{409, 336}";
},
{
name = t.uni031B_4;
position = "{604, 692}";
},
{
name = m.uni0328_2;
position = "{606, 41}";
},
{
name = t.uni030C.alt_4;
position = "{818, 643}";
}
);
layerId = "7040E9A1-72E8-429E-817E-85B6EE6706A0";
shapes = (
{
closed = 1;
nodes = (
(457,-10,o),
(568,53,o),
(637,155,cs),
(671,206,o),
(692,263,o),
(701,327,cs),
(710,396,o),
(705,459,o),
(684,515,cs),
(663,571,o),
(630,615,o),
(585,647,cs),
(539,678,o),
(485,694,o),
(424,694,cs),
(300,694,o),
(188,631,o),
(120,527,cs),
(85,474,o),
(64,415,o),
(56,350,cs),
(47,281,o),
(54,220,o),
(75,165,cs),
(96,110,o),
(129,67,o),
(174,36,cs),
(219,5,o),
(272,-10,o),
(333,-10,cs)
);
},
{
closed = 1;
nodes = (
(229,25,o),
(147,83,o),
(111,182,cs),
(93,231,o),
(88,287,o),
(96,349,cs),
(111,464,o),
(176,563,o),
(269,618,cs),
(316,645,o),
(366,659,o),
(420,659,cs),
(529,659,o),
(611,600,o),
(647,503,cs),
(664,454,o),
(669,399,o),
(662,338,cs),
(647,222,o),
(584,122,o),
(490,67,cs),
(443,39,o),
(392,25,o),
(337,25,cs)
);
}
);
width = 736;
}
);
leftKerningGroup = C2;
rightKerningGroup = D;
unicode = 79;
},
{
glyphname = P;
layers = (
{
anchors = (
{
name = m.uni0324_3;
position = "{259, -2}";
},
{
name = t.uni0308_1_3;
position = "{337, 684}";
}
);
layerId = "D37495DA-15D9-4303-B971-3AA975198D58";
shapes = (
{
closed = 1;
nodes = (
(416,189,o),
(498,236,o),
(543,308,cs),
(565,344,o),
(579,383,o),
(584,426,cs),
(596,526,o),
(560,607,o),
(489,651,c),
(453,672,o),
(411,684,o),
(364,684,cs),
(120,684,l),
(101,532,l),
(337,532,ls),
(360,532,o),
(380,524,o),
(397,510,cs),
(414,496,o),
(421,473,o),
(417,442,cs),
(409,383,o),
(367,340,o),
(287,340,cs),
(278,340,o),
(269,341,o),
(258,342,cs),
(247,343,o),
(237,344,o),
(228,347,cs),
(223,348,o),
(219,350,o),
(217,351,c),
(205,203,l),
(213,200,o),
(225,197,o),
(242,194,cs),
(263,191,o),
(285,189,o),
(307,189,cs)
);
},
{
closed = 1;
nodes = (
(105,560,l),
(36,-1,l),
(203,-1,l),
(270,548,l)
);
}
);
width = 583;
},
{
anchors = (
{
name = m.uni0324_3;
position = "{282, -2}";
},
{
name = t.uni0308_1_3;
position = "{354, 684}";
}
);
layerId = "7ECE30C0-9795-4277-8F7A-A75C7AD12C73";
shapes = (
{
closed = 1;
nodes = (
(361,218,o),
(450,258,o),
(499,329,cs),
(524,364,o),
(539,406,o),
(545,453,cs),
(556,541,o),
(527,616,o),
(467,656,cs),
(437,676,o),
(401,684,o),
(359,684,cs),
(133,684,l),
(124,608,l),
(341,608,ls),
(384,608,o),
(416,597,o),
(438,572,cs),
(460,546,o),
(468,510,o),
(462,464,cs),
(449,359,o),
(377,298,o),
(254,294,c),
(243,293,o),
(229,294,o),
(211,296,cs),
(193,298,o),
(175,300,o),
(158,302,cs),
(151,303,o),
(143,304,o),
(136,305,c),
(130,228,l),
(134,228,o),
(149,227,o),
(176,224,cs),
(208,220,o),
(229,218,o),
(240,218,cs)
);
},
{
closed = 1;
nodes = (
(132,681,l),
(48,-1,l),
(131,-1,l),
(215,681,l)
);
}
);
width = 549;
},
{
anchors = (
{
name = m.uni0324_3;
position = "{282, -2}";
},
{
name = t.uni0308_1_3;
position = "{354, 684}";
}
);
layerId = "7040E9A1-72E8-429E-817E-85B6EE6706A0";
shapes = (
{
closed = 1;
nodes = (
(347,236,o),
(436,276,o),
(485,344,cs),
(510,377,o),
(525,416,o),
(530,461,cs),
(541,552,o),
(513,621,o),
(452,658,cs),
(421,676,o),
(384,684,o),
(340,684,cs),
(139,684,l),
(135,648,l),
(324,648,ls),
(387,648,o),
(432,633,o),
(460,601,cs),
(488,569,o),
(498,524,o),
(491,467,cs),
(475,344,o),
(382,279,o),
(241,272,cs),
(230,271,o),
(213,272,o),
(191,273,cs),
(168,274,o),
(149,275,o),
(133,278,cs),
(126,279,o),
(119,280,o),
(113,283,c),
(110,248,l),
(116,245,o),
(133,242,o),
(162,239,cs),
(188,237,o),
(210,236,o),
(228,236,cs)
);
},
{
closed = 1;
nodes = (
(137,680,l),
(53,0,l),
(93,0,l),
(177,680,l)
);
}
);
width = 541;
}
);
rightKerningGroup = P;
unicode = 80;
},
{
glyphname = Q;
layers = (
{
anchors = (
{
name = m.uni0324_3;
position = "{362, 0}";
},
{
name = t.uni0308_1_3;
position = "{446, 684}";
},
{
name = t.uni0335_4;
position = "{405, 337}";
},
{
name = t.uni031B_4;
position = "{576, 693}";
},
{
name = m.uni0328_2;
position = "{581, 34}";
},
{
name = t.uni030C.alt_4;
position = "{818, 643}";
}
);
layerId = "D37495DA-15D9-4303-B971-3AA975198D58";
shapes = (
{
closed = 1;
nodes = (
(319,-13,l),
(350,-16,o),
(389,-28,o),
(420,-76,cs),
(445,-115,ls),
(474,-161,o),
(521,-176,o),
(562,-176,cs),
(607,-176,o),
(654,-158,o),
(673,-139,c),
(636,-24,l),
(626,-32,o),
(614,-36,o),
(606,-36,cs),
(592,-36,o),
(579,-25,o),
(558,5,cs),
(551,15,o),
(543,24,o),
(534,32,cs),
(498,62,o),
(433,74,o),
(387,74,c)
);
},
{
closed = 1;
nodes = (
(494,-16,o),
(611,44,o),
(684,151,cs),
(721,204,o),
(743,266,o),
(752,336,cs),
(760,401,o),
(751,461,o),
(727,516,cs),
(702,572,o),
(664,617,o),
(615,650,cs),
(566,684,o),
(510,700,o),
(447,700,cs),
(311,700,o),
(193,638,o),
(120,529,cs),
(83,474,o),
(60,411,o),
(51,341,cs),
(43,279,o),
(52,222,o),
(77,167,cs),
(102,112,o),
(141,68,o),
(190,35,cs),
(240,2,o),
(295,-16,o),
(356,-16,cs)
);
},
{
closed = 1;
nodes = (
(305,126,o),
(249,167,o),
(223,230,cs),
(210,262,o),
(205,297,o),
(210,335,cs),
(221,420,o),
(264,491,o),
(327,530,c),
(359,548,o),
(392,557,o),
(429,557,cs),
(501,557,o),
(557,521,o),
(582,457,cs),
(595,425,o),
(598,388,o),
(593,347,cs),
(582,263,o),
(540,193,o),
(477,155,cs),
(445,136,o),
(412,126,o),
(374,126,cs)
);
}
);
width = 790;
},
{
anchors = (
{
name = m.uni0324_3;
position = "{366, 0}";
},
{
name = t.uni0308_1_3;
position = "{450, 684}";
},
{
name = t.uni0335_4;
position = "{410, 336}";
},
{
name = t.uni031B_4;
position = "{578, 701}";
},
{
name = m.uni0328_2;
position = "{597, 35}";
},
{
name = t.uni030C.alt_4;
position = "{823, 643}";
}
);
layerId = "7ECE30C0-9795-4277-8F7A-A75C7AD12C73";
shapes = (
{
closed = 1;
nodes = (
(310,-9,l),
(357,-21,o),
(388,-44,o),
(417,-83,cs),
(451,-131,ls),
(475,-165,o),
(505,-176,o),
(535,-176,cs),
(564,-176,o),
(590,-166,o),
(606,-151,c),
(582,-93,l),
(572,-102,o),
(560,-106,o),
(551,-106,cs),
(532,-106,o),
(517,-88,o),
(492,-53,cs),
(481,-38,o),
(470,-25,o),
(462,-16,c),
(430,15,o),
(394,27,o),
(354,33,c)
);
},
{
closed = 1;
nodes = (
(475,-13,o),
(591,54,o),
(663,165,cs),
(698,220,o),
(720,282,o),
(729,352,cs),
(737,416,o),
(729,475,o),
(706,528,cs),
(684,580,o),
(648,622,o),
(601,652,cs),
(554,683,o),
(499,697,o),
(437,697,cs),
(308,697,o),
(192,633,o),
(121,524,cs),
(85,469,o),
(63,407,o),
(54,337,cs),
(46,273,o),
(55,214,o),
(77,161,cs),
(100,107,o),
(136,66,o),
(182,35,cs),
(229,4,o),
(282,-13,o),
(343,-13,cs)
);
},
{
closed = 1;
nodes = (
(259,60,o),
(187,113,o),
(153,201,cs),
(137,244,o),
(132,292,o),
(138,344,cs),
(151,451,o),
(210,539,o),
(295,588,cs),
(337,612,o),
(381,624,o),
(429,624,cs),
(524,624,o),
(597,574,o),
(631,488,cs),
(647,446,o),
(651,398,o),
(645,346,cs),
(632,239,o),
(574,147,o),
(489,97,cs),
(447,72,o),
(401,60,o),
(353,60,cs)
);
}
);
width = 768;
},
{
anchors = (
{
name = m.uni0324_3;
position = "{368, 0}";
},
{
name = t.uni0308_1_3;
position = "{452, 684}";
},
{
name = t.uni0335_4;
position = "{412, 336}";
},
{
name = t.uni031B_4;
position = "{579, 705}";
},
{
name = m.uni0328_2;
position = "{606, 36}";
},
{
name = t.uni030C.alt_4;
position = "{825, 643}";
}
);
layerId = "7040E9A1-72E8-429E-817E-85B6EE6706A0";
shapes = (
{
closed = 1;
nodes = (
(305,-7,l),
(360,-23,o),
(388,-52,o),
(415,-87,cs),
(454,-139,ls),
(475,-167,o),
(497,-176,o),
(521,-176,cs),
(541,-176,o),
(556,-170,o),
(571,-157,c),
(553,-129,l),
(543,-138,o),
(532,-142,o),
(522,-142,cs),
(501,-142,o),
(485,-121,o),
(457,-83,cs),
(444,-66,o),
(432,-50,o),
(424,-41,cs),
(394,-9,o),
(374,3,o),
(337,12,c)
);
},
{
closed = 1;
nodes = (
(457,-10,o),
(568,53,o),
(637,155,cs),
(671,206,o),
(692,263,o),
(701,327,cs),
(710,396,o),
(705,459,o),
(684,515,cs),
(663,571,o),
(630,615,o),
(585,647,cs),
(539,678,o),
(485,694,o),
(424,694,cs),
(300,694,o),
(188,631,o),
(120,527,cs),
(85,474,o),
(64,415,o),
(56,350,cs),
(47,281,o),
(54,220,o),
(75,165,cs),
(96,110,o),
(129,67,o),
(174,36,cs),
(219,5,o),
(272,-10,o),
(333,-10,cs)
);
},
{
closed = 1;
nodes = (
(229,25,o),
(147,83,o),
(111,182,cs),
(93,231,o),
(88,287,o),
(96,349,cs),
(111,464,o),
(176,563,o),
(269,618,cs),
(316,645,o),
(366,659,o),
(420,659,cs),
(529,659,o),
(611,600,o),
(647,503,cs),
(664,454,o),
(669,399,o),
(662,338,cs),
(647,222,o),
(584,122,o),
(490,67,cs),
(443,39,o),
(392,25,o),
(337,25,cs)
);
}
);
width = 756;
}
);
leftKerningGroup = C2;
rightKerningGroup = D;
unicode = 81;
},
{
glyphname = R;
layers = (
{
layerId = "72F2C4CE-1E46-4734-8615-AE1624273D46";
name = "#instance";
shapes = (
{
closed = 1;
nodes = (
(507,-12,o),
(524,-7,o),
(537,4,c),
(516,61,l),
(511,57,o),
(502,54,o),
(495,54,cs),
(480,54,o),
(473,63,o),
(464,77,cs),
(454,93,o),
(408,201,o),
(385,237,cs),
(366,268,o),
(348,283,o),
(315,292,c),
(335,292,o),
(339,292,o),
(355,292,cs),
(445,292,o),
(533,374,o),
(545,481,c),
(560,596,o),
(487,685,o),
(367,685,cs),
(134,685,l),
(124,613,l),
(349,613,ls),
(429,613,o),
(475,557,o),
(464,477,cs),
(454,396,o),
(391,338,o),
(303,338,cs),
(211,338,l),
(263,301,o),
(298,258,o),
(341,174,cs),
(356,145,o),
(398,50,o),
(407,34,cs),
(426,2,o),
(450,-12,o),
(481,-12,cs)
);
},
{
closed = 1;
nodes = (
(127,0,l),
(210,676,l),
(131,676,l),
(48,0,l)
);
}
);
width = 583;
},
{
layerId = "D37495DA-15D9-4303-B971-3AA975198D58";
shapes = (
{
closed = 1;
nodes = (
(539,-21,o),
(571,-12,o),
(593,7,c),
(550,120,l),
(547,118,o),
(541,113,o),
(532,113,cs),
(518,113,o),
(507,130,o),
(496,148,cs),
(486,163,o),
(471,211,o),
(464,228,c),
(444,267,o),
(413,284,o),
(383,291,c),
(405,292,o),
(415,292,o),
(428,292,cs),
(508,292,o),
(588,369,o),
(600,469,cs),
(615,594,o),
(536,685,o),
(399,685,cs),
(125,685,l),
(106,537,l),
(356,537,ls),
(413,537,o),
(434,511,o),
(428,461,cs),
(422,416,o),
(386,382,o),
(327,382,cs),
(111,382,l),
(248,290,o),
(317,206,o),
(348,134,cs),
(367,93,o),
(386,51,o),
(390,43,cs),
(415,-1,o),
(454,-21,o),
(496,-21,cs)
);
},
{
closed = 1;
nodes = (
(202,0,l),
(286,685,l),
(120,685,l),
(35,0,l)
);
}
);
width = 631;
},
{
layerId = "7ECE30C0-9795-4277-8F7A-A75C7AD12C73";
shapes = (
{
closed = 1;
nodes = (
(507,-12,o),
(524,-7,o),
(537,4,c),
(516,61,l),
(511,57,o),
(502,54,o),
(495,54,cs),
(480,54,o),
(473,63,o),
(464,77,cs),
(454,93,o),
(408,201,o),
(385,237,cs),
(366,268,o),
(348,283,o),
(315,292,c),
(335,292,o),
(339,292,o),
(355,292,cs),
(445,292,o),
(533,374,o),
(545,481,cs),
(560,596,o),
(487,685,o),
(367,685,cs),
(134,685,l),
(124,613,l),
(349,613,ls),
(429,613,o),
(475,557,o),
(464,477,cs),
(454,396,o),
(391,338,o),
(303,338,cs),
(211,338,l),
(263,301,o),
(298,258,o),
(341,174,cs),
(356,145,o),
(398,50,o),
(407,34,cs),
(426,2,o),
(450,-12,o),
(481,-12,cs)
);
},
{
closed = 1;
nodes = (
(127,0,l),
(210,676,l),
(131,676,l),
(48,0,l)
);
}
);
width = 583;
},
{
layerId = "7040E9A1-72E8-429E-817E-85B6EE6706A0";
shapes = (
{
closed = 1;
nodes = (
(492,-8,o),
(502,-4,o),
(510,3,c),
(499,33,l),
(493,28,o),
(483,26,o),
(477,26,cs),
(462,26,o),
(456,31,o),
(448,43,c),
(439,60,o),
(377,196,o),
(347,242,cs),
(329,269,o),
(316,283,o),
(282,292,c),
(301,292,o),
(303,292,o),
(320,292,cs),
(415,292,o),
(506,377,o),
(519,487,cs),
(533,597,o),
(463,685,o),
(351,685,cs),
(138,685,l),
(133,649,l),
(345,649,ls),
(437,649,o),
(494,579,o),
(482,484,cs),
(470,386,o),
(393,317,o),
(292,317,cs),
(200,317,l),
(263,292,o),
(307,248,o),
(337,193,cs),
(350,170,o),
(404,50,o),
(415,30,cs),
(431,3,o),
(448,-8,o),
(474,-8,cs)
);
},
{
closed = 1;
nodes = (
(91,0,l),
(173,672,l),
(136,672,l),
(54,0,l)
);
}
);
width = 560;
}
);
rightKerningGroup = R;
unicode = 82;
},
{
glyphname = S;
layers = (
{
anchors = (
{
name = m.uni0324_3;
position = "{250, -15}";
},
{
name = t.uni0308_1_3;
position = "{338, 699}";
}
);
layerId = "D37495DA-15D9-4303-B971-3AA975198D58";
shapes = (
{
closed = 1;
nodes = (
(346,-17,o),
(432,21,o),
(486,87,cs),
(512,120,o),
(527,157,o),
(532,198,cs),
(540,264,o),
(519,314,o),
(462,359,cs),
(433,382,o),
(393,405,o),
(342,427,c),
(294,450,o),
(267,468,o),
(255,487,cs),
(250,495,o),
(247,505,o),
(248,515,cs),
(251,534,o),
(265,549,o),
(286,556,c),
(296,559,o),
(308,561,o),
(321,561,cs),
(356,561,o),
(374,542,o),
(377,514,c),
(522,550,l),
(522,609,o),
(492,657,o),
(436,682,cs),
(408,695,o),
(374,700,o),
(336,700,cs),
(254,701,o),
(177,673,o),
(130,620,cs),
(107,594,o),
(93,563,o),
(89,528,cs),
(80,461,o),
(108,408,o),
(161,366,cs),
(187,346,o),
(219,326,o),
(258,309,cs),
(289,295,o),
(312,283,o),
(328,271,cs),
(345,259,o),
(356,247,o),
(361,235,cs),
(367,223,o),
(369,210,o),
(367,196,cs),
(364,168,o),
(346,144,o),
(317,133,cs),
(302,127,o),
(286,125,o),
(268,125,c),
(236,126,o),
(212,134,o),
(193,153,cs),
(175,170,o),
(165,195,o),
(164,227,c),
(17,190,l),
(22,112,o),
(60,48,o),
(128,12,cs),
(162,-6,o),
(203,-15,o),
(249,-16,cs)
);
}
);
width = 563;
},
{
anchors = (
{
name = m.uni0324_3;
position = "{264, -12}";
},
{
name = t.uni0308_1_3;
position = "{351, 704}";
}
);
layerId = "7ECE30C0-9795-4277-8F7A-A75C7AD12C73";
shapes = (
{
closed = 1;
nodes = (
(313,-16,o),
(393,17,o),
(445,79,cs),
(471,109,o),
(488,146,o),
(494,186,cs),
(507,266,o),
(471,316,o),
(416,348,cs),
(388,364,o),
(349,382,o),
(298,404,c),
(251,423,o),
(219,439,o),
(197,468,cs),
(186,483,o),
(182,501,o),
(185,521,cs),
(192,561,o),
(221,595,o),
(262,612,cs),
(282,621,o),
(302,625,o),
(323,624,cs),
(378,621,o),
(414,596,o),
(415,556,c),
(491,578,l),
(488,620,o),
(461,658,o),
(415,680,cs),
(391,691,o),
(363,697,o),
(333,697,cs),
(263,698,o),
(194,669,o),
(147,617,cs),
(123,591,o),
(108,559,o),
(102,522,cs),
(91,451,o),
(126,404,o),
(169,378,cs),
(191,365,o),
(217,352,o),
(246,340,cs),
(291,321,o),
(325,306,o),
(348,294,c),
(369,281,o),
(386,266,o),
(399,248,cs),
(411,231,o),
(415,209,o),
(411,183,cs),
(403,133,o),
(368,93,o),
(321,73,c),
(297,62,o),
(273,58,o),
(247,59,cs),
(209,60,o),
(174,73,o),
(144,97,cs),
(113,122,o),
(96,155,o),
(92,195,c),
(16,172,l),
(19,105,o),
(61,49,o),
(125,15,cs),
(157,-2,o),
(192,-11,o),
(230,-13,cs)
);
}
);
width = 533;
},
{
anchors = (
{
name = m.uni0324_3;
position = "{264, -12}";
},
{
name = t.uni0308_1_3;
position = "{351, 704}";
}
);
layerId = "7040E9A1-72E8-429E-817E-85B6EE6706A0";
shapes = (
{
closed = 1;
nodes = (
(301,-12,o),
(374,19,o),
(424,77,cs),
(448,106,o),
(463,139,o),
(469,178,cs),
(481,253,o),
(444,305,o),
(397,337,c),
(372,353,o),
(340,372,o),
(299,392,cs),
(225,429,o),
(191,448,o),
(169,481,cs),
(157,498,o),
(152,516,o),
(155,539,cs),
(160,585,o),
(198,625,o),
(248,646,cs),
(272,656,o),
(298,660,o),
(322,659,cs),
(386,655,o),
(434,633,o),
(434,586,c),
(471,598,l),
(468,632,o),
(447,662,o),
(406,680,cs),
(385,689,o),
(361,693,o),
(332,694,cs),
(257,696,o),
(191,667,o),
(152,620,cs),
(132,597,o),
(120,570,o),
(116,542,cs),
(106,482,o),
(137,440,o),
(179,414,cs),
(200,401,o),
(233,383,o),
(278,361,cs),
(315,342,o),
(344,326,o),
(365,312,cs),
(387,297,o),
(405,279,o),
(417,259,cs),
(430,237,o),
(435,212,o),
(430,183,c),
(421,121,o),
(379,69,o),
(321,42,cs),
(292,29,o),
(262,23,o),
(229,24,cs),
(185,26,o),
(148,40,o),
(115,65,cs),
(83,90,o),
(62,123,o),
(53,164,c),
(19,152,l),
(28,92,o),
(70,40,o),
(129,13,c),
(159,-2,o),
(190,-9,o),
(223,-10,cs)
);
}
);
width = 518;
}
);
unicode = 83;
},
{
glyphname = T;
layers = (
{
layerId = "D37495DA-15D9-4303-B971-3AA975198D58";
shapes = (
{
closed = 1;
nodes = (
(247,538,l),
(51,538,l),
(69,684,l),
(625,684,l),
(607,538,l),
(412,538,l),
(344,0,l),
(179,0,l)
);
}
);
width = 588;
},
{
layerId = "7ECE30C0-9795-4277-8F7A-A75C7AD12C73";
shapes = (
{
closed = 1;
nodes = (
(279,608,l),
(60,608,l),
(69,684,l),
(591,684,l),
(582,608,l),
(362,608,l),
(287,0,l),
(204,0,l)
);
}
);
width = 554;
},
{
layerId = "7040E9A1-72E8-429E-817E-85B6EE6706A0";
shapes = (
{
closed = 1;
nodes = (
(299,648,l),
(69,648,l),
(73,684,l),
(571,684,l),
(567,648,l),
(337,648,l),
(257,0,l),
(219,0,l)
);
}
);
width = 538;
}
);
leftKerningGroup = T2;
rightKerningGroup = T;
unicode = 84;
},
{
glyphname = U;
layers = (
{
anchors = (
{
name = m.uni0324_3;
position = "{320, -10}";
},
{
name = t.uni0308_1_3;
position = "{396, 675}";
},
{
name = t.uni0335_4;
position = "{358, 366}";
},
{
name = t.uni031B_4;
position = "{630, 684}";
},
{
name = m.uni0328_2;
position = "{484, 21}";
},
{
name = t.uni030C.alt_4;
position = "{683, 684}";
}
);
layerId = "D37495DA-15D9-4303-B971-3AA975198D58";
shapes = (
{
closed = 1;
nodes = (
(263,-30,o),
(212,-18,o),
(170,7,cs),
(86,55,o),
(46,147,o),
(61,266,cs),
(112,684,l),
(278,684,l),
(226,258,ls),
(223,228,o),
(224,202,o),
(231,181,cs),
(244,137,o),
(279,114,o),
(328,114,cs),
(355,114,o),
(379,120,o),
(400,133,cs),
(442,158,o),
(469,206,o),
(476,266,cs),
(527,684,l),
(693,684,l),
(641,258,ls),
(634,199,o),
(616,147,o),
(588,104,cs),
(532,17,o),
(439,-30,o),
(323,-30,cs)
);
}
);
width = 699;
},
{
anchors = (
{
name = m.uni0324_3;
position = "{336, 1}";
},
{
name = t.uni0308_1_3;
position = "{407, 665}";
},
{
name = t.uni0335_4;
position = "{373, 366}";
},
{
name = t.uni031B_4;
position = "{654, 682}";
},
{
name = m.uni0328_2;
position = "{528, 38}";
},
{
name = t.uni030C.alt_4;
position = "{706, 682}";
}
);
layerId = "7ECE30C0-9795-4277-8F7A-A75C7AD12C73";
shapes = (
{
closed = 1;
nodes = (
(265,-17,o),
(217,-5,o),
(177,20,cs),
(97,69,o),
(60,160,o),
(73,265,cs),
(124,684,l),
(207,684,l),
(155,261,ls),
(150,220,o),
(154,185,o),
(167,154,c),
(191,92,o),
(248,57,o),
(324,57,cs),
(364,57,o),
(401,66,o),
(434,84,cs),
(500,119,o),
(543,184,o),
(552,265,cs),
(603,684,l),
(686,684,l),
(634,261,ls),
(627,206,o),
(610,157,o),
(581,115,cs),
(523,31,o),
(429,-17,o),
(321,-17,cs)
);
}
);
width = 704;
},
{
anchors = (
{
name = m.uni0324_3;
position = "{336, 1}";
},
{
name = t.uni0308_1_3;
position = "{407, 665}";
},
{
name = t.uni0335_4;
position = "{373, 366}";
},
{
name = t.uni031B_4;
position = "{654, 682}";
},
{
name = m.uni0328_2;
position = "{528, 38}";
},
{
name = t.uni030C.alt_4;
position = "{706, 682}";
}
);
layerId = "7040E9A1-72E8-429E-817E-85B6EE6706A0";
shapes = (
{
closed = 1;
nodes = (
(252,-11,o),
(208,1,o),
(171,25,cs),
(98,72,o),
(65,159,o),
(78,264,cs),
(130,684,l),
(168,684,l),
(116,262,ls),
(110,215,o),
(115,173,o),
(130,137,cs),
(160,65,o),
(224,24,o),
(308,24,cs),
(351,24,o),
(390,34,o),
(427,55,cs),
(500,95,o),
(550,171,o),
(562,264,cs),
(614,684,l),
(652,684,l),
(600,262,ls),
(593,207,o),
(577,159,o),
(550,118,cs),
(496,35,o),
(408,-11,o),
(305,-11,cs)
);
}
);
width = 675;
}
);
leftKerningGroup = U2;
rightKerningGroup = U;
unicode = 85;
},
{
glyphname = V;
leftMetricsKey = "=16";
layers = (
{
anchors = (
{
name = m.uni0324_3;
position = "{302, 0}";
},
{
name = t.uni0308_1_3;
position = "{390, 684}";
}
);
layerId = "D37495DA-15D9-4303-B971-3AA975198D58";
leftMetricsKey = "=8";
shapes = (
{
closed = 1;
nodes = (
(62,684,l),
(233,-13,l),
(367,-13,l),
(695,684,l),
(505,684,l),
(346,288,l),
(330,223,l),
(325,288,l),
(233,684,l)
);
}
);
width = 651;
},
{
anchors = (
{
name = m.uni0324_3;
position = "{282, -4}";
},
{
name = t.uni0308_1_3;
position = "{370, 683}";
}
);
layerId = "7ECE30C0-9795-4277-8F7A-A75C7AD12C73";
shapes = (
{
closed = 1;
nodes = (
(70,684,l),
(220,-1,l),
(294,-1,l),
(616,684,l),
(534,684,l),
(292,163,l),
(272,120,l),
(267,161,l),
(152,684,l)
);
}
);
width = 578;
},
{
anchors = (
{
name = m.uni0324_3;
position = "{274, -4}";
},
{
name = t.uni0308_1_3;
position = "{362, 683}";
}
);
layerId = "7040E9A1-72E8-429E-817E-85B6EE6706A0";
leftMetricsKey = "=22";
shapes = (
{
closed = 1;
nodes = (
(76,684,l),
(234,-1,l),
(272,1,l),
(589,684,l),
(548,684,l),
(275,91,l),
(259,45,l),
(252,90,l),
(114,684,l)
);
}
);
width = 558;
}
);
leftKerningGroup = V2;
rightKerningGroup = V;
unicode = 86;
},
{
glyphname = W;
leftMetricsKey = "=11";
layers = (
{
layerId = "D37495DA-15D9-4303-B971-3AA975198D58";
leftMetricsKey = "=5";
shapes = (
{
closed = 1;
nodes = (
(59,684,l),
(182,0,l),
(334,0,l),
(484,348,l),
(496,389,l),
(503,348,l),
(574,0,l),
(733,0,l),
(1032,684,l),
(842,684,l),
(638,191,l),
(667,117,l),
(696,191,l),
(606,684,l),
(450,684,l),
(254,191,l),
(274,117,l),
(311,190,l),
(225,684,l)
);
}
);
width = 985;
},
{
layerId = "7ECE30C0-9795-4277-8F7A-A75C7AD12C73";
shapes = (
{
closed = 1;
nodes = (
(65,684,l),
(195,-1,l),
(275,-1,l),
(500,514,l),
(519,567,l),
(525,514,l),
(625,-1,l),
(705,-1,l),
(1010,684,l),
(928,684,l),
(685,126,l),
(675,84,l),
(673,126,l),
(571,684,l),
(497,684,l),
(254,126,l),
(245,87,l),
(245,126,l),
(147,684,l)
);
}
);
width = 967;
},
{
layerId = "7040E9A1-72E8-429E-817E-85B6EE6706A0";
shapes = (
{
closed = 1;
nodes = (
(72,684,l),
(208,1,l),
(256,1,l),
(523,598,l),
(538,639,l),
(543,598,l),
(664,1,l),
(711,1,l),
(1017,684,l),
(975,684,l),
(711,91,l),
(691,31,l),
(685,91,l),
(565,684,l),
(521,684,l),
(255,91,l),
(235,34,l),
(230,91,l),
(110,684,l)
);
}
);
width = 982;
}
);
leftKerningGroup = V2;
rightKerningGroup = V;
unicode = 87;
},
{
glyphname = X;
layers = (
{
layerId = "D37495DA-15D9-4303-B971-3AA975198D58";
shapes = (
{
closed = 1;
nodes = (
(276,427,l),
(276,306,l),
(83,684,l),
(274,684,l),
(381,448,l),
(311,439,l),
(474,684,l),
(669,684,l),
(388,311,l),
(401,432,l),
(617,0,l),
(444,0,l),
(295,285,l),
(350,296,l),
(165,0,l),
(-25,0,l)
);
}
);
width = 654;
},
{
layerId = "7ECE30C0-9795-4277-8F7A-A75C7AD12C73";
shapes = (
{
closed = 1;
nodes = (
(269,402,l),
(256,335,l),
(85,684,l),
(181,684,l),
(315,399,l),
(279,400,l),
(480,684,l),
(577,684,l),
(314,327,l),
(326,399,l),
(512,0,l),
(423,0,l),
(269,328,l),
(307,333,l),
(79,0,l),
(-17,0,l)
);
}
);
width = 555;
},
{
layerId = "7040E9A1-72E8-429E-817E-85B6EE6706A0";
shapes = (
{
closed = 1;
nodes = (
(262,381,l),
(256,353,l),
(101,684,l),
(148,684,l),
(285,384,l),
(269,384,l),
(489,684,l),
(536,684,l),
(291,354,l),
(290,382,l),
(479,0,l),
(438,0,l),
(265,343,l),
(278,343,l),
(34,0,l),
(-12,0,l)
);
}
);
width = 529;
}
);
leftKerningGroup = X;
unicode = 88;
},
{
glyphname = Y;
leftMetricsKey = "=10";
layers = (
{
layerId = "D37495DA-15D9-4303-B971-3AA975198D58";
shapes = (
{
closed = 1;
nodes = (
(204,292,l),
(58,684,l),
(237,684,l),
(294,489,l),
(299,445,l),
(313,489,l),
(429,684,l),
(617,684,l),
(370,294,l),
(334,0,l),
(166,0,l)
);
}
);
width = 570;
},
{
layerId = "7ECE30C0-9795-4277-8F7A-A75C7AD12C73";
shapes = (
{
closed = 1;
nodes = (
(219,296,l),
(64,684,l),
(149,684,l),
(255,418,l),
(267,369,l),
(291,418,l),
(471,684,l),
(566,684,l),
(302,298,l),
(266,0,l),
(185,0,l)
);
}
);
width = 523;
},
{
layerId = "7040E9A1-72E8-429E-817E-85B6EE6706A0";
leftMetricsKey = "=16";
shapes = (
{
closed = 1;
nodes = (
(239,301,l),
(70,684,l),
(114,684,l),
(253,366,l),
(263,340,l),
(276,366,l),
(493,684,l),
(536,684,l),
(277,303,l),
(241,1,l),
(202,1,l)
);
}
);
width = 500;
}
);
leftKerningGroup = Y2;
rightKerningGroup = Y;
unicode = 89;
},
{
glyphname = Z;
layers = (
{
layerId = "D37495DA-15D9-4303-B971-3AA975198D58";
shapes = (
{
closed = 1;
nodes = (
(8,86,l),
(378,592,l),
(407,534,l),
(69,534,l),
(88,684,l),
(581,684,l),
(574,614,l),
(240,152,l),
(532,152,l),
(513,0,l),
(-1,0,l)
);
}
);
width = 569;
},
{
layerId = "7ECE30C0-9795-4277-8F7A-A75C7AD12C73";
shapes = (
{
closed = 1;
nodes = (
(-4,28,l),
(427,637,l),
(443,608,l),
(77,608,l),
(86,684,l),
(543,684,l),
(535,659,l),
(123,75,l),
(482,75,l),
(473,-1,l),
(-7,-1,l)
);
}
);
width = 525;
},
{
layerId = "7040E9A1-72E8-429E-817E-85B6EE6706A0";
shapes = (
{
closed = 1;
nodes = (
(-7,3,l),
(457,661,l),
(464,648,l),
(83,648,l),
(87,684,l),
(520,684,l),
(516,681,l),
(61,37,l),
(463,37,l),
(458,1,l),
(-7,1,l)
);
}
);
width = 510;
}
);
leftKerningGroup = Z2;
rightKerningGroup = Z;
unicode = 90;
},
{
glyphname = bracketleft;
layers = (
{
layerId = "D37495DA-15D9-4303-B971-3AA975198D58";
shapes = (
{
closed = 1;
nodes = (
(122,751,l),
(440,751,l),
(422,603,l),
(270,603,l),
(192,-27,l),
(344,-27,l),
(326,-175,l),
(8,-175,l)
);
}
);
width = 397;
},
{
layerId = "7ECE30C0-9795-4277-8F7A-A75C7AD12C73";
shapes = (
{
closed = 1;
nodes = (
(135,750,l),
(389,750,l),
(380,674,l),
(209,674,l),
(115,-93,l),
(286,-93,l),
(277,-169,l),
(23,-169,l)
);
}
);
width = 342;
},
{
layerId = "7040E9A1-72E8-429E-817E-85B6EE6706A0";
shapes = (
{
closed = 1;
nodes = (
(140,752,l),
(361,752,l),
(357,716,l),
(174,716,l),
(68,-143,l),
(251,-143,l),
(247,-178,l),
(26,-178,l)
);
}
);
width = 315;
}
);
rightKerningGroup = parenleft;
unicode = 91;
},
{
glyphname = backslash;
layers = (
{
layerId = "D37495DA-15D9-4303-B971-3AA975198D58";
shapes = (
{
closed = 1;
nodes = (
(198,-69,l),
(374,-69,l),
(54,751,l),
(-115,751,l)
);
}
);
width = 404;
},
{
layerId = "7ECE30C0-9795-4277-8F7A-A75C7AD12C73";
shapes = (
{
closed = 1;
nodes = (
(218,-68,l),
(305,-68,l),
(-14,750,l),
(-100,750,l)
);
}
);
width = 349;
},
{
layerId = "7040E9A1-72E8-429E-817E-85B6EE6706A0";
shapes = (
{
closed = 1;
nodes = (
(227,-69,l),
(267,-69,l),
(-52,751,l),
(-93,751,l)
);
}
);
width = 319;
}
);
rightKerningGroup = backslash;
unicode = 92;
},
{
glyphname = bracketright;
layers = (
{
layerId = "D37495DA-15D9-4303-B971-3AA975198D58";
shapes = (
{
closed = 1;
nodes = (
(285,-169,l),
(-33,-169,l),
(-15,-21,l),
(137,-21,l),
(215,609,l),
(63,609,l),
(81,757,l),
(399,757,l)
);
}
);
width = 397;
},
{
layerId = "7ECE30C0-9795-4277-8F7A-A75C7AD12C73";
shapes = (
{
closed = 1;
nodes = (
(218,-168,l),
(-36,-168,l),
(-27,-92,l),
(144,-92,l),
(238,675,l),
(67,675,l),
(76,751,l),
(330,751,l)
);
}
);
width = 343;
},
{
layerId = "7040E9A1-72E8-429E-817E-85B6EE6706A0";
shapes = (
{
closed = 1;
nodes = (
(185,-170,l),
(-36,-170,l),
(-32,-134,l),
(151,-134,l),
(257,725,l),
(74,725,l),
(78,760,l),
(299,760,l)
);
}
);
width = 315;
}
);
leftKerningGroup = parenright;
unicode = 93;
},
{
glyphname = asciicircum;
layers = (
{
layerId = "D37495DA-15D9-4303-B971-3AA975198D58";
shapes = (
{
closed = 1;
nodes = (
(276,405,l),
(361,256,l),
(501,349,l),
(336,634,l),
(264,634,l),
(31,349,l),
(156,258,l)
);
}
);
width = 546;
},
{
layerId = "7ECE30C0-9795-4277-8F7A-A75C7AD12C73";
shapes = (
{
closed = 1;
nodes = (
(258,499,l),
(365,313,l),
(436,360,l),
(288,619,l),
(257,619,l),
(45,360,l),
(107,315,l)
);
}
);
width = 520;
},
{
layerId = "7040E9A1-72E8-429E-817E-85B6EE6706A0";
shapes = (
{
closed = 1;
nodes = (
(250,545,l),
(369,341,l),
(407,367,l),
(265,614,l),
(254,614,l),
(52,367,l),
(85,343,l)
);
}
);
width = 480;
}
);
unicode = 94;
},
{
glyphname = underscore;
layers = (
{
layerId = "D37495DA-15D9-4303-B971-3AA975198D58";
shapes = (
{
closed = 1;
nodes = (
(35,0,l),
(17,-148,l),
(505,-148,l),
(523,0,l)
);
}
);
width = 620;
},
{
layerId = "7ECE30C0-9795-4277-8F7A-A75C7AD12C73";
shapes = (
{
closed = 1;
nodes = (
(51,0,l),
(42,-76,l),
(492,-76,l),
(501,0,l)
);
}
);
width = 614;
},
{
layerId = "7040E9A1-72E8-429E-817E-85B6EE6706A0";
shapes = (
{
closed = 1;
nodes = (
(55,0,l),
(51,-36,l),
(485,-36,l),
(489,0,l)
);
}
);
width = 606;
}
);
unicode = 95;
},
{
glyphname = grave;
layers = (
{
layerId = "D37495DA-15D9-4303-B971-3AA975198D58";
shapes = (
{
closed = 1;
nodes = (
(68,732,l),
(245,538,l),
(340,619,l),
(185,827,l)
);
}
);
width = 304;
},
{
layerId = "7ECE30C0-9795-4277-8F7A-A75C7AD12C73";
shapes = (
{
closed = 1;
nodes = (
(79,703,l),
(219,549,l),
(265,590,l),
(144,755,l)
);
}
);
width = 247;
},
{
layerId = "7040E9A1-72E8-429E-817E-85B6EE6706A0";
shapes = (
{
closed = 1;
nodes = (
(83,679,l),
(203,548,l),
(219,563,l),
(116,705,l)
);
}
);
width = 211;
}
);
unicode = 96;
},
{
glyphname = a;
layers = (
{
anchors = (
{
name = m.uni0324_3;
position = "{239, 0}";
},
{
name = t.uni0308_1_3;
position = "{311, 512}";
},
{
name = m.uni0328_2;
position = "{541, 50}";
}
);
layerId = "D37495DA-15D9-4303-B971-3AA975198D58";
shapes = (
{
closed = 1;
nodes = (
(143,516,o),
(26,393,o),
(26,218,cs),
(26,96,o),
(95,-16,o),
(225,-16,cs),
(344,-16,o),
(423,76,o),
(442,186,c),
(355,219,l),
(345,172,o),
(309,129,o),
(258,129,cs),
(209,129,o),
(194,181,o),
(194,221,cs),
(194,302,o),
(232,373,o),
(326,373,cs),
(362,373,o),
(397,360,o),
(427,341,c),
(514,451,l),
(454,498,o),
(399,516,o),
(324,516,cs)
);
},
{
closed = 1;
nodes = (
(346,138,ls),
(334,39,o),
(399,-16,o),
(529,-16,c),
(545,119,l),
(520,119,o),
(508,128,o),
(510,147,cs),
(550,462,l),
(501,483,o),
(448,499,o),
(390,510,c)
);
}
);
width = 587;
},
{
anchors = (
{
name = m.uni0324_3;
position = "{245, 0}";
},
{
name = t.uni0308_1_3;
position = "{330, 512}";
},
{
name = m.uni0328_2;
position = "{563, 62}";
}
);
layerId = "7ECE30C0-9795-4277-8F7A-A75C7AD12C73";
shapes = (
{
closed = 1;
nodes = (
(151,513,o),
(35,387,o),
(35,214,cs),
(35,95,o),
(111,-11,o),
(234,-13,cs),
(342,-14,o),
(433,71,o),
(451,175,c),
(398,193,l),
(388,119,o),
(320,61,o),
(246,61,cs),
(159,61,o),
(119,137,o),
(119,214,cs),
(119,341,o),
(191,439,o),
(322,439,cs),
(352,439,o),
(418,436,o),
(444,420,c),
(488,484,l),
(440,507,o),
(382,513,o),
(328,513,cs)
);
},
{
closed = 1;
nodes = (
(386,99,ls),
(377,26,o),
(416,-13,o),
(498,-13,c),
(508,63,l),
(480,63,o),
(466,75,o),
(469,99,cs),
(514,473,l),
(495,484,o),
(469,493,o),
(435,502,c)
);
}
);
width = 563;
},
{
anchors = (
{
name = m.uni0324_3;
position = "{245, 0}";
},
{
name = t.uni0308_1_3;
position = "{330, 512}";
},
{
name = m.uni0328_2;
position = "{563, 62}";
}
);
layerId = "7040E9A1-72E8-429E-817E-85B6EE6706A0";
shapes = (
{
closed = 1;
nodes = (
(155,510,o),
(42,373,o),
(42,207,cs),
(42,89,o),
(109,-10,o),
(235,-10,cs),
(342,-10,o),
(420,64,o),
(446,164,c),
(418,170,l),
(400,84,o),
(319,25,o),
(233,25,cs),
(130,25,o),
(81,113,o),
(81,204,cs),
(81,352,o),
(173,475,o),
(328,475,cs),
(363,475,o),
(422,467,o),
(453,452,c),
(477,478,l),
(435,498,o),
(374,510,o),
(328,510,cs)
);
},
{
closed = 1;
nodes = (
(408,72,ls),
(402,19,o),
(429,-10,o),
(487,-10,c),
(493,22,l),
(458,22,o),
(441,40,o),
(445,72,cs),
(492,473,l),
(484,477,o),
(472,482,o),
(456,487,c)
);
}
);
width = 557;
}
);
leftKerningGroup = a2;
rightKerningGroup = a;
unicode = 97;
},
{
glyphname = b;
layers = (
{
anchors = (
{
name = m.uni0324_3;
position = "{284, 0}";
},
{
name = t.uni0308_1_3;
position = "{193, 732}";
},
{
name = t.uni0335_4;
position = "{312, 250}";
}
);
layerId = "D37495DA-15D9-4303-B971-3AA975198D58";
shapes = (
{
closed = 1;
nodes = (
(186,-9,l),
(139,-3,o),
(94,2,o),
(51,13,c),
(40,17,o),
(31,19,o),
(24,22,c),
(110,731,l),
(275,731,l)
);
},
{
closed = 1;
nodes = (
(166,-16,o),
(112,5,o),
(61,45,c),
(148,156,l),
(175,139,o),
(218,128,o),
(250,128,cs),
(331,128,o),
(371,177,o),
(381,257,cs),
(384,283,o),
(384,305,o),
(379,324,cs),
(370,361,o),
(347,381,o),
(318,381,cs),
(297,381,o),
(278,373,o),
(259,357,cs),
(240,341,o),
(227,319,o),
(221,291,c),
(133,324,l),
(140,365,o),
(154,401,o),
(175,432,cs),
(218,493,o),
(282,527,o),
(351,527,cs),
(395,527,o),
(433,515,o),
(465,491,cs),
(529,442,o),
(561,353,o),
(549,250,cs),
(530,75,o),
(417,-16,o),
(241,-16,cs)
);
}
);
width = 575;
},
{
anchors = (
{
name = m.uni0324_3;
position = "{337, 0}";
},
{
name = t.uni0308_1_3;
position = "{208, 734}";
},
{
name = t.uni0335_4;
position = "{354, 250}";
}
);
layerId = "7ECE30C0-9795-4277-8F7A-A75C7AD12C73";
shapes = (
{
closed = 1;
nodes = (
(121,4,l),
(110,6,o),
(89,13,o),
(58,25,cs),
(51,28,o),
(50,28,o),
(43,31,c),
(127,729,l),
(209,729,l)
);
},
{
closed = 1;
nodes = (
(159,-13,o),
(101,6,o),
(69,21,c),
(113,85,l),
(139,70,o),
(198,61,o),
(228,61,cs),
(351,61,o),
(420,138,o),
(436,258,cs),
(440,293,o),
(438,324,o),
(429,351,cs),
(412,406,o),
(371,440,o),
(315,441,cs),
(277,442,o),
(243,431,o),
(213,406,cs),
(182,381,o),
(164,349,o),
(159,312,c),
(106,330,l),
(112,365,o),
(125,396,o),
(146,425,cs),
(187,482,o),
(252,516,o),
(323,515,cs),
(366,514,o),
(403,501,o),
(435,478,cs),
(499,431,o),
(531,348,o),
(520,255,cs),
(500,93,o),
(389,-13,o),
(218,-13,cs)
);
}
);
width = 556;
},
{
anchors = (
{
name = m.uni0324_3;
position = "{339, 0}";
},
{
name = t.uni0308_1_3;
position = "{208, 734}";
},
{
name = t.uni0335_4;
position = "{354, 250}";
}
);
layerId = "7040E9A1-72E8-429E-817E-85B6EE6706A0";
shapes = (
{
closed = 1;
nodes = (
(85,13,l),
(83,14,o),
(74,17,o),
(57,22,cs),
(53,23,o),
(52,25,o),
(48,26,c),
(132,730,l),
(170,730,l)
);
},
{
closed = 1;
nodes = (
(158,-10,o),
(99,4,o),
(64,21,c),
(88,47,l),
(119,32,o),
(171,25,o),
(206,25,cs),
(349,25,o),
(440,117,o),
(458,258,cs),
(463,297,o),
(460,333,o),
(449,366,cs),
(428,430,o),
(380,471,o),
(313,472,cs),
(268,473,o),
(227,461,o),
(191,434,cs),
(155,407,o),
(132,371,o),
(123,328,c),
(95,334,l),
(104,369,o),
(119,400,o),
(140,427,cs),
(183,480,o),
(245,510,o),
(316,507,cs),
(357,506,o),
(392,494,o),
(421,471,cs),
(480,426,o),
(508,346,o),
(497,251,cs),
(479,95,o),
(366,-10,o),
(203,-10,cs)
);
}
);
width = 541;
}
);
rightKerningGroup = b;
unicode = 98;
},
{
glyphname = c;
layers = (
{
anchors = (
{
name = m.uni0324_3;
position = "{253, -12}";
},
{
name = t.uni0308_1_3;
position = "{312, 512}";
}
);
layerId = "D37495DA-15D9-4303-B971-3AA975198D58";
shapes = (
{
closed = 1;
nodes = (
(347,-16,o),
(412,8,o),
(471,58,c),
(406,167,l),
(373,139,o),
(329,124,o),
(287,124,cs),
(245,124,o),
(216,149,o),
(203,187,cs),
(196,207,o),
(194,228,o),
(197,251,cs),
(202,300,o),
(226,339,o),
(261,361,cs),
(277,371,o),
(296,377,o),
(316,377,cs),
(350,377,o),
(374,360,o),
(388,334,c),
(493,423,l),
(479,451,o),
(456,475,o),
(423,491,cs),
(389,507,o),
(352,516,o),
(311,516,cs),
(218,516,o),
(136,473,o),
(84,396,cs),
(59,359,o),
(42,316,o),
(36,266,cs),
(24,157,o),
(59,70,o),
(134,21,cs),
(171,-3,o),
(216,-16,o),
(269,-16,cs)
);
}
);
width = 525;
},
{
anchors = (
{
name = m.uni0324_3;
position = "{244, -16}";
},
{
name = t.uni0308_1_3;
position = "{319, 514}";
}
);
layerId = "7ECE30C0-9795-4277-8F7A-A75C7AD12C73";
shapes = (
{
closed = 1;
nodes = (
(320,-13,o),
(388,6,o),
(439,47,c),
(404,106,l),
(357,77,o),
(315,61,o),
(264,61,cs),
(196,61,o),
(149,96,o),
(129,151,cs),
(119,178,o),
(116,210,o),
(121,247,cs),
(130,322,o),
(166,383,o),
(219,416,cs),
(246,432,o),
(275,439,o),
(307,439,cs),
(358,439,o),
(394,422,o),
(417,391,c),
(469,440,l),
(458,459,o),
(438,476,o),
(409,491,cs),
(380,506,o),
(349,513,o),
(317,513,cs),
(220,513,o),
(136,468,o),
(85,388,cs),
(59,348,o),
(43,302,o),
(37,251,cs),
(25,148,o),
(59,65,o),
(130,21,cs),
(165,-1,o),
(207,-13,o),
(255,-13,cs)
);
}
);
width = 494;
},
{
anchors = (
{
name = m.uni0324_3;
position = "{244, -16}";
},
{
name = t.uni0308_1_3;
position = "{319, 514}";
}
);
layerId = "7040E9A1-72E8-429E-817E-85B6EE6706A0";
shapes = (
{
closed = 1;
nodes = (
(313,-10,o),
(376,9,o),
(429,49,c),
(412,77,l),
(367,45,o),
(311,25,o),
(260,25,cs),
(177,25,o),
(119,60,o),
(94,128,cs),
(81,162,o),
(78,202,o),
(84,248,cs),
(95,337,o),
(138,410,o),
(203,448,cs),
(235,467,o),
(270,475,o),
(309,475,cs),
(362,475,o),
(400,461,o),
(432,425,c),
(457,448,l),
(441,469,o),
(420,484,o),
(395,495,cs),
(369,506,o),
(339,510,o),
(306,510,cs),
(221,510,o),
(142,467,o),
(91,388,cs),
(66,349,o),
(50,303,o),
(44,252,cs),
(32,147,o),
(62,65,o),
(129,22,cs),
(162,0,o),
(203,-10,o),
(252,-10,cs)
);
}
);
width = 489;
}
);
leftKerningGroup = a2;
rightKerningGroup = c;
unicode = 99;
},
{
glyphname = d;
layers = (
{
anchors = (
{
name = m.uni0324_3;
position = "{239, 0}";
},
{
name = t.uni0308_1_3;
position = "{497, 732}";
},
{
name = t.uni0335_4;
position = "{456, 610}";
},
{
name = t.uni030C.alt_4;
position = "{538, 500}";
}
);
layerId = "D37495DA-15D9-4303-B971-3AA975198D58";
shapes = (
{
closed = 1;
nodes = (
(416,730,l),
(582,730,l),
(497,0,l),
(372,0,l),
(347,163,l)
);
},
{
closed = 1;
nodes = (
(410,526,o),
(464,502,o),
(515,462,c),
(428,351,l),
(414,360,o),
(398,367,o),
(380,374,cs),
(362,380,o),
(344,383,o),
(326,383,cs),
(303,383,o),
(282,378,o),
(263,367,cs),
(226,346,o),
(202,305,o),
(195,250,cs),
(190,204,o),
(195,130,o),
(258,130,cs),
(309,130,o),
(345,169,o),
(355,216,c),
(443,183,l),
(424,73,o),
(344,-16,o),
(225,-16,cs),
(76,-16,o),
(11,123,o),
(27,257,cs),
(33,312,o),
(50,361,o),
(78,402,cs),
(134,485,o),
(226,530,o),
(335,527,cs)
);
}
);
width = 593;
},
{
anchors = (
{
name = m.uni0324_3;
position = "{244, -10}";
},
{
name = t.uni0308_1_3;
position = "{495, 732}";
},
{
name = t.uni0335_4;
position = "{441, 614}";
},
{
name = t.uni030C.alt_4;
position = "{557, 500}";
}
);
layerId = "7ECE30C0-9795-4277-8F7A-A75C7AD12C73";
shapes = (
{
closed = 1;
nodes = (
(465,730,l),
(548,730,l),
(458,0,l),
(394,0,l),
(392,136,l)
);
},
{
closed = 1;
nodes = (
(398,517,o),
(456,499,o),
(488,484,c),
(444,420,l),
(434,426,o),
(417,431,o),
(394,436,cs),
(371,441,o),
(349,443,o),
(329,444,cs),
(291,445,o),
(257,438,o),
(228,423,cs),
(169,394,o),
(132,332,o),
(121,247,cs),
(112,164,o),
(141,61,o),
(242,61,cs),
(317,61,o),
(388,117,o),
(398,193,c),
(451,175,l),
(433,70,o),
(343,-13,o),
(234,-13,cs),
(95,-13,o),
(22,119,o),
(37,250,cs),
(44,307,o),
(61,356,o),
(88,397,cs),
(143,479,o),
(232,521,o),
(339,518,cs)
);
}
);
width = 573;
},
{
anchors = (
{
name = m.uni0324_3;
position = "{244, -10}";
},
{
name = t.uni0308_1_3;
position = "{495, 732}";
},
{
name = t.uni0335_4;
position = "{441, 614}";
},
{
name = t.uni030C.alt_4;
position = "{557, 500}";
}
);
layerId = "7040E9A1-72E8-429E-817E-85B6EE6706A0";
shapes = (
{
closed = 1;
nodes = (
(486,730,l),
(524,730,l),
(436,0,l),
(405,0,l),
(413,131,l)
);
},
{
closed = 1;
nodes = (
(382,505,o),
(441,490,o),
(476,473,c),
(452,447,l),
(437,454,o),
(418,459,o),
(395,463,cs),
(372,467,o),
(351,470,o),
(334,470,cs),
(285,470,o),
(242,462,o),
(206,441,cs),
(133,399,o),
(93,323,o),
(82,236,cs),
(70,139,o),
(112,25,o),
(227,25,cs),
(315,25,o),
(399,78,o),
(417,166,c),
(445,160,l),
(418,57,o),
(335,-10,o),
(224,-10,cs),
(87,-10,o),
(29,118,o),
(43,243,cs),
(49,296,o),
(65,342,o),
(92,382,cs),
(144,462,o),
(232,505,o),
(337,505,cs)
);
}
);
width = 557;
}
);
leftKerningGroup = a2;
rightKerningGroup = a;
unicode = 100;
},
{
glyphname = e;
layers = (
{
anchors = (
{
name = m.uni0324_3;
position = "{265, -12}";
},
{
name = t.uni0308_1_3;
position = "{330, 512}";
},
{
name = m.uni0328_2;
position = "{495, 67}";
}
);
layerId = "D37495DA-15D9-4303-B971-3AA975198D58";
shapes = (
{
closed = 1;
nodes = (
(197,297,l),
(220,295,o),
(264,295,o),
(286,298,c),
(335,305,o),
(357,320,o),
(362,350,cs),
(365,368,o),
(346,384,o),
(322,384,cs),
(305,384,o),
(290,378,o),
(275,367,cs),
(245,345,o),
(223,302,o),
(216,244,cs),
(212,214,o),
(216,186,o),
(227,162,cs),
(238,138,o),
(256,125,o),
(284,125,cs),
(330,125,o),
(388,150,o),
(420,181,c),
(489,71,l),
(426,14,o),
(352,-15,o),
(271,-14,cs),
(222,-13,o),
(180,-1,o),
(146,20,cs),
(75,64,o),
(41,147,o),
(54,255,cs),
(60,306,o),
(78,353,o),
(104,392,cs),
(158,473,o),
(241,517,o),
(334,516,cs),
(374,515,o),
(408,507,o),
(437,491,cs),
(494,459,o),
(523,402,o),
(515,335,cs),
(511,303,o),
(500,275,o),
(480,252,cs),
(441,205,o),
(374,178,o),
(289,178,c),
(274,179,o),
(259,179,o),
(244,179,cs),
(226,179,o),
(208,179,o),
(192,182,c)
);
}
);
width = 563;
},
{
anchors = (
{
name = m.uni0324_3;
position = "{256, -1}";
},
{
name = t.uni0308_1_3;
position = "{324, 512}";
},
{
name = m.uni0328_2;
position = "{504, 64}";
}
);
layerId = "7ECE30C0-9795-4277-8F7A-A75C7AD12C73";
shapes = (
{
closed = 1;
nodes = (
(130,268,l),
(158,264,o),
(194,261,o),
(221,261,cs),
(344,261,o),
(407,293,o),
(415,357,cs),
(421,405,o),
(388,439,o),
(331,439,cs),
(300,439,o),
(271,431,o),
(244,415,cs),
(188,383,o),
(150,323,o),
(143,247,cs),
(137,189,o),
(145,143,o),
(165,111,cs),
(186,78,o),
(222,61,o),
(274,61,cs),
(326,61,o),
(381,80,o),
(433,117,c),
(470,58,l),
(414,14,o),
(337,-13,o),
(268,-13,cs),
(220,-13,o),
(179,-2,o),
(145,19,cs),
(78,62,o),
(46,141,o),
(58,244,cs),
(64,295,o),
(81,342,o),
(106,382,cs),
(158,464,o),
(240,513,o),
(332,513,cs),
(367,513,o),
(399,506,o),
(425,492,cs),
(479,463,o),
(506,409,o),
(499,349,cs),
(495,315,o),
(481,286,o),
(458,261,cs),
(410,211,o),
(327,183,o),
(219,187,c),
(201,189,o),
(183,191,o),
(165,192,cs),
(152,193,o),
(141,195,o),
(130,195,c)
);
}
);
width = 547;
},
{
anchors = (
{
name = m.uni0324_3;
position = "{256, -1}";
},
{
name = t.uni0308_1_3;
position = "{324, 512}";
},
{
name = m.uni0328_2;
position = "{504, 64}";
}
);
layerId = "7040E9A1-72E8-429E-817E-85B6EE6706A0";
shapes = (
{
closed = 1;
nodes = (
(91,252,l),
(140,248,o),
(179,245,o),
(244,245,c),
(361,242,o),
(438,286,o),
(447,363,cs),
(455,429,o),
(409,475,o),
(335,475,cs),
(297,475,o),
(261,464,o),
(227,444,cs),
(160,403,o),
(111,328,o),
(102,244,cs),
(94,169,o),
(104,114,o),
(133,79,cs),
(163,44,o),
(207,25,o),
(267,25,cs),
(331,25,o),
(385,47,o),
(438,84,c),
(456,56,l),
(392,10,o),
(336,-10,o),
(266,-10,cs),
(217,-10,o),
(176,-1,o),
(143,19,cs),
(77,58,o),
(48,136,o),
(61,241,cs),
(67,291,o),
(83,337,o),
(108,378,cs),
(160,460,o),
(242,510,o),
(334,510,cs),
(367,510,o),
(396,505,o),
(422,491,cs),
(470,466,o),
(495,418,o),
(487,360,cs),
(483,328,o),
(471,301,o),
(451,278,cs),
(410,233,o),
(337,209,o),
(244,209,cs),
(222,209,o),
(191,210,o),
(148,213,c),
(123,216,o),
(118,215,o),
(95,218,c)
);
}
);
width = 535;
}
);
leftKerningGroup = a2;
rightKerningGroup = b;
unicode = 101;
},
{
glyphname = f;
layers = (
{
anchors = (
{
name = m.uni0324_3;
position = "{139, 10}";
},
{
name = t.uni0308_1_3;
position = "{319, 728}";
}
);
layerId = "D37495DA-15D9-4303-B971-3AA975198D58";
shapes = (
{
closed = 1;
nodes = (
(45,500,l),
(395,500,l),
(380,373,l),
(30,373,l)
);
},
{
closed = 1;
nodes = (
(113,565,ls),
(128,682,o),
(206,747,o),
(309,747,cs),
(366,747,o),
(414,727,o),
(453,686,c),
(366,575,l),
(357,585,o),
(345,590,o),
(332,590,cs),
(301,590,o),
(280,570,o),
(277,542,cs),
(178,-259,l),
(12,-259,l)
);
}
);
width = 379;
},
{
anchors = (
{
name = m.uni0324_3;
position = "{175, 12}";
},
{
name = t.uni0308_1_3;
position = "{348, 726}";
}
);
layerId = "7ECE30C0-9795-4277-8F7A-A75C7AD12C73";
shapes = (
{
closed = 1;
nodes = (
(47,500,l),
(352,500,l),
(343,426,l),
(38,426,l)
);
},
{
closed = 1;
nodes = (
(135,582,ls),
(148,687,o),
(208,741,o),
(299,741,cs),
(342,741,o),
(378,729,o),
(405,704,c),
(361,643,l),
(346,656,o),
(327,663,o),
(304,663,cs),
(259,663,o),
(225,642,o),
(217,574,cs),
(115,-260,l),
(32,-260,l)
);
}
);
width = 333;
},
{
anchors = (
{
name = m.uni0324_3;
position = "{175, 12}";
},
{
name = t.uni0308_1_3;
position = "{348, 726}";
}
);
layerId = "7040E9A1-72E8-429E-817E-85B6EE6706A0";
shapes = (
{
closed = 1;
nodes = (
(43,500,l),
(305,500,l),
(301,466,l),
(39,466,l)
);
},
{
closed = 1;
nodes = (
(128,596,ls),
(140,692,o),
(193,741,o),
(277,741,cs),
(311,741,o),
(339,732,o),
(360,715,c),
(341,686,l),
(326,699,o),
(305,705,o),
(279,705,cs),
(215,705,o),
(175,667,o),
(166,594,cs),
(61,-260,l),
(23,-260,l)
);
}
);
width = 291;
}
);
leftKerningGroup = f2;
rightKerningGroup = f;
unicode = 102;
},
{
glyphname = g;
layers = (
{
anchors = (
{
name = m.uni0324_3;
position = "{372, -273}";
},
{
name = t.uni0308_1_3;
position = "{341, 512}";
}
);
layerId = "D37495DA-15D9-4303-B971-3AA975198D58";
shapes = (
{
closed = 1;
nodes = (
(427,347,l),
(397,366,o),
(361,372,o),
(325,372,cs),
(233,372,o),
(192,299,o),
(192,214,cs),
(192,174,o),
(208,122,o),
(257,122,cs),
(308,122,o),
(344,165,o),
(354,212,c),
(442,179,l),
(423,69,o),
(343,-24,o),
(224,-24,cs),
(93,-24,o),
(24,89,o),
(24,211,cs),
(24,388,o),
(140,516,o),
(324,516,cs),
(399,516,o),
(455,505,o),
(514,458,c)
);
},
{
closed = 1;
nodes = (
(166,-289,o),
(92,-247,o),
(43,-184,c),
(149,-82,l),
(188,-123,o),
(225,-154,o),
(266,-154,cs),
(279,-154,o),
(291,-148,o),
(300,-135,cs),
(309,-122,o),
(315,-104,o),
(318,-82,cs),
(389,511,l),
(451,502,o),
(493,492,o),
(550,468,c),
(483,-79,ls),
(476,-142,o),
(454,-193,o),
(417,-232,cs),
(380,-270,o),
(328,-289,o),
(262,-289,cs)
);
}
);
width = 574;
},
{
anchors = (
{
name = m.uni0324_3;
position = "{429, -280}";
},
{
name = t.uni0308_1_3;
position = "{402, 514}";
}
);
layerId = "7ECE30C0-9795-4277-8F7A-A75C7AD12C73";
shapes = (
{
closed = 1;
nodes = (
(444,415,l),
(418,431,o),
(352,439,o),
(322,439,cs),
(188,439,o),
(119,335,o),
(119,212,cs),
(119,137,o),
(162,62,o),
(246,62,cs),
(320,62,o),
(388,117,o),
(398,191,c),
(451,173,l),
(433,69,o),
(345,-12,o),
(237,-12,cs),
(113,-12,o),
(35,93,o),
(35,212,cs),
(35,384,o),
(150,513,o),
(328,513,cs),
(382,513,o),
(440,505,o),
(488,482,c)
);
},
{
closed = 1;
nodes = (
(156,-273,o),
(93,-245,o),
(44,-186,c),
(95,-134,l),
(142,-181,o),
(181,-198,o),
(234,-198,cs),
(283,-198,o),
(316,-188,o),
(333,-169,cs),
(350,-150,o),
(360,-124,o),
(364,-92,cs),
(435,497,l),
(463,488,o),
(487,484,o),
(515,473,c),
(444,-103,ls),
(437,-156,o),
(418,-197,o),
(387,-227,cs),
(355,-257,o),
(302,-272,o),
(229,-273,cs)
);
}
);
width = 556;
},
{
anchors = (
{
name = m.uni0324_3;
position = "{429, -280}";
},
{
name = t.uni0308_1_3;
position = "{402, 514}";
}
);
layerId = "7040E9A1-72E8-429E-817E-85B6EE6706A0";
shapes = (
{
closed = 1;
nodes = (
(453,452,l),
(413,470,o),
(373,478,o),
(335,478,cs),
(197,478,o),
(81,368,o),
(81,204,cs),
(81,116,o),
(134,27,o),
(233,26,cs),
(319,26,o),
(400,84,o),
(418,170,c),
(446,164,l),
(420,64,o),
(342,-9,o),
(235,-9,cs),
(110,-9,o),
(42,86,o),
(42,207,cs),
(42,374,o),
(153,510,o),
(328,510,cs),
(375,510,o),
(435,498,o),
(477,478,c)
);
},
{
closed = 1;
nodes = (
(172,-276,o),
(115,-251,o),
(67,-195,c),
(93,-170,l),
(133,-217,o),
(187,-242,o),
(243,-242,cs),
(285,-242,o),
(317,-232,o),
(340,-212,cs),
(363,-191,o),
(376,-162,o),
(381,-123,cs),
(455,487,l),
(466,483,o),
(481,478,o),
(491,473,c),
(418,-133,ls),
(413,-178,o),
(395,-213,o),
(364,-238,cs),
(333,-263,o),
(292,-276,o),
(241,-276,cs)
);
}
);
width = 538;
}
);
leftKerningGroup = a2;
rightKerningGroup = g;
unicode = 103;
},
{
glyphname = h;
layers = (
{
layerId = "72F2C4CE-1E46-4734-8615-AE1624273D46";
name = "#instance";
shapes = (
{
closed = 1;
nodes = (
(126,730,l),
(205,730,l),
(116,0,l),
(36,0,l)
);
},
{
closed = 1;
nodes = (
(414,306,ls),
(425,393,o),
(394,439,o),
(315,439,cs),
(284,439,o),
(255,430,o),
(226,411,cs),
(197,392,o),
(172,363,o),
(150,327,c),
(118,365,l),
(145,410,o),
(178,445,o),
(217,472,cs),
(256,498,o),
(296,511,o),
(337,511,cs),
(376,511,o),
(407,502,o),
(433,486,cs),
(484,453,o),
(505,392,o),
(495,315,cs),
(454,0,l),
(375,0,l)
);
}
);
width = 557;
},
{
layerId = "D37495DA-15D9-4303-B971-3AA975198D58";
shapes = (
{
closed = 1;
nodes = (
(115,730,l),
(280,730,l),
(190,0,l),
(25,0,l)
);
},
{
closed = 1;
nodes = (
(377,303,ls),
(384,346,o),
(368,375,o),
(325,375,cs),
(304,375,o),
(285,369,o),
(268,358,cs),
(251,347,o),
(237,331,o),
(228,311,c),
(167,378,l),
(192,424,o),
(223,460,o),
(261,486,cs),
(299,511,o),
(339,524,o),
(380,524,cs),
(417,524,o),
(450,515,o),
(477,496,cs),
(531,458,o),
(557,392,o),
(546,320,cs),
(501,0,l),
(334,0,l)
);
}
);
width = 594;
},
{
layerId = "7ECE30C0-9795-4277-8F7A-A75C7AD12C73";
shapes = (
{
closed = 1;
nodes = (
(127,727,l),
(209,727,l),
(120,0,l),
(38,0,l)
);
},
{
closed = 1;
nodes = (
(426,307,ls),
(437,399,o),
(406,440,o),
(325,440,cs),
(294,440,o),
(263,428,o),
(231,405,cs),
(198,382,o),
(174,354,o),
(157,322,c),
(123,364,l),
(146,407,o),
(178,442,o),
(217,471,cs),
(256,500,o),
(296,514,o),
(337,514,cs),
(376,514,o),
(409,506,o),
(437,490,cs),
(492,458,o),
(519,397,o),
(510,321,cs),
(471,0,l),
(389,0,l)
);
}
);
width = 574;
},
{
layerId = "7040E9A1-72E8-429E-817E-85B6EE6706A0";
shapes = (
{
closed = 1;
nodes = (
(131,730,l),
(169,730,l),
(80,0,l),
(42,0,l)
);
},
{
closed = 1;
nodes = (
(432,307,ls),
(445,416,o),
(407,470,o),
(310,470,cs),
(275,470,o),
(241,459,o),
(206,436,cs),
(171,413,o),
(140,379,o),
(113,335,c),
(94,358,l),
(122,403,o),
(156,438,o),
(196,465,cs),
(235,491,o),
(276,504,o),
(317,504,cs),
(356,504,o),
(387,496,o),
(412,481,cs),
(461,450,o),
(480,392,o),
(471,312,cs),
(432,0,l),
(394,0,l)
);
}
);
width = 539;
}
);
rightKerningGroup = h;
unicode = 104;
},
{
glyphname = k;
layers = (
{
anchors = (
{
name = m.uni0324_3;
position = "{245, 0}";
},
{
name = t.uni0308_1_3;
position = "{203, 731}";
}
);
layerId = "D37495DA-15D9-4303-B971-3AA975198D58";
shapes = (
{
closed = 1;
nodes = (
(115,730,l),
(281,730,l),
(191,-2,l),
(25,-2,l)
);
},
{
closed = 1;
nodes = (
(538,-1,l),
(347,-1,l),
(248,227,l),
(375,310,l)
);
},
{
closed = 1;
nodes = (
(378,500,l),
(579,500,l),
(127,30,l),
(154,265,l)
);
}
);
width = 571;
},
{
anchors = (
{
name = m.uni0324_3;
position = "{258, 7}";
},
{
name = t.uni0308_1_3;
position = "{225, 731}";
}
);
layerId = "7ECE30C0-9795-4277-8F7A-A75C7AD12C73";
shapes = (
{
closed = 1;
nodes = (
(127,730,l),
(210,730,l),
(121,-1,l),
(38,-1,l)
);
},
{
closed = 1;
nodes = (
(476,-1,l),
(383,-1,l),
(238,283,l),
(306,327,l)
);
},
{
closed = 1;
nodes = (
(406,500,l),
(513,500,l),
(122,144,l),
(134,254,l)
);
}
);
width = 518;
},
{
anchors = (
{
name = m.uni0324_3;
position = "{258, 7}";
},
{
name = t.uni0308_1_3;
position = "{225, 731}";
}
);
layerId = "7040E9A1-72E8-429E-817E-85B6EE6706A0";
shapes = (
{
closed = 1;
nodes = (
(130,730,l),
(168,730,l),
(79,0,l),
(41,0,l)
);
},
{
closed = 1;
nodes = (
(441,0,l),
(397,0,l),
(236,308,l),
(272,327,l)
);
},
{
closed = 1;
nodes = (
(414,500,l),
(468,500,l),
(77,128,l),
(86,188,l)
);
}
);
width = 488;
}
);
unicode = 107;
},
{
glyphname = l;
layers = (
{
anchors = (
{
name = m.uni0324_3;
position = "{109, 0}";
},
{
name = t.uni0308_1_3;
position = "{198, 728}";
},
{
name = t.uni0335_4;
position = "{156, 399}";
},
{
name = t.uni030C.alt_4;
position = "{248, 471}";
}
);
layerId = "D37495DA-15D9-4303-B971-3AA975198D58";
shapes = (
{
closed = 1;
nodes = (
(257,120,l),
(227,120,o),
(209,134,o),
(212,158,cs),
(281,730,l),
(116,730,l),
(45,149,ls),
(31,36,o),
(89,-16,o),
(230,-16,c)
);
}
);
width = 277;
},
{
anchors = (
{
name = m.uni0324_3;
position = "{122, -1}";
},
{
name = t.uni0308_1_3;
position = "{211, 728}";
},
{
name = t.uni0335_4;
position = "{168, 409}";
},
{
name = t.uni030C.alt_4;
position = "{273, 471}";
}
);
layerId = "7ECE30C0-9795-4277-8F7A-A75C7AD12C73";
shapes = (
{
closed = 1;
nodes = (
(184,56,l),
(146,56,o),
(129,72,o),
(133,108,cs),
(208,730,l),
(127,730,l),
(50,105,ls),
(40,22,o),
(74,-12,o),
(171,-12,c)
);
}
);
width = 215;
},
{
anchors = (
{
name = m.uni0324_3;
position = "{129, -1}";
},
{
name = t.uni0308_1_3;
position = "{218, 728}";
},
{
name = t.uni0335_4;
position = "{175, 414}";
},
{
name = t.uni030C.alt_4;
position = "{286, 471}";
}
);
layerId = "7040E9A1-72E8-429E-817E-85B6EE6706A0";
shapes = (
{
closed = 1;
nodes = (
(146,22,l),
(103,22,o),
(87,40,o),
(92,82,cs),
(170,730,l),
(132,730,l),
(52,82,ls),
(44,14,o),
(66,-10,o),
(140,-10,c)
);
}
);
width = 183;
}
);
unicode = 108;
},
{
glyphname = m;
layers = (
{
layerId = "72F2C4CE-1E46-4734-8615-AE1624273D46";
name = "#instance";
shapes = (
{
closed = 1;
nodes = (
(689,0,l),
(768,0,l),
(813,343,ls),
(822,414,o),
(795,465,o),
(747,491,cs),
(723,504,o),
(696,510,o),
(665,510,cs),
(625,510,o),
(588,501,o),
(556,482,cs),
(523,463,o),
(494,434,o),
(468,398,c),
(486,340,l),
(526,405,o),
(580,438,o),
(645,438,cs),
(711,438,o),
(741,402,o),
(731,333,c)
);
},
{
closed = 1;
nodes = (
(369,0,l),
(448,0,l),
(493,359,ls),
(501,422,o),
(471,469,o),
(424,493,c),
(400,504,o),
(374,510,o),
(346,510,cs),
(304,510,o),
(267,501,o),
(235,483,cs),
(202,465,o),
(174,439,o),
(150,404,c),
(166,343,l),
(180,371,o),
(202,393,o),
(231,412,c),
(260,429,o),
(289,438,o),
(320,438,cs),
(388,438,o),
(417,396,o),
(408,322,cs)
);
},
{
closed = 1;
nodes = (
(169,359,l),
(166,500,l),
(105,500,l),
(46,0,l),
(126,0,l)
);
}
);
width = 876;
},
{
layerId = "D37495DA-15D9-4303-B971-3AA975198D58";
shapes = (
{
closed = 1;
nodes = (
(651,0,l),
(816,0,l),
(864,347,ls),
(875,431,o),
(837,483,o),
(786,506,cs),
(761,517,o),
(736,523,o),
(712,523,cs),
(668,523,o),
(631,515,o),
(601,500,cs),
(570,485,o),
(539,460,o),
(508,425,c),
(550,322,l),
(575,357,o),
(612,374,o),
(652,374,cs),
(687,374,o),
(699,356,o),
(692,309,cs)
);
},
{
closed = 1;
nodes = (
(345,0,l),
(511,0,l),
(554,347,ls),
(565,431,o),
(526,483,o),
(475,506,cs),
(450,517,o),
(425,523,o),
(401,523,cs),
(357,523,o),
(320,515,o),
(290,500,cs),
(259,485,o),
(228,460,o),
(197,425,c),
(239,322,l),
(251,339,o),
(266,352,o),
(283,361,cs),
(300,370,o),
(317,374,o),
(336,374,cs),
(375,374,o),
(388,354,o),
(383,309,cs)
);
},
{
closed = 1;
nodes = (
(242,337,l),
(217,500,l),
(92,500,l),
(36,0,l),
(202,0,l)
);
}
);
width = 909;
},
{
layerId = "7ECE30C0-9795-4277-8F7A-A75C7AD12C73";
shapes = (
{
closed = 1;
nodes = (
(669,0,l),
(750,0,l),
(794,338,ls),
(803,414,o),
(778,468,o),
(727,494,cs),
(702,507,o),
(671,513,o),
(636,513,cs),
(601,513,o),
(568,503,o),
(536,483,cs),
(503,463,o),
(475,435,o),
(450,398,c),
(477,335,l),
(518,404,o),
(570,439,o),
(634,439,cs),
(687,439,o),
(719,401,o),
(711,340,cs)
);
},
{
closed = 1;
nodes = (
(357,0,l),
(439,0,l),
(483,356,ls),
(492,428,o),
(459,475,o),
(408,497,cs),
(383,508,o),
(356,513,o),
(328,513,cs),
(298,513,o),
(268,505,o),
(238,490,cs),
(207,474,o),
(181,450,o),
(158,419,c),
(170,340,l),
(182,369,o),
(202,392,o),
(231,411,cs),
(259,430,o),
(289,439,o),
(322,439,cs),
(379,439,o),
(406,400,o),
(397,328,cs)
);
},
{
closed = 1;
nodes = (
(173,364,l),
(171,500,l),
(107,500,l),
(45,0,l),
(128,0,l)
);
}
);
width = 855;
},
{
layerId = "7040E9A1-72E8-429E-817E-85B6EE6706A0";
shapes = (
{
closed = 1;
nodes = (
(707,0,l),
(745,0,l),
(788,341,ls),
(796,406,o),
(775,457,o),
(728,484,cs),
(705,497,o),
(676,504,o),
(643,504,cs),
(604,504,o),
(567,494,o),
(534,473,cs),
(501,452,o),
(472,422,o),
(449,385,c),
(455,349,l),
(503,428,o),
(564,469,o),
(641,469,cs),
(722,469,o),
(761,424,o),
(750,344,cs)
);
},
{
closed = 1;
nodes = (
(380,0,l),
(418,0,l),
(463,365,ls),
(470,417,o),
(445,462,o),
(399,486,cs),
(376,498,o),
(349,504,o),
(319,504,cs),
(278,504,o),
(241,494,o),
(208,475,cs),
(175,456,o),
(148,429,o),
(127,394,c),
(131,353,l),
(146,386,o),
(171,413,o),
(206,436,cs),
(241,458,o),
(276,469,o),
(313,469,cs),
(394,469,o),
(431,416,o),
(420,328,cs)
);
},
{
closed = 1;
nodes = (
(134,369,l),
(142,500,l),
(111,500,l),
(51,0,l),
(89,0,l)
);
}
);
width = 860;
}
);
leftKerningGroup = m;
rightKerningGroup = h;
unicode = 109;
},
{
glyphname = n;
layers = (
{
anchors = (
{
name = m.uni0324_3;
position = "{300, 0}";
},
{
name = t.uni0308_1_3;
position = "{364, 506}";
},
{
name = t.uni0335_4;
position = "{456, 610}";
},
{
name = t.uni030C.alt_4;
position = "{538, 500}";
}
);
layerId = "D37495DA-15D9-4303-B971-3AA975198D58";
shapes = (
{
closed = 1;
nodes = (
(386,301,ls),
(393,344,o),
(377,373,o),
(334,373,cs),
(313,373,o),
(294,367,o),
(277,356,cs),
(260,345,o),
(246,329,o),
(237,309,c),
(176,376,l),
(201,422,o),
(232,458,o),
(270,484,cs),
(308,509,o),
(348,522,o),
(389,522,cs),
(426,522,o),
(459,513,o),
(486,494,cs),
(540,456,o),
(566,390,o),
(555,318,cs),
(509,0,l),
(340,1,l)
);
},
{
closed = 1;
nodes = (
(187,0,l),
(21,0,l),
(92,500,l),
(217,500,l),
(242,337,l)
);
}
);
width = 603;
},
{
anchors = (
{
name = m.uni0324_3;
position = "{340, 0}";
},
{
name = t.uni0308_1_3;
position = "{399, 514}";
},
{
name = t.uni0335_4;
position = "{441, 614}";
},
{
name = t.uni030C.alt_4;
position = "{557, 500}";
}
);
layerId = "7ECE30C0-9795-4277-8F7A-A75C7AD12C73";
shapes = (
{
closed = 1;
nodes = (
(432,305,ls),
(443,397,o),
(412,438,o),
(331,438,cs),
(300,438,o),
(269,426,o),
(237,403,cs),
(204,380,o),
(180,352,o),
(163,320,c),
(129,362,l),
(152,405,o),
(184,440,o),
(223,469,cs),
(262,498,o),
(302,512,o),
(343,512,cs),
(382,512,o),
(415,504,o),
(443,488,cs),
(498,456,o),
(525,395,o),
(516,319,cs),
(476,0,l),
(394,0,l)
);
},
{
closed = 1;
nodes = (
(113,0,l),
(30,0,l),
(107,500,l),
(171,500,l),
(173,364,l)
);
}
);
width = 580;
},
{
anchors = (
{
name = m.uni0324_3;
position = "{340, 0}";
},
{
name = t.uni0308_1_3;
position = "{399, 514}";
},
{
name = t.uni0335_4;
position = "{115, 99}";
},
{
name = t.uni030C.alt_4;
position = "{-1, 213}";
}
);
layerId = "7040E9A1-72E8-429E-817E-85B6EE6706A0";
shapes = (
{
closed = 1;
nodes = (
(441,307,ls),
(454,416,o),
(416,470,o),
(319,470,cs),
(284,470,o),
(250,459,o),
(215,436,cs),
(180,413,o),
(149,379,o),
(122,335,c),
(103,358,l),
(131,403,o),
(165,438,o),
(205,465,cs),
(244,491,o),
(285,504,o),
(326,504,cs),
(365,504,o),
(396,496,o),
(421,481,cs),
(470,450,o),
(489,392,o),
(480,312,cs),
(442,0,l),
(404,0,l)
);
},
{
closed = 1;
nodes = (
(74,0,l),
(36,0,l),
(111,500,l),
(142,500,l),
(134,369,l)
);
}
);
width = 548;
}
);
rightKerningGroup = h;
unicode = 110;
},
{
glyphname = o;
layers = (
{
anchors = (
{
name = m.uni0324_3;
position = "{255, -12}";
},
{
name = t.uni0308_1_3;
position = "{324, 512}";
},
{
name = t.uni0335_4;
position = "{294, 251}";
},
{
name = t.uni031B_4;
position = "{416, 504}";
},
{
name = m.uni0328_2;
position = "{395, 12}";
},
{
name = t.uni030C.alt_4;
position = "{610, 500}";
}
);
layerId = "D37495DA-15D9-4303-B971-3AA975198D58";
shapes = (
{
closed = 1;
nodes = (
(361,-16,o),
(448,32,o),
(502,114,cs),
(530,156,o),
(545,203,o),
(552,258,cs),
(564,351,o),
(524,434,o),
(451,481,cs),
(414,504,o),
(373,516,o),
(326,516,cs),
(224,516,o),
(137,468,o),
(83,386,cs),
(56,344,o),
(40,297,o),
(33,242,cs),
(21,149,o),
(59,66,o),
(133,19,cs),
(170,-4,o),
(212,-16,o),
(261,-16,cs)
);
},
{
closed = 1;
nodes = (
(240,125,o),
(212,146,o),
(202,182,cs),
(197,200,o),
(195,220,o),
(198,242,cs),
(205,292,o),
(226,335,o),
(257,358,cs),
(273,370,o),
(289,375,o),
(307,375,cs),
(345,375,o),
(372,354,o),
(383,319,c),
(388,300,o),
(390,280,o),
(387,258,c),
(382,208,o),
(360,165,o),
(328,142,cs),
(312,130,o),
(295,125,o),
(277,125,cs)
);
}
);
width = 585;
},
{
anchors = (
{
name = m.uni0324_3;
position = "{263, -6}";
},
{
name = t.uni0308_1_3;
position = "{331, 511}";
},
{
name = t.uni0335_4;
position = "{303, 254}";
},
{
name = t.uni031B_4;
position = "{422, 519}";
},
{
name = m.uni0328_2;
position = "{394, 4}";
},
{
name = t.uni030C.alt_4;
position = "{634, 500}";
}
);
layerId = "7ECE30C0-9795-4277-8F7A-A75C7AD12C73";
shapes = (
{
closed = 1;
nodes = (
(347,-13,o),
(429,33,o),
(481,116,cs),
(505,155,o),
(521,203,o),
(528,254,cs),
(540,351,o),
(506,432,o),
(438,478,cs),
(405,500,o),
(364,513,o),
(319,513,cs),
(224,513,o),
(141,467,o),
(89,384,cs),
(65,345,o),
(49,297,o),
(42,246,cs),
(30,149,o),
(65,68,o),
(133,22,cs),
(166,0,o),
(206,-13,o),
(250,-13,cs)
);
},
{
closed = 1;
nodes = (
(199,59,o),
(154,94,o),
(134,149,cs),
(124,178,o),
(121,209,o),
(126,246,cs),
(135,320,o),
(170,382,o),
(223,416,cs),
(248,433,o),
(277,441,o),
(308,441,cs),
(371,441,o),
(417,406,o),
(436,351,cs),
(446,322,o),
(449,291,o),
(444,254,cs),
(435,179,o),
(400,119,o),
(347,85,cs),
(322,68,o),
(293,59,o),
(262,59,cs)
);
}
);
width = 571;
},
{
anchors = (
{
name = m.uni0324_3;
position = "{263, -6}";
},
{
name = t.uni0308_1_3;
position = "{331, 511}";
},
{
name = t.uni0335_4;
position = "{303, 254}";
},
{
name = t.uni031B_4;
position = "{422, 519}";
},
{
name = m.uni0328_2;
position = "{394, 4}";
},
{
name = t.uni030C.alt_4;
position = "{634, 500}";
}
);
layerId = "7040E9A1-72E8-429E-817E-85B6EE6706A0";
shapes = (
{
closed = 1;
nodes = (
(336,-10,o),
(415,35,o),
(464,115,cs),
(488,154,o),
(502,200,o),
(508,252,cs),
(520,352,o),
(489,433,o),
(424,477,cs),
(392,499,o),
(353,510,o),
(309,510,cs),
(218,510,o),
(140,465,o),
(91,385,cs),
(67,346,o),
(52,300,o),
(46,248,cs),
(34,148,o),
(66,68,o),
(130,24,cs),
(163,2,o),
(201,-10,o),
(245,-10,cs)
);
},
{
closed = 1;
nodes = (
(173,25,o),
(118,63,o),
(95,131,cs),
(83,165,o),
(80,204,o),
(85,248,cs),
(96,338,o),
(139,410,o),
(201,448,cs),
(232,467,o),
(266,475,o),
(304,475,cs),
(380,475,o),
(435,437,o),
(459,370,cs),
(471,335,o),
(474,296,o),
(469,252,cs),
(458,162,o),
(415,91,o),
(353,53,cs),
(321,34,o),
(287,25,o),
(248,25,cs)
);
}
);
width = 555;
}
);
leftKerningGroup = a2;
rightKerningGroup = b;
unicode = 111;
},
{
glyphname = p;
layers = (
{
anchors = (
{
name = m.uni0324_3;
position = "{341, -15}";
},
{
name = t.uni0308_1_3;
position = "{368, 517}";
},
{
name = t.uni0335_4;
position = "{226, 265}";
},
{
name = t.uni030C.alt_4;
position = "{174, 306}";
}
);
layerId = "72F2C4CE-1E46-4734-8615-AE1624273D46";
name = "#instance";
shapes = (
{
closed = 1;
nodes = (
(171,-12,o),
(113,6,o),
(73,30,c),
(117,84,l),
(132,76,o),
(150,70,o),
(172,66,c),
(193,61,o),
(213,59,o),
(230,58,cs),
(271,57,o),
(307,66,o),
(338,83,c),
(398,118,o),
(433,182,o),
(443,259,cs),
(453,340,o),
(423,441,o),
(325,441,cs),
(248,441,o),
(181,393,o),
(165,317,c),
(117,332,l),
(142,437,o),
(224,512,o),
(337,512,cs),
(479,512,o),
(538,380,o),
(524,252,cs),
(518,198,o),
(502,151,o),
(475,111,cs),
(421,30,o),
(332,-16,o),
(225,-13,cs)
);
},
{
closed = 1;
nodes = (
(94,-260,l),
(14,-260,l),
(105,500,l),
(166,500,l),
(169,359,l)
);
}
);
width = 562;
},
{
anchors = (
{
name = m.uni0324_3;
position = "{323, -12}";
},
{
name = t.uni0308_1_3;
position = "{336, 512}";
},
{
name = t.uni0335_4;
position = "{456, 610}";
},
{
name = t.uni030C.alt_4;
position = "{538, 500}";
}
);
layerId = "D37495DA-15D9-4303-B971-3AA975198D58";
shapes = (
{
closed = 1;
nodes = (
(182,-19,o),
(128,5,o),
(77,45,c),
(164,156,l),
(178,147,o),
(194,140,o),
(213,134,c),
(231,127,o),
(249,124,o),
(266,124,cs),
(289,124,o),
(310,129,o),
(329,140,cs),
(366,161,o),
(390,202,o),
(397,257,cs),
(402,303,o),
(397,370,o),
(334,370,cs),
(284,370,o),
(247,336,o),
(237,291,c),
(149,324,l),
(168,434,o),
(248,516,o),
(367,516,cs),
(517,516,o),
(581,385,o),
(565,250,cs),
(559,195,o),
(542,146,o),
(514,105,cs),
(458,22,o),
(366,-23,o),
(257,-20,cs)
);
},
{
closed = 1;
nodes = (
(170,-260,l),
(4,-260,l),
(92,500,l),
(217,500,l),
(242,337,l)
);
}
);
width = 591;
},
{
anchors = (
{
name = m.uni0324_3;
position = "{350, -17}";
},
{
name = t.uni0308_1_3;
position = "{384, 519}";
},
{
name = t.uni0335_4;
position = "{441, 614}";
},
{
name = t.uni030C.alt_4;
position = "{557, 500}";
}
);
layerId = "7ECE30C0-9795-4277-8F7A-A75C7AD12C73";
shapes = (
{
closed = 1;
nodes = (
(166,-14,o),
(108,4,o),
(76,19,c),
(120,83,l),
(130,77,o),
(147,72,o),
(170,67,cs),
(193,62,o),
(215,60,o),
(235,59,cs),
(273,58,o),
(307,65,o),
(336,80,cs),
(395,109,o),
(432,171,o),
(443,256,cs),
(452,339,o),
(423,439,o),
(322,439,cs),
(246,439,o),
(176,387,o),
(166,310,c),
(113,328,l),
(131,433,o),
(221,513,o),
(330,513,cs),
(469,513,o),
(542,384,o),
(527,253,cs),
(520,196,o),
(503,148,o),
(476,107,cs),
(421,25,o),
(332,-18,o),
(225,-15,cs)
);
},
{
closed = 1;
nodes = (
(96,-260,l),
(13,-260,l),
(107,500,l),
(171,500,l),
(173,364,l)
);
}
);
width = 564;
},
{
anchors = (
{
name = m.uni0324_3;
position = "{350, -17}";
},
{
name = t.uni0308_1_3;
position = "{384, 519}";
},
{
name = t.uni0335_4;
position = "{115, 99}";
},
{
name = t.uni030C.alt_4;
position = "{-1, 213}";
}
);
layerId = "7040E9A1-72E8-429E-817E-85B6EE6706A0";
shapes = (
{
closed = 1;
nodes = (
(165,-8,o),
(106,6,o),
(71,23,c),
(95,49,l),
(110,42,o),
(129,37,o),
(152,33,cs),
(175,29,o),
(196,27,o),
(213,26,cs),
(262,25,o),
(305,35,o),
(342,56,cs),
(414,98,o),
(454,173,o),
(465,260,cs),
(478,358,o),
(436,475,o),
(320,475,cs),
(230,475,o),
(149,420,o),
(130,330,c),
(102,336,l),
(129,439,o),
(212,510,o),
(323,510,cs),
(460,510,o),
(518,378,o),
(504,253,cs),
(498,200,o),
(482,154,o),
(456,114,cs),
(403,34,o),
(315,-12,o),
(210,-9,cs)
);
},
{
closed = 1;
nodes = (
(57,-260,l),
(19,-260,l),
(111,500,l),
(142,500,l),
(134,369,l)
);
}
);
width = 548;
}
);
leftKerningGroup = m;
rightKerningGroup = b;
unicode = 112;
},
{
glyphname = q;
layers = (
{
anchors = (
{
name = m.uni0324_3;
position = "{233, -10}";
},
{
name = t.uni0308_1_3;
position = "{253, 510}";
}
);
layerId = "D37495DA-15D9-4303-B971-3AA975198D58";
shapes = (
{
closed = 1;
nodes = (
(375,383,l),
(295,-268,l),
(461,-268,l),
(551,458,l),
(506,480,o),
(453,499,o),
(403,506,c)
);
},
{
closed = 1;
nodes = (
(140,516,o),
(25,392,o),
(25,215,cs),
(25,93,o),
(94,-20,o),
(225,-20,cs),
(344,-20,o),
(424,73,o),
(443,183,c),
(355,216,l),
(345,169,o),
(309,126,o),
(258,126,cs),
(209,126,o),
(193,178,o),
(193,218,cs),
(193,303,o),
(233,372,o),
(325,372,cs),
(361,372,o),
(397,359,o),
(427,340,c),
(514,451,l),
(455,498,o),
(399,516,o),
(324,516,cs)
);
}
);
width = 576;
},
{
anchors = (
{
name = m.uni0324_3;
position = "{156, -16}";
},
{
name = t.uni0308_1_3;
position = "{207, 516}";
}
);
layerId = "7ECE30C0-9795-4277-8F7A-A75C7AD12C73";
shapes = (
{
closed = 1;
nodes = (
(429,439,l),
(343,-260,l),
(426,-260,l),
(515,471,l),
(490,480,o),
(463,492,o),
(437,496,c)
);
},
{
closed = 1;
nodes = (
(151,513,o),
(35,386,o),
(35,214,cs),
(35,95,o),
(114,-10,o),
(237,-10,cs),
(345,-10,o),
(433,71,o),
(451,175,c),
(398,193,l),
(388,119,o),
(320,64,o),
(246,64,cs),
(159,64,o),
(119,137,o),
(119,214,cs),
(119,341,o),
(191,439,o),
(322,439,cs),
(352,439,o),
(418,431,o),
(444,415,c),
(488,479,l),
(440,502,o),
(382,513,o),
(328,513,cs)
);
}
);
width = 557;
},
{
anchors = (
{
name = m.uni0324_3;
position = "{156, -16}";
},
{
name = t.uni0308_1_3;
position = "{207, 516}";
}
);
layerId = "7040E9A1-72E8-429E-817E-85B6EE6706A0";
shapes = (
{
closed = 1;
nodes = (
(453,473,l),
(363,-260,l),
(401,-260,l),
(491,470,l),
(479,476,o),
(467,484,o),
(453,487,c)
);
},
{
closed = 1;
nodes = (
(153,510,o),
(41,370,o),
(41,203,cs),
(41,85,o),
(108,-13,o),
(234,-13,cs),
(341,-13,o),
(419,60,o),
(445,160,c),
(417,166,l),
(399,80,o),
(318,22,o),
(232,22,cs),
(129,22,o),
(80,109,o),
(80,200,cs),
(80,351,o),
(174,475,o),
(327,475,cs),
(361,475,o),
(421,466,o),
(452,452,c),
(476,478,l),
(434,498,o),
(374,510,o),
(327,510,cs)
);
}
);
width = 538;
}
);
leftKerningGroup = a2;
rightKerningGroup = g;
unicode = 113;
},
{
glyphname = r;
layers = (
{
anchors = (
{
name = m.uni0324_3;
position = "{118, 0}";
},
{
name = t.uni0308_1_3;
position = "{303, 515}";
},
{
name = t.uni0335_4;
position = "{456, 610}";
},
{
name = t.uni030C.alt_4;
position = "{538, 500}";
}
);
layerId = "D37495DA-15D9-4303-B971-3AA975198D58";
shapes = (
{
closed = 1;
nodes = (
(180,405,l),
(197,431,o),
(216,453,o),
(235,472,cs),
(254,491,o),
(274,504,o),
(295,511,cs),
(347,530,o),
(404,529,o),
(435,516,c),
(396,366,l),
(374,374,o),
(356,378,o),
(343,378,cs),
(324,378,o),
(308,375,o),
(293,368,cs),
(264,355,o),
(245,332,o),
(238,312,c)
);
},
{
closed = 1;
nodes = (
(198,0,l),
(32,0,l),
(92,500,l),
(217,500,l),
(242,337,l)
);
}
);
width = 408;
},
{
anchors = (
{
name = m.uni0324_3;
position = "{138, 1}";
},
{
name = t.uni0308_1_3;
position = "{342, 517}";
},
{
name = t.uni0335_4;
position = "{441, 614}";
},
{
name = t.uni030C.alt_4;
position = "{557, 500}";
}
);
layerId = "7ECE30C0-9795-4277-8F7A-A75C7AD12C73";
shapes = (
{
closed = 1;
nodes = (
(146,370,l),
(167,408,o),
(193,440,o),
(226,466,cs),
(258,491,o),
(289,507,o),
(320,512,cs),
(337,515,o),
(366,515,o),
(391,510,c),
(374,433,l),
(361,437,o),
(346,438,o),
(327,436,cs),
(309,435,o),
(291,429,o),
(272,418,cs),
(234,397,o),
(199,363,o),
(180,324,c)
);
},
{
closed = 1;
nodes = (
(138,0,l),
(55,0,l),
(121,500,l),
(185,500,l),
(187,364,l)
);
}
);
width = 366;
},
{
anchors = (
{
name = m.uni0324_3;
position = "{138, 1}";
},
{
name = t.uni0308_1_3;
position = "{342, 517}";
},
{
name = t.uni0335_4;
position = "{115, 99}";
},
{
name = t.uni030C.alt_4;
position = "{-1, 213}";
}
);
layerId = "7040E9A1-72E8-429E-817E-85B6EE6706A0";
shapes = (
{
closed = 1;
nodes = (
(122,359,l),
(143,399,o),
(172,433,o),
(211,462,cs),
(249,490,o),
(291,504,o),
(338,504,cs),
(349,504,o),
(357,503,o),
(362,502,c),
(355,464,l),
(347,465,o),
(337,466,o),
(325,466,cs),
(302,466,o),
(279,460,o),
(254,448,cs),
(204,423,o),
(159,379,o),
(139,334,c)
);
},
{
closed = 1;
nodes = (
(96,0,l),
(58,0,l),
(122,500,l),
(153,500,l),
(145,369,l)
);
}
);
width = 343;
}
);
leftKerningGroup = m;
rightKerningGroup = r;
unicode = 114;
},
{
glyphname = s;
layers = (
{
layerId = "D37495DA-15D9-4303-B971-3AA975198D58";
shapes = (
{
closed = 1;
nodes = (
(123,-13,o),
(53,26,o),
(8,85,c),
(107,180,l),
(144,142,o),
(180,125,o),
(219,125,cs),
(236,125,o),
(250,128,o),
(259,133,cs),
(268,137,o),
(274,144,o),
(275,152,cs),
(276,161,o),
(272,168,o),
(264,175,cs),
(248,189,o),
(223,198,o),
(186,210,cs),
(165,216,o),
(146,226,o),
(126,240,cs),
(88,268,o),
(59,312,o),
(66,365,cs),
(73,412,o),
(93,449,o),
(129,475,cs),
(165,500,o),
(210,514,o),
(265,514,cs),
(339,514,o),
(408,489,o),
(448,452,c),
(369,346,l),
(331,373,o),
(296,383,o),
(266,383,cs),
(244,383,o),
(228,374,o),
(227,356,cs),
(226,342,o),
(240,334,o),
(284,316,cs),
(296,311,o),
(306,307,o),
(312,304,cs),
(342,292,o),
(365,280,o),
(383,267,cs),
(419,241,o),
(440,201,o),
(433,138,cs),
(429,105,o),
(418,78,o),
(397,55,cs),
(355,7,o),
(288,-19,o),
(213,-16,cs)
);
}
);
width = 482;
},
{
layerId = "7ECE30C0-9795-4277-8F7A-A75C7AD12C73";
shapes = (
{
closed = 1;
nodes = (
(115,-13,o),
(53,14,o),
(5,72,c),
(55,123,l),
(101,77,o),
(140,61,o),
(191,61,cs),
(224,61,o),
(251,66,o),
(272,80,cs),
(292,92,o),
(304,113,o),
(307,139,c),
(308,157,o),
(304,172,o),
(297,182,cs),
(281,204,o),
(263,213,o),
(205,236,cs),
(171,250,o),
(145,262,o),
(125,275,cs),
(85,300,o),
(63,335,o),
(72,386,cs),
(78,425,o),
(98,458,o),
(132,480,cs),
(165,502,o),
(205,513,o),
(249,513,cs),
(304,513,o),
(362,492,o),
(391,464,c),
(349,405,l),
(325,423,o),
(282,440,o),
(244,440,cs),
(198,440,o),
(157,419,o),
(153,377,cs),
(150,347,o),
(166,332,o),
(206,315,cs),
(216,311,o),
(227,305,o),
(237,301,cs),
(273,286,o),
(301,272,o),
(322,260,cs),
(365,235,o),
(398,191,o),
(386,127,cs),
(380,96,o),
(368,71,o),
(349,50,cs),
(311,7,o),
(250,-13,o),
(187,-13,cs)
);
}
);
width = 434;
},
{
layerId = "7040E9A1-72E8-429E-817E-85B6EE6706A0";
shapes = (
{
closed = 1;
nodes = (
(111,-10,o),
(54,15,o),
(6,70,c),
(32,95,l),
(72,49,o),
(126,24,o),
(181,24,cs),
(220,24,o),
(253,35,o),
(282,54,cs),
(310,73,o),
(327,97,o),
(330,128,c),
(333,150,o),
(329,169,o),
(319,185,cs),
(299,215,o),
(264,234,o),
(202,258,cs),
(171,270,o),
(146,281,o),
(127,292,cs),
(90,313,o),
(67,343,o),
(72,390,c),
(77,427,o),
(95,455,o),
(127,477,cs),
(160,499,o),
(200,510,o),
(249,510,cs),
(295,510,o),
(338,495,o),
(370,471,c),
(349,443,l),
(320,462,o),
(282,474,o),
(248,474,cs),
(172,474,o),
(122,446,o),
(113,392,cs),
(106,351,o),
(126,330,o),
(174,308,cs),
(189,301,o),
(203,295,o),
(217,290,cs),
(256,275,o),
(285,260,o),
(308,247,c),
(352,220,o),
(376,184,o),
(368,127,cs),
(365,102,o),
(355,80,o),
(338,59,cs),
(304,18,o),
(247,-10,o),
(179,-10,cs)
);
}
);
width = 416;
}
);
leftKerningGroup = s;
unicode = 115;
},
{
glyphname = t;
layers = (
{
anchors = (
{
name = m.uni0324_3;
position = "{226, -10}";
},
{
name = t.uni0308_1_3;
position = "{211, 640}";
},
{
name = t.uni0335_4;
position = "{181, 263}";
},
{
name = t.uni030C.alt_4;
position = "{393, 480}";
}
);
layerId = "D37495DA-15D9-4303-B971-3AA975198D58";
shapes = (
{
closed = 1;
nodes = (
(295,-22,o),
(350,2,o),
(390,37,c),
(329,157,l),
(310,142,o),
(289,135,o),
(266,135,cs),
(241,135,o),
(232,148,o),
(235,175,cs),
(292,643,l),
(126,642,l),
(68,168,ls),
(61,109,o),
(72,62,o),
(103,29,cs),
(134,-5,o),
(176,-22,o),
(231,-22,cs)
);
},
{
closed = 1;
nodes = (
(45,500,l),
(30,373,l),
(392,373,l),
(407,500,l)
);
}
);
width = 427;
},
{
anchors = (
{
name = m.uni0324_3;
position = "{231, -11}";
},
{
name = t.uni0308_1_3;
position = "{229, 639}";
},
{
name = t.uni0335_4;
position = "{203, 262}";
},
{
name = t.uni030C.alt_4;
position = "{425, 480}";
}
);
layerId = "7ECE30C0-9795-4277-8F7A-A75C7AD12C73";
shapes = (
{
closed = 1;
nodes = (
(251,-14,o),
(286,0,o),
(313,21,c),
(279,86,l),
(260,71,o),
(238,64,o),
(213,64,cs),
(174,64,o),
(147,82,o),
(155,149,cs),
(216,641,l),
(133,641,l),
(72,149,ls),
(65,96,o),
(74,56,o),
(98,28,cs),
(121,0,o),
(157,-14,o),
(204,-14,cs)
);
},
{
closed = 1;
nodes = (
(47,500,l),
(38,426,l),
(331,426,l),
(340,500,l)
);
}
);
width = 356;
},
{
anchors = (
{
name = m.uni0324_3;
position = "{231, -11}";
},
{
name = t.uni0308_1_3;
position = "{229, 639}";
},
{
name = t.uni0335_4;
position = "{203, 262}";
},
{
name = t.uni030C.alt_4;
position = "{425, 480}";
}
);
layerId = "7040E9A1-72E8-429E-817E-85B6EE6706A0";
shapes = (
{
closed = 1;
nodes = (
(225,-13,o),
(254,-6,o),
(279,11,c),
(264,44,l),
(244,30,o),
(221,23,o),
(196,23,cs),
(135,23,o),
(104,59,o),
(113,132,cs),
(176,641,l),
(138,641,l),
(75,134,ls),
(69,86,o),
(76,50,o),
(97,25,cs),
(118,-1,o),
(149,-13,o),
(192,-13,cs)
);
},
{
closed = 1;
nodes = (
(43,500,l),
(39,466,l),
(304,466,l),
(308,500,l)
);
}
);
width = 324;
}
);
leftKerningGroup = t2;
rightKerningGroup = t;
unicode = 116;
},
{
glyphname = u;
layers = (
{
anchors = (
{
name = m.uni0324_3;
position = "{238, 11}";
},
{
name = t.uni0308_1_3;
position = "{333, 500}";
},
{
name = t.uni0335_4;
position = "{276, 277}";
},
{
name = t.uni031B_4;
position = "{475, 500}";
},
{
name = m.uni0328_2;
position = "{547, 57}";
},
{
name = t.uni030C.alt_4;
position = "{532, 500}";
}
);
layerId = "D37495DA-15D9-4303-B971-3AA975198D58";
shapes = (
{
closed = 1;
nodes = (
(217,199,ls),
(210,156,o),
(226,127,o),
(269,127,cs),
(290,127,o),
(309,133,o),
(326,144,cs),
(343,155,o),
(357,171,o),
(366,191,c),
(427,124,l),
(402,78,o),
(371,42,o),
(333,17,cs),
(295,-9,o),
(255,-22,o),
(214,-22,cs),
(177,-22,o),
(145,-13,o),
(118,7,cs),
(64,45,o),
(37,110,o),
(48,182,cs),
(91,500,l),
(263,500,l)
);
},
{
closed = 1;
nodes = (
(403,500,l),
(569,500,l),
(512,0,l),
(387,0,l),
(362,163,l)
);
}
);
width = 603;
},
{
anchors = (
{
name = m.uni0324_3;
position = "{238, 11}";
},
{
name = t.uni0308_1_3;
position = "{390, 500}";
},
{
name = t.uni0335_4;
position = "{274, 283}";
},
{
name = t.uni031B_4;
position = "{488, 500}";
},
{
name = m.uni0328_2;
position = "{588, 62}";
},
{
name = t.uni030C.alt_4;
position = "{579, 523}";
}
);
layerId = "7ECE30C0-9795-4277-8F7A-A75C7AD12C73";
shapes = (
{
closed = 1;
nodes = (
(148,195,ls),
(137,103,o),
(168,62,o),
(249,62,cs),
(280,62,o),
(311,74,o),
(344,97,cs),
(376,120,o),
(400,148,o),
(417,180,c),
(451,138,l),
(428,95,o),
(396,60,o),
(357,31,cs),
(318,2,o),
(278,-12,o),
(237,-12,cs),
(198,-12,o),
(165,-4,o),
(138,12,cs),
(82,44,o),
(55,105,o),
(64,181,cs),
(104,500,l),
(189,500,l)
);
},
{
closed = 1;
nodes = (
(453,500,l),
(536,500,l),
(474,0,l),
(410,0,l),
(408,136,l)
);
}
);
width = 583;
},
{
anchors = (
{
name = m.uni0324_3;
position = "{238, 11}";
},
{
name = t.uni0308_1_3;
position = "{350, 500}";
},
{
name = t.uni0335_4;
position = "{274, 283}";
},
{
name = t.uni031B_4;
position = "{488, 500}";
},
{
name = m.uni0328_2;
position = "{588, 62}";
},
{
name = t.uni030C.alt_4;
position = "{579, 523}";
}
);
layerId = "7040E9A1-72E8-429E-817E-85B6EE6706A0";
shapes = (
{
closed = 1;
nodes = (
(107,188,ls),
(94,79,o),
(132,25,o),
(229,25,cs),
(264,25,o),
(299,37,o),
(334,60,cs),
(369,83,o),
(399,116,o),
(426,160,c),
(445,137,l),
(417,92,o),
(383,57,o),
(344,31,cs),
(304,4,o),
(263,-9,o),
(222,-9,cs),
(183,-9,o),
(152,-1,o),
(127,14,cs),
(78,45,o),
(59,103,o),
(68,183,cs),
(107,500,l),
(147,500,l)
);
},
{
closed = 1;
nodes = (
(462,500,l),
(500,500,l),
(440,0,l),
(409,0,l),
(417,131,l)
);
}
);
width = 551;
}
);
leftKerningGroup = u;
rightKerningGroup = a;
unicode = 117;
},
{
glyphname = v;
layers = (
{
anchors = (
{
name = m.uni0324_3;
position = "{264, 0}";
},
{
name = t.uni0308_1_3;
position = "{324, 500}";
}
);
layerId = "72F2C4CE-1E46-4734-8615-AE1624273D46";
name = "#instance";
shapes = (
{
closed = 1;
nodes = (
(42,500,l),
(184,0,l),
(268,0,l),
(521,500,l),
(434,500,l),
(222,63,l),
(242,63,l),
(122,500,l)
);
}
);
width = 503;
},
{
anchors = (
{
name = m.uni0324_3;
position = "{255, 0}";
},
{
name = t.uni0308_1_3;
position = "{315, 500}";
}
);
layerId = "D37495DA-15D9-4303-B971-3AA975198D58";
shapes = (
{
closed = 1;
nodes = (
(34,500,l),
(175,1,l),
(345,1,l),
(590,500,l),
(409,500,l),
(258,142,l),
(293,143,l),
(199,500,l)
);
}
);
width = 563;
},
{
anchors = (
{
name = m.uni0324_3;
position = "{265, 0}";
},
{
name = t.uni0308_1_3;
position = "{325, 500}";
}
);
layerId = "7ECE30C0-9795-4277-8F7A-A75C7AD12C73";
shapes = (
{
closed = 1;
nodes = (
(38,500,l),
(188,-1,l),
(261,-1,l),
(525,500,l),
(438,500,l),
(215,68,l),
(248,67,l),
(116,500,l)
);
}
);
width = 498;
},
{
anchors = (
{
name = m.uni0324_3;
position = "{269, 0}";
},
{
name = t.uni0308_1_3;
position = "{329, 500}";
}
);
layerId = "7040E9A1-72E8-429E-817E-85B6EE6706A0";
shapes = (
{
closed = 1;
nodes = (
(46,500,l),
(188,0,l),
(231,0,l),
(487,500,l),
(446,500,l),
(204,25,l),
(218,25,l),
(85,500,l)
);
}
);
width = 474;
}
);
leftKerningGroup = v2;
rightKerningGroup = v;
unicode = 118;
},
{
glyphname = w;
layers = (
{
anchors = (
{
name = m.uni0324_3;
position = "{384, 0}";
},
{
name = t.uni0308_1_3;
position = "{410, 493}";
}
);
layerId = "72F2C4CE-1E46-4734-8615-AE1624273D46";
name = "#instance";
shapes = (
{
closed = 1;
nodes = (
(45,500,l),
(149,0,l),
(226,0,l),
(374,334,l),
(396,399,l),
(403,334,l),
(467,0,l),
(545,0,l),
(770,500,l),
(686,500,l),
(538,162,l),
(517,102,l),
(512,162,l),
(446,500,l),
(371,500,l),
(223,162,l),
(201,102,l),
(194,162,l),
(126,500,l)
);
}
);
width = 754;
},
{
anchors = (
{
name = m.uni0324_3;
position = "{393, 0}";
},
{
name = t.uni0308_1_3;
position = "{424, 500}";
}
);
layerId = "D37495DA-15D9-4303-B971-3AA975198D58";
shapes = (
{
closed = 1;
nodes = (
(35,500,l),
(152,0,l),
(297,0,l),
(377,187,l),
(401,269,l),
(405,187,l),
(432,0,l),
(583,0,l),
(814,500,l),
(635,500,l),
(555,304,l),
(534,230,l),
(531,304,l),
(496,500,l),
(359,500,l),
(278,303,l),
(255,230,l),
(248,303,l),
(212,500,l)
);
}
);
width = 788;
},
{
anchors = (
{
name = m.uni0324_3;
position = "{385, 0}";
},
{
name = t.uni0308_1_3;
position = "{408, 490}";
}
);
layerId = "7ECE30C0-9795-4277-8F7A-A75C7AD12C73";
shapes = (
{
closed = 1;
nodes = (
(44,500,l),
(149,0,l),
(223,0,l),
(373,335,l),
(392,391,l),
(397,335,l),
(464,0,l),
(538,0,l),
(764,500,l),
(681,500,l),
(534,166,l),
(516,118,l),
(508,166,l),
(440,500,l),
(367,500,l),
(221,168,l),
(202,118,l),
(195,168,l),
(127,500,l)
);
}
);
width = 745;
},
{
anchors = (
{
name = m.uni0324_3;
position = "{380, 0}";
},
{
name = t.uni0308_1_3;
position = "{403, 490}";
}
);
layerId = "7040E9A1-72E8-429E-817E-85B6EE6706A0";
shapes = (
{
closed = 1;
nodes = (
(49,500,l),
(147,0,l),
(192,0,l),
(373,405,l),
(394,461,l),
(402,405,l),
(483,0,l),
(527,0,l),
(749,500,l),
(711,500,l),
(530,93,l),
(508,40,l),
(502,93,l),
(421,500,l),
(377,500,l),
(196,94,l),
(175,40,l),
(167,94,l),
(85,500,l)
);
}
);
width = 737;
}
);
leftKerningGroup = v2;
rightKerningGroup = v;
unicode = 119;
},
{
glyphname = x;
rightMetricsKey = "=18";
layers = (
{
anchors = (
{
name = m.uni0324_3;
position = "{246, 0}";
},
{
name = t.uni0308_1_3;
position = "{305, 500}";
}
);
layerId = "D37495DA-15D9-4303-B971-3AA975198D58";
shapes = (
{
closed = 1;
nodes = (
(339,0,l),
(236,198,l),
(310,200,l),
(180,0,l),
(-24,0,l),
(220,322,l),
(197,202,l),
(52,500,l),
(258,500,l),
(320,322,l),
(257,322,l),
(357,500,l),
(559,500,l),
(339,202,l),
(349,318,l),
(559,0,l)
);
}
);
width = 597;
},
{
anchors = (
{
name = m.uni0324_3;
position = "{262, 0}";
},
{
name = t.uni0308_1_3;
position = "{321, 497}";
}
);
layerId = "7ECE30C0-9795-4277-8F7A-A75C7AD12C73";
shapes = (
{
closed = 1;
nodes = (
(329,0,l),
(210,222,l),
(240,221,l),
(82,0,l),
(-16,0,l),
(198,287,l),
(195,230,l),
(44,500,l),
(143,500,l),
(252,293,l),
(214,293,l),
(368,500,l),
(467,500,l),
(256,232,l),
(269,285,l),
(430,0,l)
);
}
);
width = 472;
},
{
anchors = (
{
name = m.uni0324_3;
position = "{262, 0}";
},
{
name = t.uni0308_1_3;
position = "{321, 497}";
}
);
layerId = "7040E9A1-72E8-429E-817E-85B6EE6706A0";
shapes = (
{
closed = 1;
nodes = (
(331,0,l),
(200,245,l),
(217,245,l),
(35,0,l),
(-13,0,l),
(194,273,l),
(193,247,l),
(51,500,l),
(95,500,l),
(221,272,l),
(203,272,l),
(372,500,l),
(420,500,l),
(227,247,l),
(225,274,l),
(377,0,l)
);
}
);
width = 425;
}
);
leftKerningGroup = x;
unicode = 120;
},
{
glyphname = y;
layers = (
{
anchors = (
{
name = m.uni0324_3;
position = "{83, -255}";
},
{
name = t.uni0308_1_3;
position = "{316, 500}";
}
);
layerId = "72F2C4CE-1E46-4734-8615-AE1624273D46";
name = "#instance";
shapes = (
{
closed = 1;
nodes = (
(523,500,l),
(438,500,l),
(234,84,l),
(245,83,l),
(125,500,l),
(42,500,l),
(190,2,l),
(160,-64,ls),
(135,-119,o),
(69,-181,o),
(-1,-219,c),
(38,-278,l),
(117,-242,o),
(197,-164,o),
(240,-76,cs)
);
}
);
width = 505;
},
{
anchors = (
{
name = m.uni0324_3;
position = "{89, -256}";
},
{
name = t.uni0308_1_3;
position = "{327, 500}";
}
);
layerId = "D37495DA-15D9-4303-B971-3AA975198D58";
shapes = (
{
closed = 1;
nodes = (
(597,500,l),
(423,500,l),
(286,184,l),
(296,184,l),
(208,500,l),
(34,500,l),
(187,6,l),
(176,-17,ls),
(149,-74,o),
(95,-120,o),
(27,-156,c),
(116,-283,l),
(216,-238,o),
(284,-172,o),
(340,-52,cs)
);
}
);
width = 570;
},
{
anchors = (
{
name = m.uni0324_3;
position = "{83, -255}";
},
{
name = t.uni0308_1_3;
position = "{316, 500}";
}
);
layerId = "7ECE30C0-9795-4277-8F7A-A75C7AD12C73";
shapes = (
{
closed = 1;
nodes = (
(518,500,l),
(439,500,l),
(231,79,l),
(242,78,l),
(120,500,l),
(42,500,l),
(190,2,l),
(159,-67,ls),
(135,-122,o),
(67,-185,o),
(-2,-222,c),
(33,-277,l),
(112,-242,o),
(193,-163,o),
(234,-78,cs)
);
}
);
width = 502;
},
{
anchors = (
{
name = m.uni0324_3;
position = "{80, -255}";
},
{
name = t.uni0308_1_3;
position = "{311, 500}";
}
);
layerId = "7040E9A1-72E8-429E-817E-85B6EE6706A0";
shapes = (
{
closed = 1;
nodes = (
(487,500,l),
(446,500,l),
(209,36,l),
(220,35,l),
(85,500,l),
(46,500,l),
(192,0,l),
(153,-87,ls),
(129,-141,o),
(56,-211,o),
(-14,-249,c),
(0,-275,l),
(70,-244,o),
(156,-160,o),
(192,-88,cs)
);
}
);
width = 474;
}
);
leftKerningGroup = v2;
rightKerningGroup = v;
unicode = 121;
},
{
glyphname = z;
layers = (
{
anchors = (
{
name = m.uni0324_3;
position = "{216, 0}";
},
{
name = t.uni0308_1_3;
position = "{276, 498}";
},
{
name = t.uni0335_4;
position = "{248, 250}";
}
);
layerId = "D37495DA-15D9-4303-B971-3AA975198D58";
shapes = (
{
closed = 1;
nodes = (
(10,68,l),
(213,332,l),
(245,353,l),
(170,353,l),
(62,353,l),
(80,500,l),
(496,500,l),
(489,433,l),
(291,175,l),
(257,147,l),
(309,148,l),
(469,148,l),
(451,0,l),
(3,0,l)
);
}
);
width = 511;
},
{
anchors = (
{
name = m.uni0324_3;
position = "{230, 0}";
},
{
name = t.uni0308_1_3;
position = "{277, 497}";
},
{
name = t.uni0335_4;
position = "{262, 250}";
}
);
layerId = "7ECE30C0-9795-4277-8F7A-A75C7AD12C73";
shapes = (
{
closed = 1;
nodes = (
(0,35,l),
(268,377,l),
(312,424,l),
(275,424,l),
(73,424,l),
(82,500,l),
(444,500,l),
(437,470,l),
(155,109,l),
(124,76,l),
(152,76,l),
(406,76,l),
(396,0,l),
(-4,0,l)
);
}
);
width = 449;
},
{
anchors = (
{
name = m.uni0324_3;
position = "{230, 0}";
},
{
name = t.uni0308_1_3;
position = "{277, 497}";
},
{
name = t.uni0335_4;
position = "{262, 250}";
}
);
layerId = "7040E9A1-72E8-429E-817E-85B6EE6706A0";
shapes = (
{
closed = 1;
nodes = (
(-6,7,l),
(334,438,l),
(360,465,l),
(336,464,l),
(86,464,l),
(90,500,l),
(426,500,l),
(429,499,l),
(77,55,l),
(58,34,l),
(75,36,l),
(377,36,l),
(373,0,l),
(-7,0,l)
);
}
);
width = 425;
}
);
leftKerningGroup = z;
unicode = 122;
},
{
glyphname = braceleft;
layers = (
{
layerId = "D37495DA-15D9-4303-B971-3AA975198D58";
shapes = (
{
closed = 1;
nodes = (
(349,618,l),
(328,616,o),
(313,613,o),
(302,610,c),
(282,603,o),
(275,594,o),
(274,578,c),
(271,561,o),
(272,537,o),
(271,510,cs),
(270,442,o),
(268,403,o),
(261,376,cs),
(254,349,o),
(237,325,o),
(210,303,cs),
(156,260,o),
(77,234,o),
(9,234,c),
(24,362,l),
(60,362,o),
(95,356,o),
(128,345,cs),
(196,323,o),
(243,281,o),
(243,228,c),
(244,201,o),
(232,145,o),
(221,97,cs),
(214,69,o),
(209,44,o),
(206,25,cs),
(205,15,o),
(205,8,o),
(208,3,cs),
(213,-6,o),
(228,-10,o),
(271,-14,c),
(241,-161,l),
(204,-158,o),
(169,-150,o),
(137,-137,cs),
(74,-112,o),
(30,-59,o),
(41,28,c),
(45,52,o),
(55,94,o),
(63,127,c),
(75,170,o),
(80,195,o),
(79,203,c),
(75,219,o),
(54,228,o),
(7,224,c),
(25,372,l),
(70,369,o),
(93,381,o),
(100,400,cs),
(104,409,o),
(105,444,o),
(105,477,cs),
(105,524,o),
(106,558,o),
(109,577,cs),
(115,626,o),
(131,664,o),
(157,691,cs),
(209,744,o),
(271,757,o),
(355,765,c)
);
}
);
width = 324;
},
{
layerId = "7ECE30C0-9795-4277-8F7A-A75C7AD12C73";
shapes = (
{
closed = 1;
nodes = (
(338,687,l),
(309,684,o),
(288,681,o),
(274,676,cs),
(246,666,o),
(234,645,o),
(227,597,c),
(224,566,o),
(223,533,o),
(222,500,cs),
(221,456,o),
(219,409,o),
(212,381,c),
(207,354,o),
(194,331,o),
(174,312,cs),
(134,274,o),
(73,255,o),
(9,255,c),
(19,331,l),
(52,331,o),
(81,327,o),
(107,318,cs),
(160,301,o),
(192,263,o),
(191,206,cs),
(190,179,o),
(181,134,o),
(172,93,cs),
(165,58,o),
(157,17,o),
(153,-11,cs),
(150,-35,o),
(150,-53,o),
(154,-65,cs),
(163,-88,o),
(185,-94,o),
(242,-101,c),
(228,-168,l),
(191,-164,o),
(160,-158,o),
(136,-149,cs),
(89,-132,o),
(59,-91,o),
(70,-11,cs),
(74,25,o),
(84,74,o),
(92,114,cs),
(102,159,o),
(107,187,o),
(107,199,c),
(110,232,o),
(88,255,o),
(9,255,c),
(19,331,l),
(98,331,o),
(124,350,o),
(132,387,cs),
(136,403,o),
(138,442,o),
(139,479,cs),
(140,526,o),
(143,565,o),
(146,597,c),
(151,637,o),
(163,668,o),
(180,690,c),
(216,733,o),
(266,747,o),
(342,754,c)
);
}
);
width = 297;
},
{
layerId = "7040E9A1-72E8-429E-817E-85B6EE6706A0";
shapes = (
{
closed = 1;
nodes = (
(346,717,l),
(317,714,o),
(292,709,o),
(272,701,cs),
(232,685,o),
(209,657,o),
(204,614,cs),
(200,581,o),
(198,539,o),
(197,500,cs),
(196,457,o),
(193,412,o),
(188,383,cs),
(183,358,o),
(172,338,o),
(155,322,cs),
(122,290,o),
(71,275,o),
(15,275,c),
(19,309,l),
(46,309,o),
(71,305,o),
(94,297,cs),
(139,281,o),
(166,248,o),
(165,200,cs),
(164,173,o),
(156,129,o),
(147,88,cs),
(139,48,o),
(130,2,o),
(126,-33,cs),
(123,-54,o),
(126,-71,o),
(133,-85,c),
(149,-112,o),
(185,-128,o),
(242,-133,c),
(234,-169,l),
(199,-166,o),
(169,-158,o),
(146,-147,cs),
(100,-124,o),
(80,-85,o),
(87,-30,cs),
(91,5,o),
(101,51,o),
(109,91,cs),
(120,144,o),
(126,179,o),
(127,197,cs),
(130,244,o),
(88,275,o),
(15,275,c),
(19,309,l),
(94,309,o),
(140,335,o),
(151,384,cs),
(155,403,o),
(158,446,o),
(159,490,c),
(162,547,o),
(164,588,o),
(167,611,cs),
(170,640,o),
(179,665,o),
(194,685,cs),
(224,724,o),
(276,746,o),
(348,753,c)
);
}
);
width = 304;
}
);
rightKerningGroup = parenleft;
unicode = 123;
},
{
glyphname = bar;
layers = (
{
layerId = "D37495DA-15D9-4303-B971-3AA975198D58";
shapes = (
{
closed = 1;
nodes = (
(146,750,l),
(47,-60,l),
(168,-60,l),
(267,750,l)
);
}
);
width = 292;
},
{
layerId = "7ECE30C0-9795-4277-8F7A-A75C7AD12C73";
shapes = (
{
closed = 1;
nodes = (
(150,750,l),
(50,-68,l),
(131,-68,l),
(231,750,l)
);
}
);
width = 260;
},
{
layerId = "7040E9A1-72E8-429E-817E-85B6EE6706A0";
shapes = (
{
closed = 1;
nodes = (
(156,752,l),
(55,-70,l),
(93,-70,l),
(194,752,l)
);
}
);
width = 226;
}
);
unicode = 124;
},
{
glyphname = braceright;
layers = (
{
layerId = "D37495DA-15D9-4303-B971-3AA975198D58";
shapes = (
{
closed = 1;
nodes = (
(-13,-22,l),
(8,-20,o),
(23,-17,o),
(34,-14,c),
(54,-7,o),
(61,2,o),
(62,18,c),
(65,35,o),
(64,59,o),
(65,86,cs),
(66,154,o),
(68,193,o),
(75,220,cs),
(82,247,o),
(99,271,o),
(126,293,cs),
(180,336,o),
(259,362,o),
(327,362,c),
(312,234,l),
(276,234,o),
(241,240,o),
(208,251,cs),
(140,273,o),
(93,315,o),
(93,368,c),
(92,395,o),
(104,451,o),
(115,499,cs),
(122,527,o),
(127,552,o),
(130,571,cs),
(131,581,o),
(131,588,o),
(128,593,cs),
(123,602,o),
(108,606,o),
(65,610,c),
(95,757,l),
(132,754,o),
(167,746,o),
(199,733,cs),
(262,708,o),
(306,655,o),
(295,568,c),
(291,544,o),
(281,502,o),
(273,469,c),
(261,426,o),
(256,401,o),
(257,393,c),
(261,377,o),
(282,368,o),
(329,372,c),
(311,224,l),
(266,227,o),
(243,215,o),
(236,196,cs),
(232,187,o),
(231,152,o),
(231,119,cs),
(231,72,o),
(230,38,o),
(227,19,cs),
(221,-30,o),
(205,-68,o),
(179,-95,cs),
(127,-148,o),
(65,-161,o),
(-19,-169,c)
);
}
);
width = 324;
},
{
layerId = "7ECE30C0-9795-4277-8F7A-A75C7AD12C73";
shapes = (
{
closed = 1;
nodes = (
(-30,-100,l),
(-1,-97,o),
(20,-94,o),
(34,-89,cs),
(62,-79,o),
(74,-58,o),
(81,-10,c),
(84,21,o),
(85,54,o),
(86,87,cs),
(87,131,o),
(89,178,o),
(96,206,c),
(101,233,o),
(114,256,o),
(134,275,cs),
(174,313,o),
(235,332,o),
(299,332,c),
(289,256,l),
(256,256,o),
(227,260,o),
(201,269,cs),
(148,286,o),
(116,324,o),
(117,381,cs),
(118,408,o),
(127,453,o),
(136,494,cs),
(143,529,o),
(151,570,o),
(155,598,cs),
(158,622,o),
(158,640,o),
(154,652,cs),
(145,675,o),
(123,681,o),
(66,688,c),
(80,755,l),
(117,751,o),
(148,745,o),
(172,736,cs),
(219,719,o),
(249,678,o),
(238,598,cs),
(234,562,o),
(224,513,o),
(216,473,cs),
(206,428,o),
(201,400,o),
(201,388,c),
(198,355,o),
(220,332,o),
(299,332,c),
(289,256,l),
(210,256,o),
(184,237,o),
(176,200,cs),
(172,184,o),
(170,145,o),
(169,108,cs),
(168,61,o),
(165,22,o),
(162,-10,c),
(157,-50,o),
(145,-81,o),
(128,-103,c),
(92,-146,o),
(42,-160,o),
(-34,-167,c)
);
}
);
width = 297;
},
{
layerId = "7040E9A1-72E8-429E-817E-85B6EE6706A0";
shapes = (
{
closed = 1;
nodes = (
(-31,-131,l),
(-2,-128,o),
(23,-123,o),
(43,-115,cs),
(83,-99,o),
(106,-71,o),
(111,-28,cs),
(115,5,o),
(117,47,o),
(118,86,cs),
(119,129,o),
(122,174,o),
(127,203,cs),
(132,228,o),
(143,248,o),
(160,264,cs),
(193,296,o),
(244,311,o),
(300,311,c),
(296,277,l),
(269,277,o),
(244,281,o),
(221,289,cs),
(176,305,o),
(149,338,o),
(150,386,cs),
(151,413,o),
(159,457,o),
(168,498,cs),
(176,538,o),
(185,584,o),
(189,619,cs),
(192,640,o),
(189,657,o),
(182,671,c),
(166,698,o),
(130,714,o),
(73,719,c),
(81,755,l),
(116,752,o),
(146,744,o),
(169,733,cs),
(215,710,o),
(235,671,o),
(228,616,cs),
(224,581,o),
(214,535,o),
(206,495,cs),
(195,442,o),
(189,407,o),
(188,389,cs),
(185,342,o),
(227,311,o),
(300,311,c),
(296,277,l),
(221,277,o),
(175,251,o),
(164,202,cs),
(160,183,o),
(157,140,o),
(156,96,c),
(153,39,o),
(151,-2,o),
(148,-25,cs),
(145,-54,o),
(136,-79,o),
(121,-99,cs),
(91,-138,o),
(39,-160,o),
(-33,-167,c)
);
}
);
width = 305;
}
);
leftKerningGroup = parenright;
unicode = 125;
},
{
glyphname = asciitilde;
layers = (
{
layerId = "D37495DA-15D9-4303-B971-3AA975198D58";
shapes = (
{
closed = 1;
nodes = (
(170,239,l),
(172,246,o),
(177,252,o),
(185,258,cs),
(193,263,o),
(202,266,o),
(213,266,cs),
(221,266,o),
(234,261,o),
(253,250,c),
(261,245,l),
(305,220,o),
(343,202,o),
(395,209,cs),
(424,213,o),
(466,228,o),
(502,263,cs),
(519,280,o),
(532,302,o),
(539,329,c),
(409,367,l),
(404,351,o),
(395,342,o),
(379,342,cs),
(364,342,o),
(354,347,o),
(325,364,cs),
(286,387,o),
(257,402,o),
(213,402,cs),
(138,402,o),
(70,364,o),
(42,285,c)
);
}
);
width = 546;
},
{
layerId = "7ECE30C0-9795-4277-8F7A-A75C7AD12C73";
shapes = (
{
closed = 1;
nodes = (
(136,247,l),
(141,261,o),
(153,273,o),
(170,283,cs),
(187,293,o),
(201,298,o),
(212,298,cs),
(228,298,o),
(248,290,o),
(272,275,cs),
(280,270,ls),
(317,247,o),
(355,233,o),
(400,238,c),
(428,242,o),
(462,254,o),
(492,283,cs),
(507,298,o),
(517,317,o),
(524,340,c),
(451,361,l),
(440,324,o),
(423,317,o),
(392,313,cs),
(365,309,o),
(345,318,o),
(313,339,cs),
(280,360,o),
(251,374,o),
(212,374,cs),
(149,374,o),
(89,340,o),
(65,273,c)
);
}
);
width = 520;
},
{
layerId = "7040E9A1-72E8-429E-817E-85B6EE6706A0";
shapes = (
{
closed = 1;
nodes = (
(107,253,l),
(114,272,o),
(127,287,o),
(147,299,cs),
(167,311,o),
(185,317,o),
(201,317,cs),
(222,317,o),
(245,308,o),
(272,291,cs),
(281,285,l),
(316,264,o),
(347,252,o),
(387,257,cs),
(414,261,o),
(442,270,o),
(467,295,cs),
(480,308,o),
(489,324,o),
(495,345,c),
(458,355,l),
(446,311,o),
(418,298,o),
(383,294,cs),
(351,290,o),
(327,302,o),
(292,323,c),
(261,343,o),
(234,355,o),
(201,355,cs),
(149,355,o),
(92,322,o),
(71,266,c)
);
}
);
width = 480;
}
);
unicode = 126;
},
{
glyphname = exclamdown;
layers = (
{
layerId = "D37495DA-15D9-4303-B971-3AA975198D58";
shapes = (
{
closed = 1;
nodes = (
(162,-224,l),
(-8,-224,l),
(73,266,l),
(205,266,l)
);
},
{
closed = 1;
nodes = (
(216,522,o),
(255,483,o),
(255,433,cs),
(255,383,o),
(207,336,o),
(156,336,cs),
(104,336,o),
(63,373,o),
(63,425,cs),
(63,480,o),
(111,522,o),
(166,522,cs)
);
}
);
width = 272;
},
{
layerId = "7ECE30C0-9795-4277-8F7A-A75C7AD12C73";
shapes = (
{
closed = 1;
nodes = (
(101,-224,l),
(12,-224,l),
(88,293,l),
(154,293,l)
);
},
{
closed = 1;
nodes = (
(177,519,o),
(198,496,o),
(198,465,cs),
(198,433,o),
(171,404,o),
(139,404,cs),
(108,404,o),
(84,426,o),
(84,457,cs),
(84,493,o),
(110,519,o),
(146,519,cs)
);
}
);
width = 223;
},
{
layerId = "7040E9A1-72E8-429E-817E-85B6EE6706A0";
shapes = (
{
closed = 1;
nodes = (
(55,-216,l),
(14,-216,l),
(88,316,l),
(114,316,l)
);
},
{
closed = 1;
nodes = (
(144,524,o),
(155,512,o),
(155,492,cs),
(155,471,o),
(140,455,o),
(119,455,cs),
(100,455,o),
(86,467,o),
(86,487,cs),
(86,509,o),
(102,524,o),
(124,524,cs)
);
}
);
width = 183;
}
);
rightKerningGroup = comma;
unicode = 161;
},
{
glyphname = cent;
layers = (
{
layerId = "D37495DA-15D9-4303-B971-3AA975198D58";
shapes = (
{
closed = 1;
nodes = (
(355,56,o),
(420,80,o),
(479,130,c),
(414,239,l),
(381,211,o),
(337,196,o),
(295,196,cs),
(253,196,o),
(224,221,o),
(211,259,cs),
(204,279,o),
(202,300,o),
(205,323,cs),
(210,372,o),
(234,411,o),
(269,433,cs),
(285,443,o),
(304,449,o),
(324,449,cs),
(358,449,o),
(382,432,o),
(396,406,c),
(501,495,l),
(487,523,o),
(464,547,o),
(431,563,cs),
(397,579,o),
(360,588,o),
(319,588,cs),
(226,588,o),
(144,545,o),
(92,468,cs),
(67,431,o),
(50,388,o),
(44,338,cs),
(32,229,o),
(67,142,o),
(142,93,cs),
(179,69,o),
(224,56,o),
(277,56,cs)
);
},
{
closed = 1;
nodes = (
(283,740,l),
(184,-70,l),
(305,-70,l),
(404,740,l)
);
}
);
width = 519;
},
{
layerId = "7ECE30C0-9795-4277-8F7A-A75C7AD12C73";
shapes = (
{
closed = 1;
nodes = (
(329,60,o),
(397,79,o),
(448,120,c),
(413,179,l),
(366,150,o),
(324,134,o),
(273,134,cs),
(205,134,o),
(158,169,o),
(138,224,cs),
(128,251,o),
(125,283,o),
(130,320,cs),
(139,395,o),
(175,456,o),
(228,489,cs),
(255,505,o),
(284,512,o),
(316,512,cs),
(367,512,o),
(403,495,o),
(426,464,c),
(478,513,l),
(467,532,o),
(447,549,o),
(418,564,cs),
(389,579,o),
(358,586,o),
(326,586,cs),
(229,586,o),
(145,541,o),
(94,461,cs),
(68,421,o),
(52,375,o),
(46,324,cs),
(34,221,o),
(68,138,o),
(139,94,cs),
(174,72,o),
(216,60,o),
(264,60,cs)
);
},
{
closed = 1;
nodes = (
(293,745,l),
(193,-73,l),
(274,-73,l),
(374,745,l)
);
}
);
width = 492;
},
{
layerId = "7040E9A1-72E8-429E-817E-85B6EE6706A0";
shapes = (
{
closed = 1;
nodes = (
(322,63,o),
(385,82,o),
(438,122,c),
(421,150,l),
(376,118,o),
(320,98,o),
(269,98,cs),
(186,98,o),
(128,133,o),
(103,201,cs),
(90,235,o),
(87,275,o),
(93,321,cs),
(104,410,o),
(147,483,o),
(212,521,cs),
(244,540,o),
(279,548,o),
(318,548,cs),
(371,548,o),
(409,534,o),
(441,498,c),
(466,521,l),
(450,542,o),
(429,557,o),
(404,568,cs),
(378,579,o),
(348,583,o),
(315,583,cs),
(230,583,o),
(151,540,o),
(100,461,cs),
(75,422,o),
(59,376,o),
(53,325,cs),
(41,220,o),
(71,138,o),
(138,95,cs),
(171,73,o),
(212,63,o),
(261,63,cs)
);
},
{
closed = 1;
nodes = (
(302,747,l),
(201,-75,l),
(239,-75,l),
(340,747,l)
);
}
);
width = 479;
}
);
leftKerningGroup = a2;
rightKerningGroup = cent;
unicode = 162;
},
{
glyphname = sterling;
layers = (
{
layerId = "D37495DA-15D9-4303-B971-3AA975198D58";
shapes = (
{
closed = 1;
nodes = (
(114,-43,l),
(154,9,o),
(184,59,o),
(205,107,cs),
(225,155,o),
(237,205,o),
(242,256,cs),
(246,301,o),
(242,333,o),
(237,374,cs),
(234,397,o),
(231,418,o),
(234,434,cs),
(239,466,o),
(261,495,o),
(297,512,cs),
(314,520,o),
(334,524,o),
(355,524,cs),
(398,524,o),
(431,506,o),
(442,479,c),
(572,542,l),
(539,626,o),
(469,672,o),
(361,672,cs),
(257,672,o),
(168,629,o),
(115,555,cs),
(88,518,o),
(72,475,o),
(67,428,cs),
(63,396,o),
(65,374,o),
(70,342,cs),
(77,303,o),
(79,276,o),
(75,229,cs),
(72,199,o),
(65,172,o),
(54,147,cs),
(42,122,o),
(18,87,o),
(-18,41,c)
);
},
{
closed = 1;
nodes = (
(415,-39,o),
(488,-17,o),
(543,26,c),
(461,138,l),
(452,130,o),
(440,123,o),
(423,118,cs),
(406,112,o),
(390,109,o),
(373,109,cs),
(348,109,o),
(326,115,o),
(289,128,cs),
(233,148,o),
(193,158,o),
(137,151,c),
(127,30,l),
(146,30,o),
(165,22,o),
(200,5,cs),
(257,-23,o),
(298,-39,o),
(354,-39,cs)
);
},
{
closed = 1;
nodes = (
(18,370,l),
(1,235,l),
(386,235,l),
(403,370,l)
);
}
);
width = 572;
},
{
layerId = "7ECE30C0-9795-4277-8F7A-A75C7AD12C73";
shapes = (
{
closed = 1;
nodes = (
(59,-12,l),
(94,37,o),
(120,83,o),
(137,126,cs),
(153,169,o),
(164,221,o),
(170,282,cs),
(174,325,o),
(171,358,o),
(166,403,cs),
(163,426,o),
(162,448,o),
(163,464,c),
(168,509,o),
(203,550,o),
(252,573,cs),
(277,584,o),
(302,590,o),
(329,590,cs),
(392,590,o),
(437,565,o),
(453,524,c),
(526,558,l),
(501,626,o),
(431,666,o),
(339,666,cs),
(239,666,o),
(163,622,o),
(121,560,cs),
(100,529,o),
(87,497,o),
(83,464,cs),
(79,432,o),
(81,406,o),
(86,370,c),
(89,341,o),
(92,309,o),
(89,280,cs),
(84,223,o),
(75,178,o),
(63,147,cs),
(51,115,o),
(29,76,o),
(-4,30,c)
);
},
{
closed = 1;
nodes = (
(377,-18,o),
(437,3,o),
(481,39,c),
(436,95,l),
(425,86,o),
(408,77,o),
(386,70,cs),
(363,62,o),
(344,58,o),
(327,58,cs),
(303,58,o),
(280,64,o),
(237,79,cs),
(178,99,o),
(134,109,o),
(85,108,c),
(78,32,l),
(105,33,o),
(131,26,o),
(179,10,cs),
(239,-9,o),
(274,-18,o),
(318,-18,cs)
);
},
{
closed = 1;
nodes = (
(14,348,l),
(5,274,l),
(318,274,l),
(327,348,l)
);
}
);
width = 516;
},
{
layerId = "7040E9A1-72E8-429E-817E-85B6EE6706A0";
shapes = (
{
closed = 1;
nodes = (
(26,-4,l),
(62,47,o),
(88,92,o),
(103,133,cs),
(118,174,o),
(129,224,o),
(134,284,cs),
(138,325,o),
(134,361,o),
(129,398,cs),
(126,422,o),
(123,448,o),
(126,465,c),
(134,526,o),
(171,575,o),
(227,602,cs),
(255,615,o),
(286,622,o),
(320,622,cs),
(395,622,o),
(432,596,o),
(451,536,c),
(485,550,l),
(464,621,o),
(408,658,o),
(325,658,cs),
(236,658,o),
(164,617,o),
(124,558,cs),
(104,528,o),
(92,497,o),
(88,465,cs),
(85,441,o),
(88,409,o),
(91,380,cs),
(96,339,o),
(99,308,o),
(95,275,c),
(90,219,o),
(80,173,o),
(66,137,cs),
(52,101,o),
(28,60,o),
(-5,15,c)
);
},
{
closed = 1;
nodes = (
(360,0,o),
(419,19,o),
(456,51,c),
(437,76,l),
(422,64,o),
(403,54,o),
(379,46,cs),
(354,37,o),
(332,33,o),
(312,33,cs),
(283,33,o),
(253,41,o),
(206,56,cs),
(142,75,o),
(106,84,o),
(61,83,c),
(59,50,l),
(92,51,o),
(122,43,o),
(179,26,cs),
(234,9,o),
(269,0,o),
(308,0,cs)
);
},
{
closed = 1;
nodes = (
(9,329,l),
(5,293,l),
(282,293,l),
(286,329,l)
);
}
);
width = 494;
}
);
unicode = 163;
},
{
glyphname = currency;
layers = (
{
layerId = "D37495DA-15D9-4303-B971-3AA975198D58";
shapes = (
{
closed = 1;
nodes = (
(404,45,o),
(487,86,o),
(537,161,cs),
(562,198,o),
(577,241,o),
(583,290,cs),
(595,393,o),
(560,476,o),
(488,521,cs),
(451,543,o),
(408,554,o),
(357,554,cs),
(261,554,o),
(179,511,o),
(128,437,cs),
(103,400,o),
(87,357,o),
(82,309,cs),
(70,206,o),
(106,123,o),
(178,79,cs),
(214,56,o),
(257,45,o),
(307,45,cs)
);
},
{
closed = 1;
nodes = (
(-15,82,l),
(88,-34,l),
(210,77,l),
(98,185,l)
);
},
{
closed = 1;
nodes = (
(401,75,l),
(503,-34,l),
(629,82,l),
(534,187,l)
);
},
{
closed = 1;
nodes = (
(284,204,o),
(262,220,o),
(252,246,cs),
(247,259,o),
(245,273,o),
(247,290,cs),
(251,330,o),
(273,364,o),
(303,382,cs),
(318,391,o),
(334,395,o),
(351,395,cs),
(382,395,o),
(406,381,o),
(415,354,cs),
(420,341,o),
(421,325,o),
(419,308,cs),
(414,268,o),
(393,236,o),
(364,218,cs),
(349,209,o),
(333,204,o),
(315,204,cs)
);
},
{
closed = 1;
nodes = (
(38,518,l),
(131,413,l),
(266,522,l),
(165,634,l)
);
},
{
closed = 1;
nodes = (
(457,522,l),
(567,413,l),
(682,518,l),
(580,634,l)
);
}
);
width = 655;
},
{
layerId = "7ECE30C0-9795-4277-8F7A-A75C7AD12C73";
shapes = (
{
closed = 1;
nodes = (
(377,53,o),
(455,93,o),
(503,164,cs),
(526,199,o),
(541,240,o),
(546,286,cs),
(557,379,o),
(525,456,o),
(458,497,cs),
(425,517,o),
(385,527,o),
(339,527,cs),
(250,527,o),
(173,486,o),
(126,416,cs),
(102,381,o),
(87,340,o),
(82,294,cs),
(71,199,o),
(104,124,o),
(170,84,cs),
(203,63,o),
(242,53,o),
(288,53,cs)
);
},
{
closed = 1;
nodes = (
(-7,43,l),
(44,-15,l),
(172,100,l),
(116,154,l)
);
},
{
closed = 1;
nodes = (
(409,102,l),
(513,-15,l),
(576,43,l),
(476,156,l)
);
},
{
closed = 1;
nodes = (
(234,127,o),
(191,155,o),
(172,203,cs),
(163,227,o),
(160,255,o),
(164,286,cs),
(172,351,o),
(206,404,o),
(256,432,cs),
(281,446,o),
(308,453,o),
(338,453,cs),
(395,453,o),
(438,425,o),
(457,378,cs),
(466,354,o),
(469,327,o),
(466,296,cs),
(458,231,o),
(424,177,o),
(374,149,c),
(349,134,o),
(321,127,o),
(291,127,cs)
);
},
{
closed = 1;
nodes = (
(54,537,l),
(153,424,l),
(219,479,l),
(116,595,l)
);
},
{
closed = 1;
nodes = (
(456,479,l),
(512,424,l),
(637,537,l),
(585,595,l)
);
}
);
width = 619;
},
{
layerId = "7040E9A1-72E8-429E-817E-85B6EE6706A0";
shapes = (
{
closed = 1;
nodes = (
(367,57,o),
(441,98,o),
(488,167,cs),
(511,202,o),
(526,241,o),
(531,286,cs),
(542,375,o),
(511,448,o),
(447,488,cs),
(415,507,o),
(377,517,o),
(333,517,cs),
(245,517,o),
(171,476,o),
(124,408,cs),
(101,373,o),
(86,334,o),
(81,289,cs),
(70,200,o),
(101,126,o),
(165,87,cs),
(197,67,o),
(235,57,o),
(280,57,cs)
);
},
{
closed = 1;
nodes = (
(-3,27,l),
(25,-5,l),
(153,110,l),
(123,138,l)
);
},
{
closed = 1;
nodes = (
(415,112,l),
(519,-5,l),
(553,27,l),
(452,142,l)
);
},
{
closed = 1;
nodes = (
(213,94,o),
(161,127,o),
(138,186,cs),
(127,215,o),
(123,249,o),
(128,286,cs),
(137,361,o),
(176,423,o),
(236,456,cs),
(265,472,o),
(298,480,o),
(333,480,cs),
(402,480,o),
(453,447,o),
(477,390,c),
(488,361,o),
(492,329,o),
(487,292,cs),
(478,215,o),
(438,152,o),
(379,119,cs),
(349,102,o),
(317,94,o),
(282,94,cs)
);
},
{
closed = 1;
nodes = (
(61,548,l),
(161,433,l),
(197,463,l),
(95,580,l)
);
},
{
closed = 1;
nodes = (
(459,463,l),
(490,433,l),
(617,548,l),
(589,580,l)
);
}
);
width = 603;
}
);
unicode = 164;
},
{
glyphname = yen;
layers = (
{
layerId = "D37495DA-15D9-4303-B971-3AA975198D58";
shapes = (
{
closed = 1;
nodes = (
(194,271,l),
(162,0,l),
(327,0,l),
(360,273,l),
(603,636,l),
(404,636,l),
(304,465,l),
(291,424,l),
(288,465,l),
(244,636,l),
(47,636,l)
);
},
{
closed = 1;
nodes = (
(46,222,l),
(31,102,l),
(465,102,l),
(481,222,l)
);
},
{
closed = 1;
nodes = (
(62,368,l),
(47,247,l),
(481,247,l),
(496,368,l)
);
}
);
width = 555;
},
{
layerId = "7ECE30C0-9795-4277-8F7A-A75C7AD12C73";
shapes = (
{
closed = 1;
nodes = (
(209,275,l),
(177,0,l),
(258,0,l),
(291,277,l),
(539,636,l),
(445,636,l),
(280,394,l),
(258,348,l),
(247,394,l),
(149,636,l),
(54,636,l)
);
},
{
closed = 1;
nodes = (
(62,240,l),
(54,166,l),
(430,166,l),
(438,240,l)
);
},
{
closed = 1;
nodes = (
(73,365,l),
(65,291,l),
(441,291,l),
(449,365,l)
);
}
);
width = 496;
},
{
layerId = "7040E9A1-72E8-429E-817E-85B6EE6706A0";
shapes = (
{
closed = 1;
nodes = (
(218,280,l),
(184,1,l),
(222,1,l),
(255,281,l),
(501,636,l),
(458,636,l),
(257,344,l),
(243,318,l),
(233,344,l),
(103,636,l),
(59,636,l)
);
},
{
closed = 1;
nodes = (
(59,179,l),
(56,143,l),
(388,143,l),
(392,179,l)
);
},
{
closed = 1;
nodes = (
(70,304,l),
(67,268,l),
(399,268,l),
(403,304,l)
);
}
);
width = 465;
}
);
unicode = 165;
},
{
glyphname = brokenbar;
layers = (
{
layerId = "D37495DA-15D9-4303-B971-3AA975198D58";
shapes = (
{
closed = 1;
nodes = (
(133,750,l),
(86,373,l),
(247,373,l),
(294,750,l)
);
},
{
closed = 1;
nodes = (
(80,317,l),
(33,-60,l),
(194,-60,l),
(241,317,l)
);
}
);
width = 304;
},
{
layerId = "7ECE30C0-9795-4277-8F7A-A75C7AD12C73";
shapes = (
{
closed = 1;
nodes = (
(150,750,l),
(103,368,l),
(185,368,l),
(232,750,l)
);
},
{
closed = 1;
nodes = (
(96,314,l),
(49,-68,l),
(131,-68,l),
(178,314,l)
);
}
);
width = 259;
},
{
layerId = "7040E9A1-72E8-429E-817E-85B6EE6706A0";
shapes = (
{
closed = 1;
nodes = (
(153,752,l),
(109,391,l),
(153,391,l),
(197,752,l)
);
},
{
closed = 1;
nodes = (
(96,291,l),
(52,-70,l),
(96,-70,l),
(140,291,l)
);
}
);
width = 226;
}
);
unicode = 166;
},
{
glyphname = section;
layers = (
{
layerId = "D37495DA-15D9-4303-B971-3AA975198D58";
shapes = (
{
closed = 1;
nodes = (
(188,113,l),
(263,110,o),
(329,139,o),
(371,190,cs),
(392,215,o),
(405,244,o),
(410,276,cs),
(421,344,o),
(378,418,o),
(302,461,cs),
(292,467,l),
(269,482,o),
(255,493,o),
(248,502,cs),
(245,506,o),
(243,510,o),
(244,513,cs),
(247,530,o),
(265,545,o),
(288,544,cs),
(304,543,o),
(323,538,o),
(330,530,c),
(449,606,l),
(421,657,o),
(368,688,o),
(300,691,cs),
(229,694,o),
(163,665,o),
(121,616,cs),
(100,591,o),
(86,563,o),
(81,532,cs),
(72,481,o),
(80,450,o),
(109,420,cs),
(124,405,o),
(146,388,o),
(176,369,cs),
(226,339,ls),
(247,327,o),
(251,316,o),
(248,297,c),
(247,285,o),
(241,273,o),
(232,262,cs),
(223,251,o),
(213,245,o),
(204,246,c)
);
},
{
closed = 1;
nodes = (
(227,-116,o),
(293,-87,o),
(335,-38,cs),
(356,-13,o),
(369,15,o),
(374,46,cs),
(383,97,o),
(376,129,o),
(347,161,c),
(332,176,o),
(310,193,o),
(281,210,cs),
(261,222,o),
(244,232,o),
(229,239,cs),
(218,244,o),
(212,250,o),
(210,257,c),
(207,263,o),
(207,271,o),
(208,281,cs),
(209,294,o),
(215,306,o),
(224,317,cs),
(233,328,o),
(242,334,o),
(251,333,c),
(267,465,l),
(194,468,o),
(127,439,o),
(85,388,cs),
(64,363,o),
(50,334,o),
(45,303,cs),
(32,228,o),
(73,161,o),
(154,117,cs),
(186,100,o),
(202,87,o),
(208,78,cs),
(211,73,o),
(212,69,o),
(212,64,cs),
(212,48,o),
(191,35,o),
(167,35,cs),
(151,35,o),
(135,37,o),
(126,48,c),
(7,-28,l),
(43,-80,o),
(92,-110,o),
(156,-113,cs)
);
}
);
width = 445;
},
{
layerId = "7ECE30C0-9795-4277-8F7A-A75C7AD12C73";
shapes = (
{
closed = 1;
nodes = (
(169,133,l),
(241,130,o),
(295,152,o),
(328,197,cs),
(345,219,o),
(356,247,o),
(361,281,cs),
(370,346,o),
(336,408,o),
(269,445,cs),
(254,453,l),
(214,476,o),
(193,491,o),
(182,510,cs),
(176,519,o),
(174,530,o),
(176,542,cs),
(183,590,o),
(217,616,o),
(268,615,cs),
(300,614,o),
(325,599,o),
(336,579,c),
(401,619,l),
(382,663,o),
(332,688,o),
(275,691,c),
(211,692,o),
(160,672,o),
(128,629,cs),
(112,608,o),
(102,582,o),
(97,552,cs),
(88,492,o),
(111,452,o),
(143,429,cs),
(158,418,o),
(179,405,o),
(204,392,cs),
(229,379,l),
(262,360,o),
(287,328,o),
(282,291,cs),
(278,264,o),
(266,242,o),
(247,225,cs),
(228,208,o),
(205,200,o),
(178,201,c)
);
},
{
closed = 1;
nodes = (
(206,-116,o),
(259,-93,o),
(292,-50,cs),
(308,-28,o),
(318,-3,o),
(321,26,cs),
(329,89,o),
(305,129,o),
(274,152,cs),
(258,163,o),
(238,175,o),
(213,187,cs),
(205,191,o),
(197,195,o),
(189,199,cs),
(168,211,o),
(153,224,o),
(144,239,cs),
(135,253,o),
(133,269,o),
(136,287,cs),
(141,314,o),
(153,336,o),
(172,353,cs),
(191,370,o),
(213,378,o),
(239,377,c),
(248,446,l),
(177,449,o),
(122,428,o),
(89,382,cs),
(72,359,o),
(62,330,o),
(57,297,cs),
(48,229,o),
(84,169,o),
(149,133,cs),
(194,108,o),
(222,89,o),
(235,69,c),
(241,58,o),
(243,47,o),
(242,36,cs),
(235,-12,o),
(200,-40,o),
(149,-37,c),
(118,-36,o),
(92,-20,o),
(81,-1,c),
(17,-41,l),
(36,-86,o),
(83,-110,o),
(143,-113,cs)
);
}
);
width = 408;
},
{
layerId = "7040E9A1-72E8-429E-817E-85B6EE6706A0";
shapes = (
{
closed = 1;
nodes = (
(157,145,l),
(209,144,o),
(262,169,o),
(295,210,cs),
(312,231,o),
(322,254,o),
(326,279,cs),
(335,338,o),
(308,386,o),
(244,423,cs),
(229,432,l),
(182,457,o),
(160,472,o),
(147,497,cs),
(140,509,o),
(138,523,o),
(141,540,cs),
(149,596,o),
(195,634,o),
(256,631,c),
(295,628,o),
(328,611,o),
(341,586,c),
(370,604,l),
(353,641,o),
(310,664,o),
(258,667,c),
(207,668,o),
(162,648,o),
(132,611,cs),
(117,592,o),
(107,571,o),
(103,546,cs),
(94,497,o),
(114,464,o),
(142,444,cs),
(156,433,o),
(175,422,o),
(198,410,c),
(225,395,l),
(282,360,o),
(296,333,o),
(288,285,cs),
(283,255,o),
(268,230,o),
(243,209,cs),
(218,188,o),
(191,178,o),
(161,179,c)
);
},
{
closed = 1;
nodes = (
(181,-96,o),
(228,-76,o),
(258,-39,cs),
(273,-20,o),
(282,1,o),
(286,26,cs),
(295,77,o),
(275,109,o),
(248,129,cs),
(234,139,o),
(215,150,o),
(192,162,cs),
(183,167,o),
(173,172,o),
(164,177,cs),
(133,195,o),
(113,212,o),
(106,228,cs),
(99,243,o),
(97,263,o),
(101,287,cs),
(106,317,o),
(121,343,o),
(146,364,cs),
(170,385,o),
(197,394,o),
(227,393,c),
(232,427,l),
(180,428,o),
(127,403,o),
(94,362,cs),
(77,341,o),
(67,318,o),
(63,293,cs),
(54,237,o),
(81,186,o),
(145,149,cs),
(201,117,o),
(224,104,o),
(240,78,cs),
(248,65,o),
(251,49,o),
(248,32,cs),
(239,-24,o),
(193,-62,o),
(132,-59,c),
(93,-56,o),
(61,-39,o),
(48,-14,c),
(19,-32,l),
(36,-69,o),
(80,-92,o),
(129,-95,c)
);
}
);
width = 380;
}
);
unicode = 167;
},
{
glyphname = dieresis;
layers = (
{
layerId = "D37495DA-15D9-4303-B971-3AA975198D58";
shapes = (
{
closed = 1;
nodes = (
(204,543,o),
(227,552,o),
(247,569,cs),
(266,586,o),
(278,606,o),
(281,629,cs),
(284,658,o),
(277,682,o),
(259,702,cs),
(241,722,o),
(218,732,o),
(189,732,cs),
(165,732,o),
(144,723,o),
(125,706,cs),
(106,689,o),
(94,668,o),
(91,645,cs),
(88,618,o),
(95,594,o),
(112,574,cs),
(129,553,o),
(152,543,o),
(179,543,cs)
);
},
{
closed = 1;
nodes = (
(449,543,o),
(472,552,o),
(492,569,cs),
(511,586,o),
(523,606,o),
(526,629,cs),
(529,658,o),
(522,682,o),
(504,702,cs),
(486,722,o),
(463,732,o),
(434,732,cs),
(410,732,o),
(389,723,o),
(370,706,cs),
(351,689,o),
(339,668,o),
(336,645,cs),
(333,618,o),
(340,594,o),
(357,574,cs),
(374,553,o),
(397,543,o),
(424,543,cs)
);
}
);
width = 521;
},
{
layerId = "7ECE30C0-9795-4277-8F7A-A75C7AD12C73";
shapes = (
{
closed = 1;
nodes = (
(167,544,o),
(179,549,o),
(190,559,cs),
(201,568,o),
(208,579,o),
(209,592,cs),
(211,607,o),
(207,620,o),
(197,632,cs),
(187,643,o),
(175,649,o),
(160,649,cs),
(147,649,o),
(135,644,o),
(124,634,cs),
(113,624,o),
(106,613,o),
(105,600,cs),
(104,585,o),
(108,572,o),
(118,561,cs),
(127,550,o),
(139,544,o),
(154,544,cs)
);
},
{
closed = 1;
nodes = (
(372,544,o),
(384,549,o),
(395,559,cs),
(406,568,o),
(413,579,o),
(414,592,cs),
(416,607,o),
(412,620,o),
(402,632,cs),
(392,643,o),
(380,649,o),
(365,649,cs),
(352,649,o),
(340,644,o),
(329,634,cs),
(318,624,o),
(311,613,o),
(310,600,cs),
(309,585,o),
(313,572,o),
(323,561,cs),
(332,550,o),
(344,544,o),
(359,544,cs)
);
}
);
width = 434;
},
{
layerId = "7040E9A1-72E8-429E-817E-85B6EE6706A0";
shapes = (
{
closed = 1;
nodes = (
(154,562,o),
(163,565,o),
(170,571,cs),
(177,577,o),
(181,585,o),
(182,595,cs),
(183,606,o),
(180,614,o),
(174,621,cs),
(168,628,o),
(160,631,o),
(149,631,cs),
(140,631,o),
(132,628,o),
(125,622,cs),
(118,616,o),
(114,608,o),
(113,599,cs),
(112,588,o),
(114,579,o),
(120,572,cs),
(125,565,o),
(133,562,o),
(144,562,cs)
);
},
{
closed = 1;
nodes = (
(356,562,o),
(365,565,o),
(372,571,cs),
(379,577,o),
(383,585,o),
(384,595,cs),
(385,606,o),
(382,614,o),
(376,621,cs),
(370,628,o),
(362,631,o),
(351,631,cs),
(342,631,o),
(334,628,o),
(327,622,cs),
(320,616,o),
(316,608,o),
(315,599,cs),
(314,588,o),
(316,579,o),
(322,572,cs),
(327,565,o),
(335,562,o),
(346,562,cs)
);
}
);
width = 412;
}
);
leftKerningGroup = comma2;
rightKerningGroup = comma;
unicode = 168;
},
{
glyphname = copyright;
layers = (
{
layerId = "D37495DA-15D9-4303-B971-3AA975198D58";
shapes = (
{
closed = 1;
nodes = (
(463,157,o),
(521,184,o),
(561,239,c),
(453,317,l),
(448,308,o),
(427,297,o),
(406,297,cs),
(391,297,o),
(380,305,o),
(376,321,c),
(373,328,o),
(373,337,o),
(374,347,cs),
(377,374,o),
(388,393,o),
(402,404,cs),
(409,409,o),
(416,412,o),
(425,412,cs),
(444,412,o),
(453,407,o),
(456,398,c),
(583,440,l),
(576,471,o),
(558,498,o),
(530,520,c),
(501,541,o),
(468,552,o),
(429,552,cs),
(362,552,o),
(298,519,o),
(256,460,cs),
(235,430,o),
(222,396,o),
(217,357,cs),
(208,278,o),
(241,215,o),
(301,182,cs),
(331,165,o),
(364,157,o),
(400,157,cs)
);
},
{
closed = 1;
nodes = (
(499,-11,o),
(622,54,o),
(698,162,cs),
(736,215,o),
(759,275,o),
(767,342,cs),
(784,481,o),
(730,601,o),
(625,666,cs),
(572,698,o),
(511,714,o),
(442,714,cs),
(307,714,o),
(185,648,o),
(109,539,cs),
(71,484,o),
(48,423,o),
(40,356,cs),
(24,219,o),
(77,101,o),
(182,37,cs),
(234,5,o),
(295,-11,o),
(364,-11,cs)
);
},
{
closed = 1;
nodes = (
(276,105,o),
(208,148,o),
(177,220,cs),
(162,256,o),
(157,297,o),
(162,342,cs),
(174,438,o),
(229,520,o),
(310,565,cs),
(351,587,o),
(394,598,o),
(441,598,cs),
(528,598,o),
(597,554,o),
(627,482,cs),
(642,446,o),
(646,406,o),
(641,361,cs),
(629,264,o),
(574,182,o),
(495,138,cs),
(456,116,o),
(413,105,o),
(367,105,cs)
);
}
);
width = 783;
},
{
layerId = "7ECE30C0-9795-4277-8F7A-A75C7AD12C73";
shapes = (
{
closed = 1;
nodes = (
(454,151,o),
(513,178,o),
(550,229,c),
(491,270,l),
(471,242,o),
(433,223,o),
(390,223,cs),
(345,223,o),
(310,244,o),
(295,281,cs),
(288,299,o),
(286,320,o),
(289,344,cs),
(297,396,o),
(324,440,o),
(365,464,cs),
(385,476,o),
(408,482,o),
(433,482,cs),
(473,482,o),
(498,465,o),
(506,433,c),
(576,453,l),
(569,482,o),
(553,506,o),
(526,525,cs),
(499,544,o),
(466,554,o),
(427,554,cs),
(358,554,o),
(291,519,o),
(249,459,cs),
(228,428,o),
(215,394,o),
(210,355,cs),
(201,275,o),
(232,211,o),
(290,177,cs),
(319,160,o),
(351,151,o),
(387,151,cs)
);
},
{
closed = 1;
nodes = (
(495,-10,o),
(616,56,o),
(692,164,cs),
(729,218,o),
(752,278,o),
(760,345,cs),
(776,480,o),
(723,596,o),
(622,659,cs),
(571,690,o),
(513,706,o),
(446,706,cs),
(313,706,o),
(192,640,o),
(117,532,cs),
(80,478,o),
(57,418,o),
(49,351,cs),
(33,215,o),
(85,100,o),
(186,37,cs),
(237,6,o),
(296,-10,o),
(363,-10,cs)
);
},
{
closed = 1;
nodes = (
(257,60,o),
(177,110,o),
(141,197,cs),
(123,240,o),
(117,290,o),
(124,345,cs),
(137,457,o),
(200,549,o),
(292,598,cs),
(338,623,o),
(389,635,o),
(444,635,cs),
(551,635,o),
(631,585,o),
(667,501,cs),
(685,458,o),
(691,410,o),
(684,356,cs),
(669,240,o),
(608,148,o),
(517,98,cs),
(471,73,o),
(420,60,o),
(365,60,cs)
);
}
);
width = 785;
},
{
layerId = "7040E9A1-72E8-429E-817E-85B6EE6706A0";
shapes = (
{
closed = 1;
nodes = (
(441,145,o),
(501,173,o),
(537,221,c),
(508,241,l),
(481,202,o),
(434,180,o),
(378,180,cs),
(319,180,o),
(273,208,o),
(252,256,cs),
(241,280,o),
(238,308,o),
(242,339,cs),
(250,404,o),
(286,459,o),
(338,488,cs),
(364,503,o),
(392,510,o),
(422,510,cs),
(483,510,o),
(520,480,o),
(529,440,c),
(561,448,l),
(555,476,o),
(539,499,o),
(514,517,cs),
(489,535,o),
(457,544,o),
(420,544,cs),
(351,544,o),
(285,507,o),
(244,447,cs),
(223,416,o),
(211,382,o),
(207,343,cs),
(198,264,o),
(227,202,o),
(282,170,c),
(309,153,o),
(341,145,o),
(376,145,cs)
);
},
{
closed = 1;
nodes = (
(485,-6,o),
(602,58,o),
(674,162,cs),
(710,214,o),
(732,272,o),
(740,337,cs),
(756,466,o),
(705,577,o),
(609,637,cs),
(560,667,o),
(504,682,o),
(439,682,cs),
(311,682,o),
(194,618,o),
(122,514,cs),
(85,462,o),
(63,404,o),
(55,339,cs),
(39,210,o),
(90,99,o),
(187,39,cs),
(236,9,o),
(292,-6,o),
(356,-6,cs)
);
},
{
closed = 1;
nodes = (
(245,25,o),
(154,83,o),
(113,178,cs),
(92,225,o),
(86,278,o),
(93,337,cs),
(108,454,o),
(177,554,o),
(278,609,cs),
(328,636,o),
(382,650,o),
(439,650,cs),
(551,650,o),
(641,593,o),
(682,500,cs),
(702,453,o),
(709,401,o),
(702,344,cs),
(687,224,o),
(619,122,o),
(519,67,cs),
(469,39,o),
(415,25,o),
(358,25,cs)
);
}
);
width = 773;
}
);
unicode = 169;
},
{
glyphname = ordfeminine;
leftMetricsKey = "=17";
rightMetricsKey = "=23";
layers = (
{
layerId = "D37495DA-15D9-4303-B971-3AA975198D58";
shapes = (
{
closed = 1;
nodes = (
(228,335,o),
(268,354,o),
(296,390,c),
(284,390,l),
(284,385,ls),
(284,345,o),
(336,337,o),
(387,337,c),
(398,439,l),
(391,438,o),
(379,443,o),
(380,451,cs),
(410,660,l),
(366,680,o),
(304,700,o),
(255,700,cs),
(142,700,o),
(64,626,o),
(51,520,cs),
(40,428,o),
(87,335,o),
(187,335,cs)
);
},
{
closed = 1;
nodes = (
(166,445,o),
(162,488,o),
(166,516,cs),
(172,558,o),
(199,592,o),
(247,592,cs),
(257,592,o),
(266,591,o),
(276,588,c),
(262,494,l),
(256,468,o),
(234,445,o),
(204,445,cs)
);
}
);
width = 399;
},
{
layerId = "7ECE30C0-9795-4277-8F7A-A75C7AD12C73";
leftMetricsKey = "=25";
rightMetricsKey = "=30";
shapes = (
{
closed = 1;
nodes = (
(248,346,o),
(290,369,o),
(320,406,c),
(308,414,l),
(308,410,ls),
(308,370,o),
(341,344,o),
(380,344,c),
(386,401,l),
(374,401,o),
(364,407,o),
(366,418,cs),
(400,663,l),
(362,684,o),
(310,697,o),
(267,697,cs),
(148,697,o),
(73,625,o),
(59,519,cs),
(47,427,o),
(108,346,o),
(202,346,cs)
);
},
{
closed = 1;
nodes = (
(140,402,o),
(111,458,o),
(119,517,cs),
(130,590,o),
(176,641,o),
(260,641,cs),
(284,641,o),
(311,638,o),
(333,631,c),
(312,477,l),
(303,433,o),
(256,402,o),
(207,402,cs)
);
}
);
width = 398;
},
{
layerId = "7040E9A1-72E8-429E-817E-85B6EE6706A0";
leftMetricsKey = "=29";
rightMetricsKey = "=25";
shapes = (
{
closed = 1;
nodes = (
(240,349,o),
(291,379,o),
(313,425,c),
(306,417,l),
(305,399,ls),
(303,363,o),
(334,348,o),
(356,348,c),
(357,372,l),
(344,372,o),
(330,380,o),
(332,399,cs),
(359,667,l),
(331,684,o),
(283,694,o),
(251,694,cs),
(147,694,o),
(74,621,o),
(63,520,c),
(52,431,o),
(94,349,o),
(190,349,cs)
);
},
{
closed = 1;
nodes = (
(108,375,o),
(74,448,o),
(84,515,c),
(95,605,o),
(153,668,o),
(247,668,cs),
(270,668,o),
(309,663,o),
(330,653,c),
(312,469,l),
(300,413,o),
(243,375,o),
(185,375,cs)
);
}
);
width = 369;
}
);
unicode = 170;
},
{
glyphname = guillemotleft;
layers = (
{
layerId = "D37495DA-15D9-4303-B971-3AA975198D58";
shapes = (
{
closed = 1;
nodes = (
(320,265,l),
(642,530,l),
(745,411,l),
(553,250,l),
(707,89,l),
(585,-20,l)
);
},
{
closed = 1;
nodes = (
(-6,265,l),
(316,530,l),
(419,411,l),
(227,250,l),
(381,89,l),
(259,-20,l)
);
}
);
width = 756;
},
{
layerId = "7ECE30C0-9795-4277-8F7A-A75C7AD12C73";
shapes = (
{
closed = 1;
nodes = (
(212,265,l),
(505,517,l),
(555,453,l),
(326,255,l),
(523,49,l),
(462,-6,l)
);
},
{
closed = 1;
nodes = (
(-8,265,l),
(285,517,l),
(335,453,l),
(106,255,l),
(303,49,l),
(242,-6,l)
);
}
);
width = 595;
},
{
layerId = "7040E9A1-72E8-429E-817E-85B6EE6706A0";
shapes = (
{
closed = 1;
nodes = (
(202,265,l),
(514,515,l),
(537,483,l),
(256,261,l),
(478,23,l),
(452,-5,l)
);
},
{
closed = 1;
nodes = (
(-12,265,l),
(300,515,l),
(323,483,l),
(42,261,l),
(264,23,l),
(238,-5,l)
);
}
);
width = 574;
}
);
leftKerningGroup = guilsinglleft2;
rightKerningGroup = guilsinglleft;
unicode = 171;
},
{
glyphname = logicalnot;
layers = (
{
layerId = "D37495DA-15D9-4303-B971-3AA975198D58";
shapes = (
{
closed = 1;
nodes = (
(306,226,l),
(293,123,l),
(460,123,l),
(492,384,l),
(70,384,l),
(51,226,l)
);
}
);
width = 546;
},
{
layerId = "7ECE30C0-9795-4277-8F7A-A75C7AD12C73";
shapes = (
{
closed = 1;
nodes = (
(345,256,l),
(331,142,l),
(415,142,l),
(438,335,l),
(65,335,l),
(56,256,l)
);
}
);
width = 520;
},
{
layerId = "7040E9A1-72E8-429E-817E-85B6EE6706A0";
shapes = (
{
closed = 1;
nodes = (
(362,272,l),
(347,152,l),
(392,152,l),
(412,313,l),
(61,313,l),
(56,272,l)
);
}
);
width = 480;
}
);
unicode = 172;
},
